STARTFONT 2.1
FONT -FontForge-Good Times Rg-Book-R-Normal--180-1730-75-75-P-1337-ISO10646-1
SIZE 173 75 75
FONTBOUNDINGBOX 359 213 -50 -37
COMMENT "Generated by fontforge, http://fontforge.sourceforge.net"
COMMENT "(c) 1998-2012 Typodermic Fonts Inc. See attached license agreement. If agreement is missing visit typodermicfonts.com for more info. Languages by Chikako Larabie"
STARTPROPERTIES 39
FOUNDRY "FontForge"
FAMILY_NAME "Good Times Rg"
WEIGHT_NAME "Book"
SLANT "R"
SETWIDTH_NAME "Normal"
ADD_STYLE_NAME ""
PIXEL_SIZE 180
POINT_SIZE 1730
RESOLUTION_X 75
RESOLUTION_Y 75
SPACING "P"
AVERAGE_WIDTH 1337
CHARSET_REGISTRY "ISO10646"
CHARSET_ENCODING "1"
FONTNAME_REGISTRY ""
CHARSET_COLLECTIONS "ISO8859-2 ISO8859-9 ISO8859-4 ISO10646-1"
FONT_NAME "GoodTimesRg-Regular"
FACE_NAME "GoodTimesRg-Regular"
COPYRIGHT "(c) 1998-2012 Typodermic Fonts Inc. See attached license agreement. If agreement is missing visit typodermicfonts.com for more info. Languages by Chikako Larabie"
FONT_VERSION "4.001"
FONT_ASCENT 144
FONT_DESCENT 36
UNDERLINE_POSITION -26
UNDERLINE_THICKNESS 4
X_HEIGHT 130
CAP_HEIGHT 130
RAW_ASCENT 799
RAW_DESCENT 201
NORM_SPACE 53
RELATIVE_WEIGHT 40
RELATIVE_SETWIDTH 50
SUPERSCRIPT_X 0
SUPERSCRIPT_Y 54
SUPERSCRIPT_SIZE 54
SUBSCRIPT_X 0
SUBSCRIPT_Y 0
SUBSCRIPT_SIZE 54
AVG_LOWERCASE_WIDTH 1534
AVG_UPPERCASE_WIDTH 1528
ENDPROPERTIES
CHARS 372
STARTCHAR space
ENCODING 32
SWIDTH 294 0
DWIDTH 53 0
BBX 1 1 0 0
BITMAP
00
ENDCHAR
STARTCHAR exclam
ENCODING 33
SWIDTH 298 0
DWIDTH 54 0
BBX 24 131 15 0
BITMAP
7FFFFE
7FFFFE
7FFFFE
7FFFFE
7FFFFE
7FFFFE
7FFFFE
7FFFFE
7FFFFE
7FFFFE
7FFFFE
7FFFFE
7FFFFE
7FFFFE
7FFFFE
7FFFFE
7FFFFE
7FFFFE
7FFFFE
7FFFFE
7FFFFE
7FFFFE
7FFFFE
7FFFFE
7FFFFE
7FFFFE
7FFFFE
7FFFFE
7FFFFE
7FFFFE
7FFFFE
7FFFFE
7FFFFE
7FFFFE
7FFFFE
7FFFFE
7FFFFE
7FFFFE
7FFFFE
7FFFFE
7FFFFE
7FFFFE
7FFFFE
7FFFFE
7FFFFE
7FFFFE
7FFFFE
7FFFFE
7FFFFE
7FFFFE
7FFFFE
7FFFFE
7FFFFE
7FFFFE
7FFFFE
7FFFFE
7FFFFE
7FFFFE
7FFFFE
7FFFFE
7FFFFE
7FFFFE
7FFFFE
7FFFFE
7FFFFE
7FFFFE
7FFFFE
7FFFFE
7FFFFE
7FFFFE
7FFFFE
7FFFFE
7FFFFE
7FFFFE
7FFFFE
7FFFFE
7FFFFE
7FFFFE
7FFFFE
7FFFFE
7FFFFE
7FFFFE
7FFFFE
7FFFFE
7FFFFE
7FFFFE
7FFFFE
7FFFFE
7FFFFE
000000
000000
000000
000000
000000
000000
000000
000000
000000
000000
000000
000000
000000
000000
000000
000000
000000
00FF00
03FFC0
07FFF0
1FFFF8
1FFFFC
3FFFFE
7FFFFE
7FFFFF
FFFFFF
FFFFFF
FFFFFF
FFFFFF
FFFFFF
FFFFFF
FFFFFF
FFFFFF
FFFFFF
7FFFFF
7FFFFE
3FFFFE
1FFFFC
1FFFF8
07FFF0
03FFC0
00FF00
ENDCHAR
STARTCHAR quotedbl
ENCODING 34
SWIDTH 452 0
DWIDTH 81 0
BBX 57 47 12 84
BITMAP
FFFFFE003FFFFF80
FFFFFE003FFFFF80
FFFFFE003FFFFF80
7FFFFE003FFFFF80
7FFFFE003FFFFF80
7FFFFE003FFFFF80
7FFFFE001FFFFF80
7FFFFE001FFFFF00
7FFFFE001FFFFF00
7FFFFE001FFFFF00
7FFFFE001FFFFF00
7FFFFC001FFFFF00
7FFFFC001FFFFF00
7FFFFC001FFFFF00
3FFFFC001FFFFF00
3FFFFC001FFFFF00
3FFFFC001FFFFF00
3FFFFC000FFFFF00
3FFFFC000FFFFF00
3FFFFC000FFFFE00
3FFFFC000FFFFE00
3FFFFC000FFFFE00
3FFFF8000FFFFE00
3FFFF8000FFFFE00
3FFFF8000FFFFE00
3FFFF8000FFFFE00
1FFFF8000FFFFE00
1FFFF8000FFFFE00
1FFFF80007FFFE00
1FFFF80007FFFE00
1FFFF80007FFFC00
1FFFF80007FFFC00
1FFFF80007FFFC00
1FFFF80007FFFC00
1FFFF00007FFFC00
1FFFF00007FFFC00
1FFFF00007FFFC00
0FFFF00007FFFC00
0FFFF00007FFFC00
0FFFF00003FFFC00
0FFFF00003FFFC00
0FFFF00003FFF800
0FFFF00003FFF800
0FFFF00003FFF800
0FFFF00003FFF800
0FFFE00003FFF800
0FFFE00003FFF800
ENDCHAR
STARTCHAR numbersign
ENCODING 35
SWIDTH 697 0
DWIDTH 125 0
BBX 110 131 8 0
BITMAP
000000000007FFF8000000FFFF00
00000000000FFFF8000001FFFF00
00000000000FFFF8000001FFFE00
00000000000FFFF0000001FFFE00
00000000000FFFF0000001FFFE00
00000000001FFFF0000003FFFE00
00000000001FFFE0000003FFFC00
00000000001FFFE0000003FFFC00
00000000003FFFE0000007FFFC00
00000000003FFFE0000007FFF800
00000000003FFFC0000007FFF800
00000000007FFFC0000007FFF800
00000000007FFFC000000FFFF000
00000000007FFF8000000FFFF000
00000000007FFF8000000FFFF000
0000000000FFFF8000001FFFF000
0000000000FFFF0000001FFFE000
0000000000FFFF0000001FFFE000
0000000001FFFF0000003FFFE000
0000000001FFFF0000003FFFC000
0000000001FFFE0000003FFFC000
0000000001FFFE0000003FFFC000
0000000003FFFE0000007FFF8000
0000000003FFFC0000007FFF8000
0000000003FFFC0000007FFF8000
0000000007FFFC000000FFFF8000
0000000007FFF8000000FFFF0000
0000000007FFF8000000FFFF0000
000000000FFFF8000001FFFF0000
000000000FFFF8000001FFFE0000
000000000FFFF0000001FFFE0000
000000000FFFF0000001FFFE0000
000000001FFFF0000003FFFE0000
000000001FFFE0000003FFFC0000
0003FFFFFFFFFFFFFFFFFFFFFFFC
0003FFFFFFFFFFFFFFFFFFFFFFFC
0003FFFFFFFFFFFFFFFFFFFFFFFC
0003FFFFFFFFFFFFFFFFFFFFFFFC
0003FFFFFFFFFFFFFFFFFFFFFFFC
0003FFFFFFFFFFFFFFFFFFFFFFFC
0003FFFFFFFFFFFFFFFFFFFFFFFC
0003FFFFFFFFFFFFFFFFFFFFFFFC
0003FFFFFFFFFFFFFFFFFFFFFFFC
0003FFFFFFFFFFFFFFFFFFFFFFFC
0003FFFFFFFFFFFFFFFFFFFFFFFC
0003FFFFFFFFFFFFFFFFFFFFFFFC
0003FFFFFFFFFFFFFFFFFFFFFFFC
0003FFFFFFFFFFFFFFFFFFFFFFFC
0003FFFFFFFFFFFFFFFFFFFFFFFC
00000003FFFC0000007FFF800000
00000003FFFC0000007FFF800000
00000007FFFC000000FFFF800000
00000007FFF8000000FFFF000000
00000007FFF8000000FFFF000000
0000000FFFF8000000FFFF000000
0000000FFFF0000001FFFE000000
0000000FFFF0000001FFFE000000
0000000FFFF0000001FFFE000000
0000001FFFF0000003FFFE000000
0000001FFFE0000003FFFC000000
0000001FFFE0000003FFFC000000
0000003FFFE0000007FFFC000000
0000003FFFC0000007FFF8000000
0000003FFFC0000007FFF8000000
0000007FFFC000000FFFF8000000
0000007FFF8000000FFFF0000000
0000007FFF8000000FFFF0000000
0000007FFF8000000FFFF0000000
000000FFFF0000001FFFE0000000
000000FFFF0000001FFFE0000000
000000FFFF0000001FFFE0000000
000001FFFF0000003FFFE0000000
000001FFFE0000003FFFC0000000
000001FFFE0000003FFFC0000000
000003FFFE0000007FFFC0000000
000003FFFC0000007FFF80000000
000003FFFC0000007FFF80000000
000003FFFC0000007FFF80000000
000007FFF8000000FFFF00000000
000007FFF8000000FFFF00000000
FFFFFFFFFFFFFFFFFFFFFFFF0000
FFFFFFFFFFFFFFFFFFFFFFFF0000
FFFFFFFFFFFFFFFFFFFFFFFF0000
FFFFFFFFFFFFFFFFFFFFFFFF0000
FFFFFFFFFFFFFFFFFFFFFFFF0000
FFFFFFFFFFFFFFFFFFFFFFFF0000
FFFFFFFFFFFFFFFFFFFFFFFF0000
FFFFFFFFFFFFFFFFFFFFFFFF0000
FFFFFFFFFFFFFFFFFFFFFFFF0000
FFFFFFFFFFFFFFFFFFFFFFFF0000
FFFFFFFFFFFFFFFFFFFFFFFF0000
FFFFFFFFFFFFFFFFFFFFFFFF0000
FFFFFFFFFFFFFFFFFFFFFFFF0000
FFFFFFFFFFFFFFFFFFFFFFFF0000
FFFFFFFFFFFFFFFFFFFFFFFF0000
0000FFFF0000001FFFE000000000
0000FFFF0000001FFFE000000000
0001FFFF0000003FFFE000000000
0001FFFE0000003FFFC000000000
0001FFFE0000003FFFC000000000
0001FFFE0000007FFFC000000000
0003FFFC0000007FFF8000000000
0003FFFC0000007FFF8000000000
0003FFFC0000007FFF8000000000
0007FFFC000000FFFF8000000000
0007FFF8000000FFFF0000000000
0007FFF8000000FFFF0000000000
000FFFF8000001FFFF0000000000
000FFFF0000001FFFE0000000000
000FFFF0000001FFFE0000000000
000FFFF0000001FFFE0000000000
001FFFE0000003FFFC0000000000
001FFFE0000003FFFC0000000000
001FFFE0000003FFFC0000000000
003FFFE0000007FFFC0000000000
003FFFC0000007FFF80000000000
003FFFC0000007FFF80000000000
003FFFC000000FFFF80000000000
007FFF8000000FFFF00000000000
007FFF8000000FFFF00000000000
007FFF8000000FFFF00000000000
00FFFF8000001FFFF00000000000
00FFFF0000001FFFE00000000000
00FFFF0000001FFFE00000000000
00FFFF0000003FFFE00000000000
01FFFE0000003FFFC00000000000
01FFFE0000003FFFC00000000000
01FFFE0000003FFFC00000000000
03FFFC0000007FFF800000000000
03FFFC0000007FFF800000000000
03FFFC0000007FFF800000000000
ENDCHAR
STARTCHAR dollar
ENCODING 36
SWIDTH 744 0
DWIDTH 134 0
BBX 113 131 10 0
BITMAP
00000000000007FE00000000000000
00000000000007FE00000000000000
00000000000007FE00000000000000
00000000000007FE00000000000000
00000000000007FE00000000000000
00000000000007FE00000000000000
00000000000007FE00000000000000
00000000000007FE00000000000000
00000000000007FE00000000000000
00000000000007FE00000000000000
00000000000007FE00000000000000
00000000000007FE00000000000000
00000000000007FE00000000000000
0000007FFFFFFFFFFFFFFFFFFFF000
000007FFFFFFFFFFFFFFFFFFFFF000
00003FFFFFFFFFFFFFFFFFFFFFF000
0000FFFFFFFFFFFFFFFFFFFFFFF000
0003FFFFFFFFFFFFFFFFFFFFFFF000
000FFFFFFFFFFFFFFFFFFFFFFFF000
001FFFFFFFFFFFFFFFFFFFFFFFF000
007FFFFFFFFFFFFFFFFFFFFFFFF000
00FFFFFFFFFFFFFFFFFFFFFFFFF000
01FFFFFFFFFFFFFFFFFFFFFFFFF000
03FFFFFFFFFFFFFFFFFFFFFFFFF000
03FFFFFFFFFFFFFFFFFFFFFFFFF000
07FFFFFFFFFFFFFFFFFFFFFFFFF000
0FFFFFFFFFFFFFFFFFFFFFFFFFF000
0FFFFFFFFFFFFFFFFFFFFFFFFFF000
1FFFFFFFFFFFFFFFFFFFFFFFFFF000
1FFFFFFFFFFFFFFFFFFFFFFFFFF000
3FFFFFFFFFFFFFFFFFFFFFFFFFF000
3FFFFFF0000007FE00000000000000
3FFFFF80000007FE00000000000000
7FFFFF00000007FE00000000000000
7FFFFE00000007FE00000000000000
7FFFFC00000007FE00000000000000
7FFFF800000007FE00000000000000
7FFFF800000007FE00000000000000
FFFFF000000007FE00000000000000
FFFFF000000007FE00000000000000
FFFFF000000007FE00000000000000
FFFFE000000007FE00000000000000
FFFFE000000007FE00000000000000
FFFFE000000007FE00000000000000
FFFFE000000007FE00000000000000
FFFFE000000007FE00000000000000
7FFFF000000007FE00000000000000
7FFFF000000007FE00000000000000
7FFFF000000007FE00000000000000
7FFFF000000007FE00000000000000
7FFFF800000007FE00000000000000
3FFFF800000007FE00000000000000
3FFFFC00000007FE00000000000000
3FFFFE00000007FE00000000000000
1FFFFF00000007FE00000000000000
1FFFFFC0000007FE00000000000000
0FFFFFF0000007FE00000000000000
0FFFFFFFFFFFFFFFFFFFFF00000000
07FFFFFFFFFFFFFFFFFFFFFC000000
07FFFFFFFFFFFFFFFFFFFFFF800000
03FFFFFFFFFFFFFFFFFFFFFFE00000
01FFFFFFFFFFFFFFFFFFFFFFF80000
00FFFFFFFFFFFFFFFFFFFFFFFE0000
007FFFFFFFFFFFFFFFFFFFFFFF0000
003FFFFFFFFFFFFFFFFFFFFFFF8000
001FFFFFFFFFFFFFFFFFFFFFFFC000
0007FFFFFFFFFFFFFFFFFFFFFFE000
0003FFFFFFFFFFFFFFFFFFFFFFF000
0000FFFFFFFFFFFFFFFFFFFFFFF800
00003FFFFFFFFFFFFFFFFFFFFFF800
000007FFFFFFFFFFFFFFFFFFFFFC00
0000007FFFFFFFFFFFFFFFFFFFFC00
00000000000007FE000003FFFFFE00
00000000000007FE0000007FFFFE00
00000000000007FE0000001FFFFE00
00000000000007FE0000000FFFFF00
00000000000007FE00000007FFFF00
00000000000007FE00000003FFFF00
00000000000007FE00000003FFFF00
00000000000007FE00000001FFFF80
00000000000007FE00000001FFFF80
00000000000007FE00000001FFFF80
00000000000007FE00000000FFFF80
00000000000007FE00000000FFFF80
00000000000007FE00000000FFFF80
00000000000007FE00000000FFFF80
00000000000007FE00000000FFFF80
00000000000007FE00000000FFFF80
00000000000007FE00000000FFFF80
00000000000007FE00000001FFFF80
00000000000007FE00000001FFFF80
00000000000007FE00000001FFFF80
00000000000007FE00000003FFFF80
00000000000007FE00000003FFFF80
00000000000007FE00000007FFFF80
00000000000007FE0000000FFFFF00
00000000000007FE0000001FFFFF00
00000000000007FE0000007FFFFF00
00000000000007FE000003FFFFFF00
3FFFFFFFFFFFFFFFFFFFFFFFFFFE00
3FFFFFFFFFFFFFFFFFFFFFFFFFFE00
3FFFFFFFFFFFFFFFFFFFFFFFFFFE00
3FFFFFFFFFFFFFFFFFFFFFFFFFFC00
3FFFFFFFFFFFFFFFFFFFFFFFFFFC00
3FFFFFFFFFFFFFFFFFFFFFFFFFF800
3FFFFFFFFFFFFFFFFFFFFFFFFFF000
3FFFFFFFFFFFFFFFFFFFFFFFFFF000
3FFFFFFFFFFFFFFFFFFFFFFFFFE000
3FFFFFFFFFFFFFFFFFFFFFFFFFC000
3FFFFFFFFFFFFFFFFFFFFFFFFF8000
3FFFFFFFFFFFFFFFFFFFFFFFFF0000
3FFFFFFFFFFFFFFFFFFFFFFFFE0000
3FFFFFFFFFFFFFFFFFFFFFFFF80000
3FFFFFFFFFFFFFFFFFFFFFFFF00000
3FFFFFFFFFFFFFFFFFFFFFFFC00000
3FFFFFFFFFFFFFFFFFFFFFFF000000
3FFFFFFFFFFFFFFFFFFFFFF8000000
3FFFFFFFFFFFFFFFFFFFFF00000000
00000000000007FE00000000000000
00000000000007FE00000000000000
00000000000007FE00000000000000
00000000000007FE00000000000000
00000000000007FE00000000000000
00000000000007FE00000000000000
00000000000007FE00000000000000
00000000000007FE00000000000000
00000000000007FE00000000000000
00000000000007FE00000000000000
00000000000007FE00000000000000
00000000000007FE00000000000000
00000000000007FE00000000000000
ENDCHAR
STARTCHAR percent
ENCODING 37
SWIDTH 965 0
DWIDTH 174 0
BBX 158 151 8 -12
BITMAP
00000000000000000000000000000001FFFE0000
00000000000000000000000000000001FFFC0000
00000000000000000000000000000003FFF80000
00000000000000000000000000000007FFF00000
0000000000000000000000000000000FFFF00000
0000000000000000000000000000001FFFE00000
0000001FFF000000000000000000001FFFC00000
000001FFFFF00000000000000000003FFF800000
00000FFFFFFE0000000000000000007FFF000000
00003FFFFFFF800000000000000000FFFF000000
0000FFFFFFFFE00000000000000001FFFE000000
0003FFFFFFFFF80000000000000001FFFC000000
000FFFFFFFFFFC0000000000000003FFF8000000
001FFFFFFFFFFF0000000000000007FFF0000000
003FFFFFFFFFFF800000000000000FFFF0000000
007FFFFFFFFFFFC00000000000000FFFE0000000
00FFFFFFFFFFFFE00000000000001FFFC0000000
01FFFFFFFFFFFFF00000000000003FFF80000000
03FFFFF001FFFFF80000000000007FFF80000000
03FFFF00001FFFF8000000000000FFFF00000000
07FFFC000007FFFC000000000000FFFE00000000
0FFFF0000001FFFE000000000001FFFC00000000
0FFFC0000000FFFE000000000003FFF800000000
1FFF800000007FFF000000000007FFF800000000
1FFF000000003FFF000000000007FFF000000000
3FFE000000001FFF80000000000FFFE000000000
3FFE000000000FFF80000000001FFFC000000000
7FFC0000000007FFC0000000003FFFC000000000
7FF80000000007FFC0000000007FFF8000000000
7FF80000000003FFC0000000007FFF0000000000
7FF80000000003FFC000000000FFFE0000000000
FFF00000000001FFE000000001FFFC0000000000
FFF00000000001FFE000000003FFFC0000000000
FFF00000000001FFE000000007FFF80000000000
FFE00000000001FFE000000007FFF00000000000
FFE00000000000FFE00000000FFFE00000000000
FFE00000000000FFE00000001FFFE00000000000
FFE00000000000FFE00000003FFFC00000000000
FFE00000000000FFE00000003FFF800000000000
FFE00000000000FFE00000007FFF000000000000
FFE00000000000FFE0000000FFFE000000000000
FFE00000000000FFE0000001FFFE000000000000
FFE00000000000FFE0000003FFFC000000000000
FFE00000000000FFE0000003FFF8000000000000
FFE00000000001FFE0000007FFF0000000000000
FFF00000000001FFE000000FFFF0000000000000
FFF00000000001FFE000001FFFE0000000000000
7FF00000000001FFC000003FFFC0000000000000
7FF80000000003FFC000003FFF80000000000000
7FF80000000003FFC000007FFF00000000000000
3FFC0000000007FF800000FFFF00000000000000
3FFC0000000007FF800001FFFE00000000000000
3FFE000000000FFF800001FFFC00000000000000
1FFF000000001FFF000003FFF800000000000000
1FFF000000003FFF000007FFF000000000000000
0FFF800000007FFE00000FFFF000000000000000
0FFFE0000000FFFE00001FFFE000000000000000
07FFF0000001FFFC00001FFFC000000000000000
03FFFC000007FFF800003FFF8000000000000000
03FFFF00001FFFF800007FFF8000000000000000
01FFFFF001FFFFF00000FFFF0000000000000000
00FFFFFFFFFFFFE00000FFFE0000000000000000
007FFFFFFFFFFFC00001FFFC0000000000000000
003FFFFFFFFFFF800003FFF80000000000000000
001FFFFFFFFFFF000007FFF80000000000000000
000FFFFFFFFFFE00000FFFF00000000000000000
0007FFFFFFFFF800000FFFE00000000000000000
0001FFFFFFFFF000001FFFC00000000000000000
0000FFFFFFFFC000003FFFC00000000000000000
00003FFFFFFF8000007FFF800000000000000000
00000FFFFFFC000000FFFF000000000000000000
000001FFFFF0000000FFFE000000000000000000
0000001FFF00000001FFFC000000000000000000
000000000000000003FFFC000000000000000000
000000000000000007FFF8000000000000000000
000000000000000007FFF000000003FFC0000000
00000000000000000FFFE00000007FFFFE000000
00000000000000001FFFE0000001FFFFFFC00000
00000000000000003FFFC000000FFFFFFFF00000
00000000000000007FFF8000003FFFFFFFFC0000
00000000000000007FFF0000007FFFFFFFFF0000
0000000000000000FFFE000001FFFFFFFFFF8000
0000000000000001FFFE000003FFFFFFFFFFC000
0000000000000003FFFC000007FFFFFFFFFFF000
0000000000000003FFF800000FFFFFFFFFFFF800
0000000000000007FFF000001FFFFFFFFFFFFC00
000000000000000FFFE000003FFFFFFFFFFFFC00
000000000000001FFFE000007FFFFC003FFFFE00
000000000000003FFFC00000FFFFE00003FFFF00
000000000000003FFF800000FFFF000000FFFF80
000000000000007FFF000001FFFE0000003FFF80
00000000000000FFFF000003FFF80000001FFFC0
00000000000001FFFE000003FFF00000000FFFC0
00000000000003FFFC000007FFE000000007FFE0
00000000000003FFF8000007FFC000000003FFE0
00000000000007FFF0000007FF8000000001FFF0
0000000000000FFFF000000FFF8000000001FFF0
0000000000001FFFE000000FFF0000000000FFF8
0000000000001FFFC000001FFF00000000007FF8
0000000000003FFF8000001FFE00000000007FF8
0000000000007FFF8000001FFE00000000007FF8
000000000000FFFF0000001FFE00000000003FFC
000000000001FFFE0000001FFC00000000003FFC
000000000001FFFC0000001FFC00000000003FFC
000000000003FFF80000003FFC00000000003FFC
000000000007FFF80000003FFC00000000003FFC
00000000000FFFF00000003FFC00000000001FFC
00000000000FFFE00000003FFC00000000001FFC
00000000001FFFC00000003FFC00000000001FFC
00000000003FFFC00000003FFC00000000001FFC
00000000007FFF800000003FFC00000000001FFC
0000000000FFFF000000003FFC00000000003FFC
0000000000FFFE000000001FFC00000000003FFC
0000000001FFFC000000001FFC00000000003FFC
0000000003FFFC000000001FFC00000000003FFC
0000000007FFF8000000001FFE00000000003FF8
000000000FFFF0000000001FFE00000000007FF8
000000000FFFE0000000000FFE00000000007FF8
000000001FFFE0000000000FFF0000000000FFF0
000000003FFFC0000000000FFF0000000000FFF0
000000007FFF800000000007FF8000000001FFF0
000000007FFF000000000007FFC000000001FFE0
00000000FFFE000000000007FFC000000003FFE0
00000001FFFE000000000003FFE000000007FFC0
00000003FFFC000000000003FFF00000000FFFC0
00000007FFF8000000000001FFF80000001FFF80
00000007FFF0000000000000FFFE0000003FFF80
0000000FFFE0000000000000FFFF000000FFFF00
0000001FFFE00000000000007FFFE00003FFFE00
0000003FFFC00000000000003FFFFC003FFFFE00
0000007FFF800000000000001FFFFFFFFFFFFC00
0000007FFF000000000000001FFFFFFFFFFFF800
000000FFFF000000000000000FFFFFFFFFFFF000
000001FFFE0000000000000003FFFFFFFFFFE000
000003FFFC0000000000000001FFFFFFFFFFC000
000003FFF80000000000000000FFFFFFFFFF0000
000007FFF000000000000000007FFFFFFFFE0000
00000FFFF000000000000000001FFFFFFFF80000
00001FFFE0000000000000000007FFFFFFE00000
00003FFFC0000000000000000001FFFFFF800000
00003FFF800000000000000000003FFFFC000000
00007FFF8000000000000000000003FFC0000000
0000FFFF00000000000000000000000000000000
0001FFFE00000000000000000000000000000000
0001FFFC00000000000000000000000000000000
0003FFF800000000000000000000000000000000
0007FFF800000000000000000000000000000000
000FFFF000000000000000000000000000000000
001FFFE000000000000000000000000000000000
001FFFC000000000000000000000000000000000
007FFFC000000000000000000000000000000000
ENDCHAR
STARTCHAR ampersand
ENCODING 38
SWIDTH 759 0
DWIDTH 137 0
BBX 122 131 9 0
BITMAP
000000000FFFFFFFF800000000000000
00000003FFFFFFFFF800000000000000
0000003FFFFFFFFFF800000000000000
000001FFFFFFFFFFF800000000000000
000007FFFFFFFFFFF800000000000000
00001FFFFFFFFFFFF800000000000000
00007FFFFFFFFFFFF800000000000000
0001FFFFFFFFFFFFF800000000000000
0003FFFFFFFFFFFFF800000000000000
0007FFFFFFFFFFFFF800000000000000
000FFFFFFFFFFFFFF800000000000000
001FFFFFFFFFFFFFF800000000000000
003FFFFFFFFFFFFFF800000000000000
007FFFFFFFFFFFFFF800000000000000
00FFFFFFFFFFFFFFF800000000000000
01FFFFFFFFFFFFFFF800000000000000
01FFFFFFFFFFFFFFF800000000000000
03FFFFFFFFFFFFFFF800000000000000
03FFFFFFFFFFFFFFF800000000000000
07FFFFFFFFFFFFFFF800000000000000
07FFFFFFFFFFFFFFF800000000000000
0FFFFFFFFFFFFFFFF800000000000000
0FFFFFFFFFFFFFFFF800000000000000
0FFFFFFFF80000000000000000000000
1FFFFFFFC00000000000000000000000
1FFFFFFF000000000000000000000000
1FFFFFFE000000000000000000000000
1FFFFFF8000000000000000000000000
1FFFFFF8000000000000000000000000
1FFFFFF0000000000000000000000000
3FFFFFE0000000000000000000000000
3FFFFFE0000000000000000000000000
3FFFFFC0000000000000000000000000
3FFFFFC0000000000000000000000000
3FFFFFC0000000000000000000000000
3FFFFFC0000000000000000000000000
3FFFFFC0000000000000000000000000
3FFFFF80000000000000000000000000
1FFFFF80000000000000000000000000
1FFFFF80000000000000000000000000
1FFFFF80000000000000000000000000
1FFFFF80000000000000000000000000
1FFFFFC0000000000000000000000000
1FFFFFC0000000000000000000000000
1FFFFFC0000000000000000000000000
0FFFFFC0000000000000000000000000
0FFFFFE0000000000000000000000000
0FFFFFE0000000000000000000000000
07FFFFF0000000000000000000000000
07FFFFF8000000000000000000000000
03FFFFFC000000000000000000000000
03FFFFFE000000000000000000000000
01FFFFFF000000000000000000000000
00FFFFFFE00000000000000000000000
007FFFFFFC0000000000000000000000
003FFFFFFFFFFFFFFFFFFFFFFFFFC000
001FFFFFFFFFFFFFFFFFFFFFFFFFC000
000FFFFFFFFFFFFFFFFFFFFFFFFFC000
0007FFFFFFFFFFFFFFFFFFFFFFFFC000
0001FFFFFFFFFFFFFFFFFFFFFFFFC000
0000FFFFFFFFFFFFFFFFFFFFFFFFC000
00001FFFFFFFFFFFFFFFFFFFFFFFC000
00001FFFFFFFFFFFFFFFFFFFFFFFC000
00007FFFFFFFFFFFFFFFFFFFFFFFC000
0001FFFFFFFFFFFFFFFFFFFFFFFFC000
0007FFFFFFFFFFFFFFFFFFFFFFFFC000
000FFFFFFFFFFFFFFFFFFFFFFFFFC000
003FFFFFFFFFFFFFFFFFFFFFFFFFC000
007FFFFFFFFFFFFFFFFFFFFFFFFFC000
00FFFFFFFFFFFFFFFFFFFFFFFFFFC000
01FFFFFFFFFFFFFFFFFFFFFFFFFFC000
03FFFFFFFFFFFFFFFFFFFFFFFFFFC000
03FFFFFFFFFFFFFFFFFFFFFFFFFFC000
07FFFFFFFFFFFFFFFFFFFFFFFFFFC000
0FFFFFFFFE000000000FFFFFE0000000
0FFFFFFFC0000000000FFFFFE0000000
1FFFFFFE00000000000FFFFFE0000000
1FFFFFF800000000000FFFFFE0000000
3FFFFFF000000000000FFFFFE0000000
3FFFFFC000000000000FFFFFE0000000
7FFFFFC000000000000FFFFFE0000000
7FFFFF8000000000000FFFFFE0000000
7FFFFF0000000000000FFFFFE0000000
7FFFFF0000000000000FFFFFE0000000
FFFFFF0000000000000FFFFFE0000000
FFFFFE0000000000000FFFFFE0000000
FFFFFE0000000000000FFFFFE0000000
FFFFFE0000000000000FFFFFE0000000
FFFFFE0000000000000FFFFFE0000000
FFFFFE0000000000000FFFFFE0000000
FFFFFE0000000000000FFFFFE0000000
FFFFFE0000000000000FFFFFE0000000
FFFFFE0000000000000FFFFFE0000000
FFFFFE0000000000000FFFFFE0000000
FFFFFE0000000000000FFFFFE0000000
FFFFFE0000000000000FFFFFE0000000
FFFFFF0000000000000FFFFFE0000000
FFFFFF0000000000000FFFFFE0000000
FFFFFF0000000000000FFFFFE0000000
FFFFFF8000000000000FFFFFE0000000
7FFFFFC000000000000FFFFFE0000000
7FFFFFC000000000000FFFFFE0000000
7FFFFFE000000000000FFFFFE0000000
7FFFFFF800000000000FFFFFE0000000
3FFFFFFC00000000000FFFFFE0000000
3FFFFFFF00000000000FFFFFE0000000
3FFFFFFFC0000000000FFFFFE0000000
1FFFFFFFFC000000000FFFFFE0000000
1FFFFFFFFFFFFFFFFFFFFFFFFFFFFFC0
0FFFFFFFFFFFFFFFFFFFFFFFFFFFFFC0
0FFFFFFFFFFFFFFFFFFFFFFFFFFFFFC0
07FFFFFFFFFFFFFFFFFFFFFFFFFFFFC0
07FFFFFFFFFFFFFFFFFFFFFFFFFFFFC0
03FFFFFFFFFFFFFFFFFFFFFFFFFFFFC0
03FFFFFFFFFFFFFFFFFFFFFFFFFFFFC0
01FFFFFFFFFFFFFFFFFFFFFFFFFFFFC0
00FFFFFFFFFFFFFFFFFFFFFFFFFFFFC0
007FFFFFFFFFFFFFFFFFFFFFFFFFFFC0
007FFFFFFFFFFFFFFFFFFFFFFFFFFFC0
003FFFFFFFFFFFFFFFFFFFFFFFFFFFC0
001FFFFFFFFFFFFFFFFFFFFFFFFFFFC0
0007FFFFFFFFFFFFFFFFFFFFFFFFFFC0
0003FFFFFFFFFFFFFFFFFFFFFFFFFFC0
0001FFFFFFFFFFFFFFFFFFFFFFFFFFC0
00007FFFFFFFFFFFFFFFFFFFFFFFFFC0
00003FFFFFFFFFFFFFFFFFFFFFFFFFC0
00000FFFFFFFFFFFFFFFFFFFFFFFFFC0
000003FFFFFFFFFFFFFFFFFFFFFFFFC0
0000007FFFFFFFFFFFFFFFFFFFFFFFC0
00000007FFFFFFFFFFFFFFFFFFFFFFC0
000000003FFFFFFFFFFFFFFFFFFFFFC0
ENDCHAR
STARTCHAR quotesingle
ENCODING 39
SWIDTH 255 0
DWIDTH 46 0
BBX 24 47 11 84
BITMAP
FFFFFF
FFFFFE
7FFFFE
7FFFFE
7FFFFE
7FFFFE
7FFFFE
7FFFFE
7FFFFE
7FFFFE
7FFFFE
7FFFFE
7FFFFC
3FFFFC
3FFFFC
3FFFFC
3FFFFC
3FFFFC
3FFFFC
3FFFFC
3FFFFC
3FFFFC
3FFFFC
3FFFF8
1FFFF8
1FFFF8
1FFFF8
1FFFF8
1FFFF8
1FFFF8
1FFFF8
1FFFF8
1FFFF8
1FFFF0
0FFFF0
0FFFF0
0FFFF0
0FFFF0
0FFFF0
0FFFF0
0FFFF0
0FFFF0
0FFFF0
0FFFF0
0FFFE0
07FFE0
07FFE0
ENDCHAR
STARTCHAR parenleft
ENCODING 40
SWIDTH 356 0
DWIDTH 64 0
BBX 36 165 17 -16
BITMAP
00001FFFF0
00003FFFE0
00003FFFC0
00007FFFC0
00007FFFC0
00007FFF80
0000FFFF80
0000FFFF00
0001FFFF00
0001FFFF00
0001FFFE00
0003FFFE00
0003FFFC00
0003FFFC00
0007FFFC00
0007FFF800
000FFFF800
000FFFF000
000FFFF000
001FFFF000
001FFFE000
001FFFE000
003FFFC000
003FFFC000
003FFFC000
007FFF8000
007FFF8000
007FFF8000
00FFFF0000
00FFFF0000
00FFFF0000
01FFFE0000
01FFFE0000
01FFFE0000
01FFFC0000
03FFFC0000
03FFFC0000
03FFFC0000
03FFF80000
07FFF80000
07FFF80000
07FFF00000
07FFF00000
0FFFF00000
0FFFF00000
0FFFE00000
0FFFE00000
1FFFE00000
1FFFE00000
1FFFC00000
1FFFC00000
1FFFC00000
3FFFC00000
3FFFC00000
3FFF800000
3FFF800000
3FFF800000
3FFF800000
3FFF800000
7FFF000000
7FFF000000
7FFF000000
7FFF000000
7FFF000000
7FFF000000
7FFF000000
7FFE000000
7FFE000000
FFFE000000
FFFE000000
FFFE000000
FFFE000000
FFFE000000
FFFE000000
FFFE000000
FFFE000000
FFFE000000
FFFE000000
FFFE000000
FFFE000000
FFFE000000
FFFE000000
FFFE000000
FFFE000000
FFFE000000
FFFE000000
FFFE000000
FFFE000000
FFFE000000
FFFE000000
FFFE000000
FFFE000000
FFFE000000
FFFE000000
FFFE000000
FFFE000000
FFFE000000
7FFE000000
7FFE000000
7FFE000000
7FFF000000
7FFF000000
7FFF000000
7FFF000000
7FFF000000
7FFF000000
3FFF000000
3FFF800000
3FFF800000
3FFF800000
3FFF800000
3FFF800000
1FFFC00000
1FFFC00000
1FFFC00000
1FFFC00000
1FFFC00000
1FFFE00000
0FFFE00000
0FFFE00000
0FFFE00000
0FFFF00000
07FFF00000
07FFF00000
07FFF00000
07FFF80000
03FFF80000
03FFF80000
03FFF80000
03FFFC0000
01FFFC0000
01FFFC0000
01FFFE0000
01FFFE0000
00FFFE0000
00FFFF0000
00FFFF0000
007FFF0000
007FFF8000
007FFF8000
003FFF8000
003FFFC000
003FFFC000
001FFFC000
001FFFE000
001FFFE000
000FFFF000
000FFFF000
0007FFF000
0007FFF800
0007FFF800
0003FFFC00
0003FFFC00
0001FFFE00
0001FFFE00
0001FFFE00
0000FFFF00
0000FFFF00
00007FFF80
00007FFF80
00007FFFC0
00003FFFC0
00003FFFE0
00001FFFE0
00001FFFF0
ENDCHAR
STARTCHAR parenright
ENCODING 41
SWIDTH 355 0
DWIDTH 64 0
BBX 36 165 11 -16
BITMAP
7FFF800000
7FFFC00000
3FFFC00000
3FFFC00000
1FFFE00000
1FFFE00000
1FFFF00000
0FFFF00000
0FFFF00000
07FFF80000
07FFF80000
07FFFC0000
03FFFC0000
03FFFC0000
01FFFE0000
01FFFE0000
01FFFE0000
00FFFF0000
00FFFF0000
007FFF8000
007FFF8000
007FFF8000
003FFFC000
003FFFC000
003FFFC000
001FFFE000
001FFFE000
001FFFE000
000FFFF000
000FFFF000
000FFFF000
0007FFF000
0007FFF800
0007FFF800
0003FFF800
0003FFFC00
0003FFFC00
0001FFFC00
0001FFFC00
0001FFFE00
0001FFFE00
0000FFFE00
0000FFFE00
0000FFFF00
0000FFFF00
00007FFF00
00007FFF00
00007FFF80
00007FFF80
00003FFF80
00003FFF80
00003FFF80
00003FFFC0
00003FFFC0
00001FFFC0
00001FFFC0
00001FFFC0
00001FFFC0
00001FFFC0
00000FFFE0
00000FFFE0
00000FFFE0
00000FFFE0
00000FFFE0
00000FFFE0
00000FFFE0
00000FFFE0
000007FFF0
000007FFF0
000007FFF0
000007FFF0
000007FFF0
000007FFF0
000007FFF0
000007FFF0
000007FFF0
000007FFF0
000007FFF0
000007FFF0
000007FFF0
000007FFF0
000007FFF0
000007FFF0
000007FFF0
000007FFF0
000007FFF0
000007FFF0
000007FFF0
000007FFF0
000007FFF0
000007FFF0
000007FFF0
000007FFF0
000007FFF0
000007FFF0
000007FFF0
000007FFF0
000007FFE0
00000FFFE0
00000FFFE0
00000FFFE0
00000FFFE0
00000FFFE0
00000FFFE0
00000FFFE0
00000FFFE0
00001FFFC0
00001FFFC0
00001FFFC0
00001FFFC0
00001FFFC0
00001FFFC0
00003FFF80
00003FFF80
00003FFF80
00003FFF80
00007FFF80
00007FFF80
00007FFF00
00007FFF00
00007FFF00
0000FFFF00
0000FFFE00
0000FFFE00
0000FFFE00
0001FFFE00
0001FFFE00
0001FFFC00
0003FFFC00
0003FFFC00
0003FFF800
0003FFF800
0007FFF800
0007FFF800
0007FFF000
000FFFF000
000FFFF000
000FFFE000
001FFFE000
001FFFE000
001FFFC000
003FFFC000
003FFFC000
007FFF8000
007FFF8000
007FFF8000
00FFFF0000
00FFFF0000
01FFFE0000
01FFFE0000
01FFFE0000
03FFFC0000
03FFFC0000
07FFFC0000
07FFF80000
07FFF80000
0FFFF00000
0FFFF00000
1FFFE00000
1FFFE00000
3FFFE00000
3FFFC00000
7FFFC00000
7FFF800000
FFFF800000
ENDCHAR
STARTCHAR asterisk
ENCODING 42
SWIDTH 469 0
DWIDTH 84 0
BBX 62 59 11 72
BITMAP
0000003FF8000000
0000003FF8000000
0000003FF8000000
0000003FF8000000
0000003FF8000000
0000003FF8000000
0000003FF8000000
0000003FF8000000
0000003FF8000000
0000003FF8000000
0000003FF8000000
0000003FF8000000
0000003FF8000000
0000003FF8000000
0000003FF8000000
0000003FF8000000
1800003FF8000020
1F00003FF80001E0
1FE0003FF8001FF0
1FFC003FF800FFF0
3FFF803FF807FFF0
3FFFF83FF83FFFF8
3FFFFF3FFBFFFFF8
7FFFFFFFFFFFFFF8
7FFFFFFFFFFFFFFC
7FFFFFFFFFFFFFFC
FFFFFFFFFFFFFFF8
0FFFFFFFFFFFFFC0
01FFFFFFFFFFFE00
001FFFFFFFFFF000
0003FFFFFFFF0000
00007FFFFFF80000
00000FFFFFC00000
000003FFFF000000
000003FFFF800000
000007FFFF800000
00000FFFFFC00000
00001FFFFFE00000
00001FFFFFF00000
00003FFFFFF00000
00007FFCFFF80000
00007FFC7FFC0000
0000FFF87FFC0000
0001FFF03FFE0000
0003FFF01FFF0000
0003FFE01FFF0000
0007FFC00FFF8000
000FFF8007FFC000
000FFF8003FFE000
001FFF0003FFE000
003FFE0001FFF000
003FFE0000FFF800
007FFC0000FFFC00
003FF800007FF800
001FF800003FE000
0007F000001FC000
0003E000001F8000
0001C000000E0000
0000C00000040000
ENDCHAR
STARTCHAR plus
ENCODING 43
SWIDTH 690 0
DWIDTH 124 0
BBX 102 102 11 16
BITMAP
00000000000FFFE00000000000
00000000000FFFE00000000000
00000000000FFFE00000000000
00000000000FFFE00000000000
00000000000FFFE00000000000
00000000000FFFE00000000000
00000000000FFFE00000000000
00000000000FFFE00000000000
00000000000FFFE00000000000
00000000000FFFE00000000000
00000000000FFFE00000000000
00000000000FFFE00000000000
00000000000FFFE00000000000
00000000000FFFE00000000000
00000000000FFFE00000000000
00000000000FFFE00000000000
00000000000FFFE00000000000
00000000000FFFE00000000000
00000000000FFFE00000000000
00000000000FFFE00000000000
00000000000FFFE00000000000
00000000000FFFE00000000000
00000000000FFFE00000000000
00000000000FFFE00000000000
00000000000FFFE00000000000
00000000000FFFE00000000000
00000000000FFFE00000000000
00000000000FFFE00000000000
00000000000FFFE00000000000
00000000000FFFE00000000000
00000000000FFFE00000000000
00000000000FFFE00000000000
00000000000FFFE00000000000
00000000000FFFE00000000000
00000000000FFFE00000000000
00000000000FFFE00000000000
00000000000FFFE00000000000
00000000000FFFE00000000000
00000000000FFFE00000000000
00000000000FFFE00000000000
00000000000FFFE00000000000
00000000000FFFE00000000000
00000000000FFFE00000000000
FFFFFFFFFFFFFFFFFFFFFFFFFC
FFFFFFFFFFFFFFFFFFFFFFFFFC
FFFFFFFFFFFFFFFFFFFFFFFFFC
FFFFFFFFFFFFFFFFFFFFFFFFFC
FFFFFFFFFFFFFFFFFFFFFFFFFC
FFFFFFFFFFFFFFFFFFFFFFFFFC
FFFFFFFFFFFFFFFFFFFFFFFFFC
FFFFFFFFFFFFFFFFFFFFFFFFFC
FFFFFFFFFFFFFFFFFFFFFFFFFC
FFFFFFFFFFFFFFFFFFFFFFFFFC
FFFFFFFFFFFFFFFFFFFFFFFFFC
FFFFFFFFFFFFFFFFFFFFFFFFFC
FFFFFFFFFFFFFFFFFFFFFFFFFC
FFFFFFFFFFFFFFFFFFFFFFFFFC
FFFFFFFFFFFFFFFFFFFFFFFFFC
00000000000FFFE00000000000
00000000000FFFE00000000000
00000000000FFFE00000000000
00000000000FFFE00000000000
00000000000FFFE00000000000
00000000000FFFE00000000000
00000000000FFFE00000000000
00000000000FFFE00000000000
00000000000FFFE00000000000
00000000000FFFE00000000000
00000000000FFFE00000000000
00000000000FFFE00000000000
00000000000FFFE00000000000
00000000000FFFE00000000000
00000000000FFFE00000000000
00000000000FFFE00000000000
00000000000FFFE00000000000
00000000000FFFE00000000000
00000000000FFFE00000000000
00000000000FFFE00000000000
00000000000FFFE00000000000
00000000000FFFE00000000000
00000000000FFFE00000000000
00000000000FFFE00000000000
00000000000FFFE00000000000
00000000000FFFE00000000000
00000000000FFFE00000000000
00000000000FFFE00000000000
00000000000FFFE00000000000
00000000000FFFE00000000000
00000000000FFFE00000000000
00000000000FFFE00000000000
00000000000FFFE00000000000
00000000000FFFE00000000000
00000000000FFFE00000000000
00000000000FFFE00000000000
00000000000FFFE00000000000
00000000000FFFE00000000000
00000000000FFFE00000000000
00000000000FFFE00000000000
00000000000FFFE00000000000
00000000000FFFE00000000000
00000000000FFFE00000000000
00000000000FFFE00000000000
ENDCHAR
STARTCHAR comma
ENCODING 44
SWIDTH 259 0
DWIDTH 47 0
BBX 23 47 12 -21
BITMAP
FFFFFE
FFFFFE
FFFFFE
FFFFFE
FFFFFC
FFFFFC
FFFFFC
FFFFFC
FFFFFC
FFFFF8
FFFFF8
FFFFF8
FFFFF8
FFFFF8
FFFFF8
FFFFF0
FFFFF0
FFFFF0
FFFFF0
FFFFF0
FFFFE0
FFFFE0
FFFFE0
FFFFE0
FFFFE0
FFFFC0
FFFFC0
FFFFC0
FFFFC0
FFFFC0
FFFF80
FFFF80
FFFF80
FFFF80
FFFF80
FFFF80
FFFF00
FFFF00
FFFF00
FFFF00
FFFF00
FFFE00
FFFE00
FFFE00
FFFE00
FFFE00
FFFC00
ENDCHAR
STARTCHAR hyphen
ENCODING 45
SWIDTH 296 0
DWIDTH 53 0
BBX 43 15 5 59
BITMAP
FFFFFFFFFFE0
FFFFFFFFFFE0
FFFFFFFFFFE0
FFFFFFFFFFE0
FFFFFFFFFFE0
FFFFFFFFFFE0
FFFFFFFFFFE0
FFFFFFFFFFE0
FFFFFFFFFFE0
FFFFFFFFFFE0
FFFFFFFFFFE0
FFFFFFFFFFE0
FFFFFFFFFFE0
FFFFFFFFFFE0
FFFFFFFFFFE0
ENDCHAR
STARTCHAR period
ENCODING 46
SWIDTH 262 0
DWIDTH 47 0
BBX 25 25 11 0
BITMAP
007F0000
03FFC000
07FFF000
0FFFF800
1FFFFC00
3FFFFE00
3FFFFE00
7FFFFF00
7FFFFF00
7FFFFF00
FFFFFF80
FFFFFF80
FFFFFF80
FFFFFF80
FFFFFF80
7FFFFF00
7FFFFF00
7FFFFF00
3FFFFE00
3FFFFE00
1FFFFC00
0FFFF800
07FFF000
03FFC000
007F0000
ENDCHAR
STARTCHAR slash
ENCODING 47
SWIDTH 444 0
DWIDTH 80 0
BBX 76 131 2 0
BITMAP
0000000000000007FFF0
000000000000000FFFE0
000000000000000FFFE0
000000000000000FFFE0
000000000000001FFFC0
000000000000001FFFC0
000000000000003FFF80
000000000000003FFF80
000000000000007FFF00
000000000000007FFF00
00000000000000FFFE00
00000000000000FFFE00
00000000000001FFFC00
00000000000001FFFC00
00000000000003FFF800
00000000000003FFF800
00000000000007FFF000
00000000000007FFF000
0000000000000FFFF000
0000000000000FFFE000
0000000000000FFFE000
0000000000001FFFC000
0000000000001FFFC000
0000000000003FFF8000
0000000000003FFF8000
0000000000007FFF0000
0000000000007FFF0000
000000000000FFFE0000
000000000000FFFE0000
000000000001FFFC0000
000000000001FFFC0000
000000000003FFFC0000
000000000003FFF80000
000000000007FFF80000
000000000007FFF00000
00000000000FFFF00000
00000000000FFFE00000
00000000000FFFE00000
00000000001FFFC00000
00000000001FFFC00000
00000000003FFF800000
00000000003FFF800000
00000000007FFF000000
00000000007FFF000000
0000000000FFFF000000
0000000000FFFE000000
0000000001FFFE000000
0000000001FFFC000000
0000000003FFFC000000
0000000003FFF8000000
0000000007FFF8000000
0000000007FFF0000000
000000000FFFF0000000
000000000FFFE0000000
000000000FFFE0000000
000000001FFFC0000000
000000001FFFC0000000
000000003FFFC0000000
000000003FFF80000000
000000007FFF80000000
000000007FFF00000000
00000000FFFF00000000
00000000FFFE00000000
00000001FFFE00000000
00000001FFFC00000000
00000003FFFC00000000
00000003FFF800000000
00000007FFF800000000
00000007FFF000000000
00000007FFF000000000
0000000FFFE000000000
0000000FFFE000000000
0000001FFFE000000000
0000001FFFC000000000
0000003FFFC000000000
0000003FFF8000000000
0000007FFF8000000000
0000007FFF0000000000
000000FFFF0000000000
000000FFFE0000000000
000001FFFE0000000000
000001FFFC0000000000
000003FFFC0000000000
000003FFF80000000000
000007FFF80000000000
000007FFF80000000000
000007FFF00000000000
00000FFFF00000000000
00000FFFE00000000000
00001FFFE00000000000
00001FFFC00000000000
00003FFFC00000000000
00003FFF800000000000
00007FFF800000000000
00007FFF000000000000
0000FFFF000000000000
0000FFFE000000000000
0001FFFE000000000000
0001FFFE000000000000
0003FFFC000000000000
0003FFFC000000000000
0007FFF8000000000000
0007FFF8000000000000
0007FFF0000000000000
000FFFF0000000000000
000FFFE0000000000000
001FFFE0000000000000
001FFFC0000000000000
003FFFC0000000000000
003FFF80000000000000
007FFF80000000000000
007FFF00000000000000
00FFFF00000000000000
00FFFF00000000000000
01FFFE00000000000000
01FFFE00000000000000
03FFFC00000000000000
03FFFC00000000000000
07FFF800000000000000
07FFF800000000000000
07FFF000000000000000
0FFFF000000000000000
0FFFE000000000000000
1FFFE000000000000000
1FFFC000000000000000
3FFFC000000000000000
3FFFC000000000000000
7FFF8000000000000000
7FFF8000000000000000
FFFF0000000000000000
FFFF0000000000000000
ENDCHAR
STARTCHAR zero
ENCODING 48
SWIDTH 838 0
DWIDTH 151 0
BBX 135 131 8 0
BITMAP
000000000000003FFFF000000000000000
0000000000000FFFFFFFE0000000000000
000000000000FFFFFFFFFE000000000000
00000000000FFFFFFFFFFFE00000000000
00000000007FFFFFFFFFFFF80000000000
0000000001FFFFFFFFFFFFFF0000000000
000000000FFFFFFFFFFFFFFFC000000000
000000003FFFFFFFFFFFFFFFF000000000
00000000FFFFFFFFFFFFFFFFFC00000000
00000001FFFFFFFFFFFFFFFFFF00000000
00000007FFFFFFFFFFFFFFFFFFC0000000
0000001FFFFFFFFFFFFFFFFFFFE0000000
0000003FFFFFFFFFFFFFFFFFFFF8000000
0000007FFFFFFFFFFFFFFFFFFFFC000000
000001FFFFFFFFFFFFFFFFFFFFFF000000
000003FFFFFFFFFFFFFFFFFFFFFF800000
000007FFFFFFFFFFFFFFFFFFFFFFC00000
00000FFFFFFFFFFFFFFFFFFFFFFFE00000
00001FFFFFFFFFFFFFFFFFFFFFFFF00000
00003FFFFFFFFFFFFFFFFFFFFFFFF80000
00007FFFFFFFFFFFFFFFFFFFFFFFFC0000
0000FFFFFFFFFFFFFFFFFFFFFFFFFE0000
0001FFFFFFFFFFFFFFFFFFFFFFFFFF0000
0003FFFFFFFFFFC0000FFFFFFFFFFF8000
0007FFFFFFFFF80000007FFFFFFFFFC000
000FFFFFFFFFC000000007FFFFFFFFC000
000FFFFFFFFE0000000001FFFFFFFFE000
001FFFFFFFF800000000003FFFFFFFF000
003FFFFFFFE000000000000FFFFFFFF800
003FFFFFFF80000000000007FFFFFFF800
007FFFFFFF00000000000001FFFFFFFC00
00FFFFFFFC00000000000000FFFFFFFE00
00FFFFFFF8000000000000003FFFFFFE00
01FFFFFFF0000000000000001FFFFFFF00
01FFFFFFE0000000000000000FFFFFFF00
03FFFFFF800000000000000007FFFFFF80
03FFFFFF800000000000000003FFFFFF80
07FFFFFF000000000000000001FFFFFFC0
07FFFFFE000000000000000000FFFFFFC0
0FFFFFFC0000000000000000007FFFFFE0
0FFFFFF80000000000000000007FFFFFE0
1FFFFFF80000000000000000003FFFFFE0
1FFFFFF00000000000000000003FFFFFF0
1FFFFFF00000000000000000001FFFFFF0
3FFFFFE00000000000000000000FFFFFF0
3FFFFFE00000000000000000000FFFFFF8
3FFFFFC000000000000000000007FFFFF8
3FFFFFC000000000000000000007FFFFF8
7FFFFF8000000000000000000007FFFFF8
7FFFFF8000000000000000000003FFFFFC
7FFFFF8000000000000000000003FFFFFC
7FFFFF0000000000000000000003FFFFFC
FFFFFF0000000000000000000001FFFFFC
FFFFFF0000000000000000000001FFFFFC
FFFFFF0000000000000000000001FFFFFE
FFFFFE0000000000000000000001FFFFFE
FFFFFE0000000000000000000001FFFFFE
FFFFFE0000000000000000000000FFFFFE
FFFFFE0000000000000000000000FFFFFE
FFFFFE0000000000000000000000FFFFFE
FFFFFE0000000000000000000000FFFFFE
FFFFFE0000000000000000000000FFFFFE
FFFFFC0000000000000000000000FFFFFE
FFFFFC0000000000000000000000FFFFFE
FFFFFC0000000000000000000000FFFFFE
FFFFFC0000000000000000000000FFFFFE
FFFFFC0000000000000000000000FFFFFE
FFFFFC0000000000000000000000FFFFFE
FFFFFC0000000000000000000000FFFFFE
FFFFFE0000000000000000000000FFFFFE
FFFFFE0000000000000000000000FFFFFE
FFFFFE0000000000000000000000FFFFFE
FFFFFE0000000000000000000000FFFFFE
FFFFFE0000000000000000000000FFFFFE
FFFFFE0000000000000000000001FFFFFE
FFFFFE0000000000000000000001FFFFFC
7FFFFF0000000000000000000001FFFFFC
7FFFFF0000000000000000000001FFFFFC
7FFFFF0000000000000000000003FFFFFC
7FFFFF0000000000000000000003FFFFFC
7FFFFF8000000000000000000003FFFFF8
3FFFFF8000000000000000000007FFFFF8
3FFFFF8000000000000000000007FFFFF8
3FFFFFC000000000000000000007FFFFF8
1FFFFFC00000000000000000000FFFFFF0
1FFFFFE00000000000000000000FFFFFF0
1FFFFFE00000000000000000001FFFFFF0
0FFFFFF00000000000000000001FFFFFE0
0FFFFFF00000000000000000003FFFFFE0
0FFFFFF80000000000000000003FFFFFC0
07FFFFFC0000000000000000007FFFFFC0
07FFFFFC000000000000000000FFFFFFC0
03FFFFFE000000000000000001FFFFFF80
03FFFFFF000000000000000001FFFFFF80
01FFFFFF800000000000000003FFFFFF00
01FFFFFFC00000000000000007FFFFFF00
00FFFFFFE0000000000000000FFFFFFE00
00FFFFFFF0000000000000001FFFFFFE00
007FFFFFF8000000000000007FFFFFFC00
007FFFFFFC00000000000000FFFFFFF800
003FFFFFFF00000000000001FFFFFFF800
001FFFFFFF80000000000007FFFFFFF000
001FFFFFFFE000000000001FFFFFFFE000
000FFFFFFFF800000000007FFFFFFFE000
0007FFFFFFFE0000000001FFFFFFFFC000
0003FFFFFFFFC000000007FFFFFFFF8000
0003FFFFFFFFF80000007FFFFFFFFF0000
0001FFFFFFFFFFC0000FFFFFFFFFFE0000
0000FFFFFFFFFFFFFFFFFFFFFFFFFE0000
00007FFFFFFFFFFFFFFFFFFFFFFFFC0000
00003FFFFFFFFFFFFFFFFFFFFFFFF80000
00001FFFFFFFFFFFFFFFFFFFFFFFF00000
00000FFFFFFFFFFFFFFFFFFFFFFFE00000
000007FFFFFFFFFFFFFFFFFFFFFFC00000
000003FFFFFFFFFFFFFFFFFFFFFF000000
000001FFFFFFFFFFFFFFFFFFFFFE000000
0000007FFFFFFFFFFFFFFFFFFFFC000000
0000003FFFFFFFFFFFFFFFFFFFF8000000
0000001FFFFFFFFFFFFFFFFFFFE0000000
00000007FFFFFFFFFFFFFFFFFFC0000000
00000003FFFFFFFFFFFFFFFFFF00000000
00000000FFFFFFFFFFFFFFFFFE00000000
000000003FFFFFFFFFFFFFFFF800000000
000000000FFFFFFFFFFFFFFFE000000000
0000000003FFFFFFFFFFFFFF8000000000
0000000000FFFFFFFFFFFFFE0000000000
00000000003FFFFFFFFFFFF00000000000
000000000007FFFFFFFFFFC00000000000
000000000000FFFFFFFFFC000000000000
0000000000000FFFFFFFC0000000000000
000000000000001FFFF000000000000000
ENDCHAR
STARTCHAR one
ENCODING 49
SWIDTH 385 0
DWIDTH 69 0
BBX 54 131 4 0
BITMAP
FFFFF800000000
FFFFFFC0000000
FFFFFFFC000000
FFFFFFFF000000
FFFFFFFFC00000
FFFFFFFFF00000
FFFFFFFFFC0000
FFFFFFFFFE0000
FFFFFFFFFF0000
FFFFFFFFFFC000
FFFFFFFFFFE000
FFFFFFFFFFF000
FFFFFFFFFFF000
FFFFFFFFFFF800
FFFFFFFFFFFC00
FFFFFFFFFFFE00
FFFFFFFFFFFE00
FFFFFFFFFFFF00
FFFFFFFFFFFF80
FFFFFFFFFFFF80
FFFFFFFFFFFFC0
FFFFFFFFFFFFC0
FFFFFFFFFFFFC0
00001FFFFFFFE0
000003FFFFFFE0
000000FFFFFFF0
0000007FFFFFF0
0000003FFFFFF0
0000001FFFFFF0
0000000FFFFFF8
0000000FFFFFF8
00000007FFFFF8
00000007FFFFF8
00000003FFFFF8
00000003FFFFF8
00000003FFFFFC
00000001FFFFFC
00000001FFFFFC
00000001FFFFFC
00000001FFFFFC
00000001FFFFFC
00000001FFFFFC
00000001FFFFFC
00000001FFFFFC
00000001FFFFFC
00000001FFFFFC
00000001FFFFFC
00000001FFFFFC
00000001FFFFFC
00000001FFFFFC
00000001FFFFFC
00000001FFFFFC
00000001FFFFFC
00000001FFFFFC
00000001FFFFFC
00000001FFFFFC
00000001FFFFFC
00000001FFFFFC
00000001FFFFFC
00000001FFFFFC
00000001FFFFFC
00000001FFFFFC
00000001FFFFFC
00000001FFFFFC
00000001FFFFFC
00000001FFFFFC
00000001FFFFFC
00000001FFFFFC
00000001FFFFFC
00000001FFFFFC
00000001FFFFFC
00000001FFFFFC
00000001FFFFFC
00000001FFFFFC
00000001FFFFFC
00000001FFFFFC
00000001FFFFFC
00000001FFFFFC
00000001FFFFFC
00000001FFFFFC
00000001FFFFFC
00000001FFFFFC
00000001FFFFFC
00000001FFFFFC
00000001FFFFFC
00000001FFFFFC
00000001FFFFFC
00000001FFFFFC
00000001FFFFFC
00000001FFFFFC
00000001FFFFFC
00000001FFFFFC
00000001FFFFFC
00000001FFFFFC
00000001FFFFFC
00000001FFFFFC
00000001FFFFFC
00000001FFFFFC
00000001FFFFFC
00000001FFFFFC
00000001FFFFFC
00000001FFFFFC
00000001FFFFFC
00000001FFFFFC
00000001FFFFFC
00000001FFFFFC
00000001FFFFFC
00000001FFFFFC
00000001FFFFFC
00000001FFFFFC
00000001FFFFFC
00000001FFFFFC
00000001FFFFFC
00000001FFFFFC
00000001FFFFFC
00000001FFFFFC
00000001FFFFFC
00000001FFFFFC
00000001FFFFFC
00000001FFFFFC
00000001FFFFFC
00000001FFFFFC
00000001FFFFFC
00000001FFFFFC
00000001FFFFFC
00000001FFFFFC
00000001FFFFFC
00000001FFFFFC
00000001FFFFFC
00000001FFFFFC
00000001FFFFFC
ENDCHAR
STARTCHAR two
ENCODING 50
SWIDTH 825 0
DWIDTH 149 0
BBX 128 131 11 0
BITMAP
7FFFFFFFFFFFFFFFFFFFFFFF00000000
7FFFFFFFFFFFFFFFFFFFFFFFF8000000
7FFFFFFFFFFFFFFFFFFFFFFFFF000000
7FFFFFFFFFFFFFFFFFFFFFFFFFE00000
7FFFFFFFFFFFFFFFFFFFFFFFFFF80000
7FFFFFFFFFFFFFFFFFFFFFFFFFFE0000
7FFFFFFFFFFFFFFFFFFFFFFFFFFF8000
7FFFFFFFFFFFFFFFFFFFFFFFFFFFC000
7FFFFFFFFFFFFFFFFFFFFFFFFFFFF000
7FFFFFFFFFFFFFFFFFFFFFFFFFFFF800
7FFFFFFFFFFFFFFFFFFFFFFFFFFFFC00
7FFFFFFFFFFFFFFFFFFFFFFFFFFFFE00
7FFFFFFFFFFFFFFFFFFFFFFFFFFFFF00
7FFFFFFFFFFFFFFFFFFFFFFFFFFFFF80
7FFFFFFFFFFFFFFFFFFFFFFFFFFFFF80
7FFFFFFFFFFFFFFFFFFFFFFFFFFFFFC0
7FFFFFFFFFFFFFFFFFFFFFFFFFFFFFE0
7FFFFFFFFFFFFFFFFFFFFFFFFFFFFFE0
7FFFFFFFFFFFFFFFFFFFFFFFFFFFFFF0
7FFFFFFFFFFFFFFFFFFFFFFFFFFFFFF0
7FFFFFFFFFFFFFFFFFFFFFFFFFFFFFF8
7FFFFFFFFFFFFFFFFFFFFFFFFFFFFFF8
7FFFFFFFFFFFFFFFFFFFFFFFFFFFFFFC
000000000000000000000007FFFFFFFC
000000000000000000000000FFFFFFFC
0000000000000000000000003FFFFFFE
0000000000000000000000001FFFFFFE
0000000000000000000000000FFFFFFE
00000000000000000000000007FFFFFE
00000000000000000000000003FFFFFF
00000000000000000000000001FFFFFF
00000000000000000000000001FFFFFF
00000000000000000000000000FFFFFF
00000000000000000000000000FFFFFF
00000000000000000000000000FFFFFF
00000000000000000000000000FFFFFF
00000000000000000000000000FFFFFF
00000000000000000000000000FFFFFF
000000000000000000000000007FFFFF
000000000000000000000000007FFFFF
00000000000000000000000000FFFFFF
00000000000000000000000000FFFFFF
00000000000000000000000000FFFFFF
00000000000000000000000000FFFFFF
00000000000000000000000000FFFFFE
00000000000000000000000000FFFFFE
00000000000000000000000001FFFFFE
00000000000000000000000001FFFFFE
00000000000000000000000003FFFFFC
00000000000000000000000007FFFFFC
0000000000000000000000000FFFFFFC
0000000000000000000000001FFFFFF8
0000000000000000000000003FFFFFF8
000000000000000000000000FFFFFFF8
000000000000000000000007FFFFFFF0
00000000FFFFFFFFFFFFFFFFFFFFFFF0
0000003FFFFFFFFFFFFFFFFFFFFFFFE0
000001FFFFFFFFFFFFFFFFFFFFFFFFC0
00000FFFFFFFFFFFFFFFFFFFFFFFFFC0
00003FFFFFFFFFFFFFFFFFFFFFFFFF80
0000FFFFFFFFFFFFFFFFFFFFFFFFFF00
0003FFFFFFFFFFFFFFFFFFFFFFFFFE00
0007FFFFFFFFFFFFFFFFFFFFFFFFFC00
000FFFFFFFFFFFFFFFFFFFFFFFFFF800
003FFFFFFFFFFFFFFFFFFFFFFFFFF000
007FFFFFFFFFFFFFFFFFFFFFFFFFE000
00FFFFFFFFFFFFFFFFFFFFFFFFFFC000
00FFFFFFFFFFFFFFFFFFFFFFFFFF0000
01FFFFFFFFFFFFFFFFFFFFFFFFFE0000
03FFFFFFFFFFFFFFFFFFFFFFFFF80000
03FFFFFFFFFFFFFFFFFFFFFFFFE00000
07FFFFFFFFFFFFFFFFFFFFFFFF000000
0FFFFFFFFFFFFFFFFFFFFFFFF8000000
0FFFFFFFFFFFFFFFFFFFFFFF00000000
0FFFFFFFE00000000000000000000000
1FFFFFFE000000000000000000000000
1FFFFFF8000000000000000000000000
3FFFFFF0000000000000000000000000
3FFFFFC0000000000000000000000000
3FFFFF80000000000000000000000000
3FFFFF80000000000000000000000000
7FFFFF00000000000000000000000000
7FFFFF00000000000000000000000000
7FFFFE00000000000000000000000000
7FFFFE00000000000000000000000000
7FFFFE00000000000000000000000000
7FFFFC00000000000000000000000000
7FFFFC00000000000000000000000000
FFFFFC00000000000000000000000000
FFFFFC00000000000000000000000000
FFFFFC00000000000000000000000000
FFFFFC00000000000000000000000000
FFFFFC00000000000000000000000000
FFFFFC00000000000000000000000000
FFFFFC00000000000000000000000000
FFFFFC00000000000000000000000000
FFFFFC00000000000000000000000000
FFFFFC00000000000000000000000000
FFFFFC00000000000000000000000000
FFFFFC00000000000000000000000000
FFFFFC00000000000000000000000000
FFFFFC00000000000000000000000000
FFFFFC00000000000000000000000000
FFFFFC00000000000000000000000000
FFFFFC00000000000000000000000000
FFFFFC00000000000000000000000000
FFFFFC00000000000000000000000000
FFFFFC00000000000000000000000000
FFFFFFFFFFFFFFFFFFFFFFFFFFFFFFFC
FFFFFFFFFFFFFFFFFFFFFFFFFFFFFFFC
FFFFFFFFFFFFFFFFFFFFFFFFFFFFFFFC
FFFFFFFFFFFFFFFFFFFFFFFFFFFFFFFC
FFFFFFFFFFFFFFFFFFFFFFFFFFFFFFFC
FFFFFFFFFFFFFFFFFFFFFFFFFFFFFFFC
FFFFFFFFFFFFFFFFFFFFFFFFFFFFFFFC
FFFFFFFFFFFFFFFFFFFFFFFFFFFFFFFC
FFFFFFFFFFFFFFFFFFFFFFFFFFFFFFFC
FFFFFFFFFFFFFFFFFFFFFFFFFFFFFFFC
FFFFFFFFFFFFFFFFFFFFFFFFFFFFFFFC
FFFFFFFFFFFFFFFFFFFFFFFFFFFFFFFC
FFFFFFFFFFFFFFFFFFFFFFFFFFFFFFFC
FFFFFFFFFFFFFFFFFFFFFFFFFFFFFFFC
FFFFFFFFFFFFFFFFFFFFFFFFFFFFFFFC
FFFFFFFFFFFFFFFFFFFFFFFFFFFFFFFC
FFFFFFFFFFFFFFFFFFFFFFFFFFFFFFFC
FFFFFFFFFFFFFFFFFFFFFFFFFFFFFFFC
FFFFFFFFFFFFFFFFFFFFFFFFFFFFFFFC
FFFFFFFFFFFFFFFFFFFFFFFFFFFFFFFC
FFFFFFFFFFFFFFFFFFFFFFFFFFFFFFFC
FFFFFFFFFFFFFFFFFFFFFFFFFFFFFFFC
FFFFFFFFFFFFFFFFFFFFFFFFFFFFFFFC
ENDCHAR
STARTCHAR three
ENCODING 51
SWIDTH 827 0
DWIDTH 149 0
BBX 132 131 8 0
BITMAP
7FFFFFFFFFFFFFFFFFFFFFFF0000000000
7FFFFFFFFFFFFFFFFFFFFFFFFC00000000
7FFFFFFFFFFFFFFFFFFFFFFFFFC0000000
7FFFFFFFFFFFFFFFFFFFFFFFFFF8000000
7FFFFFFFFFFFFFFFFFFFFFFFFFFE000000
7FFFFFFFFFFFFFFFFFFFFFFFFFFF800000
7FFFFFFFFFFFFFFFFFFFFFFFFFFFE00000
7FFFFFFFFFFFFFFFFFFFFFFFFFFFF00000
7FFFFFFFFFFFFFFFFFFFFFFFFFFFFC0000
7FFFFFFFFFFFFFFFFFFFFFFFFFFFFE0000
7FFFFFFFFFFFFFFFFFFFFFFFFFFFFF0000
7FFFFFFFFFFFFFFFFFFFFFFFFFFFFF8000
7FFFFFFFFFFFFFFFFFFFFFFFFFFFFFC000
7FFFFFFFFFFFFFFFFFFFFFFFFFFFFFE000
7FFFFFFFFFFFFFFFFFFFFFFFFFFFFFF000
7FFFFFFFFFFFFFFFFFFFFFFFFFFFFFF000
7FFFFFFFFFFFFFFFFFFFFFFFFFFFFFF800
7FFFFFFFFFFFFFFFFFFFFFFFFFFFFFFC00
7FFFFFFFFFFFFFFFFFFFFFFFFFFFFFFC00
7FFFFFFFFFFFFFFFFFFFFFFFFFFFFFFE00
7FFFFFFFFFFFFFFFFFFFFFFFFFFFFFFE00
7FFFFFFFFFFFFFFFFFFFFFFFFFFFFFFE00
7FFFFFFFFFFFFFFFFFFFFFFFFFFFFFFF00
00000000000000000000001FFFFFFFFF00
000000000000000000000000FFFFFFFF00
0000000000000000000000001FFFFFFF80
00000000000000000000000007FFFFFF80
00000000000000000000000003FFFFFF80
00000000000000000000000001FFFFFF80
00000000000000000000000000FFFFFF80
00000000000000000000000000FFFFFF80
000000000000000000000000007FFFFF80
000000000000000000000000007FFFFF80
000000000000000000000000003FFFFFC0
000000000000000000000000003FFFFFC0
000000000000000000000000003FFFFF80
000000000000000000000000003FFFFF80
000000000000000000000000003FFFFF80
000000000000000000000000003FFFFF80
000000000000000000000000003FFFFF80
000000000000000000000000003FFFFF80
000000000000000000000000003FFFFF80
000000000000000000000000003FFFFF80
000000000000000000000000003FFFFF80
000000000000000000000000003FFFFF00
000000000000000000000000003FFFFF00
000000000000000000000000007FFFFF00
000000000000000000000000007FFFFE00
00000000000000000000000000FFFFFE00
00000000000000000000000000FFFFFC00
00000000000000000000000001FFFFFC00
00000000000000000000000003FFFFF800
0000000000000000000000000FFFFFF800
0000000000000000000000003FFFFFF000
000000000000000000000003FFFFFFE000
00000001FFFFFFFFFFFFFFFFFFFFFFC000
00000001FFFFFFFFFFFFFFFFFFFFFF8000
00000001FFFFFFFFFFFFFFFFFFFFFF0000
00000001FFFFFFFFFFFFFFFFFFFFFC0000
00000001FFFFFFFFFFFFFFFFFFFFF80000
00000001FFFFFFFFFFFFFFFFFFFFE00000
00000001FFFFFFFFFFFFFFFFFFFF800000
00000001FFFFFFFFFFFFFFFFFFFF800000
00000001FFFFFFFFFFFFFFFFFFFFF00000
00000001FFFFFFFFFFFFFFFFFFFFF80000
00000001FFFFFFFFFFFFFFFFFFFFFE0000
00000001FFFFFFFFFFFFFFFFFFFFFF0000
00000001FFFFFFFFFFFFFFFFFFFFFFC000
00000001FFFFFFFFFFFFFFFFFFFFFFE000
00000001FFFFFFFFFFFFFFFFFFFFFFF000
00000001FFFFFFFFFFFFFFFFFFFFFFF800
00000001FFFFFFFFFFFFFFFFFFFFFFFC00
00000001FFFFFFFFFFFFFFFFFFFFFFFC00
00000001FFFFFFFFFFFFFFFFFFFFFFFE00
000000000000000000000001FFFFFFFF00
0000000000000000000000001FFFFFFF00
00000000000000000000000007FFFFFF80
00000000000000000000000001FFFFFF80
00000000000000000000000000FFFFFFC0
000000000000000000000000007FFFFFC0
000000000000000000000000003FFFFFC0
000000000000000000000000003FFFFFE0
000000000000000000000000001FFFFFE0
000000000000000000000000001FFFFFE0
000000000000000000000000000FFFFFE0
000000000000000000000000000FFFFFF0
000000000000000000000000000FFFFFF0
0000000000000000000000000007FFFFF0
0000000000000000000000000007FFFFF0
0000000000000000000000000007FFFFF0
0000000000000000000000000007FFFFF0
0000000000000000000000000007FFFFF0
0000000000000000000000000007FFFFF0
0000000000000000000000000007FFFFF0
000000000000000000000000000FFFFFF0
000000000000000000000000000FFFFFF0
000000000000000000000000000FFFFFF0
000000000000000000000000001FFFFFF0
000000000000000000000000001FFFFFF0
000000000000000000000000003FFFFFE0
000000000000000000000000003FFFFFE0
000000000000000000000000007FFFFFE0
00000000000000000000000000FFFFFFE0
00000000000000000000000003FFFFFFC0
00000000000000000000000007FFFFFFC0
0000000000000000000000001FFFFFFFC0
000000000000000000000000FFFFFFFFC0
00000000000000000000000FFFFFFFFF80
FFFFFFFFFFFFFFFFFFFFFFFFFFFFFFFF80
FFFFFFFFFFFFFFFFFFFFFFFFFFFFFFFF00
FFFFFFFFFFFFFFFFFFFFFFFFFFFFFFFF00
FFFFFFFFFFFFFFFFFFFFFFFFFFFFFFFE00
FFFFFFFFFFFFFFFFFFFFFFFFFFFFFFFE00
FFFFFFFFFFFFFFFFFFFFFFFFFFFFFFFC00
FFFFFFFFFFFFFFFFFFFFFFFFFFFFFFF800
FFFFFFFFFFFFFFFFFFFFFFFFFFFFFFF800
FFFFFFFFFFFFFFFFFFFFFFFFFFFFFFF000
FFFFFFFFFFFFFFFFFFFFFFFFFFFFFFE000
FFFFFFFFFFFFFFFFFFFFFFFFFFFFFFC000
FFFFFFFFFFFFFFFFFFFFFFFFFFFFFF8000
FFFFFFFFFFFFFFFFFFFFFFFFFFFFFF0000
FFFFFFFFFFFFFFFFFFFFFFFFFFFFFE0000
FFFFFFFFFFFFFFFFFFFFFFFFFFFFFC0000
FFFFFFFFFFFFFFFFFFFFFFFFFFFFF00000
FFFFFFFFFFFFFFFFFFFFFFFFFFFFE00000
FFFFFFFFFFFFFFFFFFFFFFFFFFFF800000
FFFFFFFFFFFFFFFFFFFFFFFFFFFE000000
FFFFFFFFFFFFFFFFFFFFFFFFFFF8000000
FFFFFFFFFFFFFFFFFFFFFFFFFFC0000000
FFFFFFFFFFFFFFFFFFFFFFFFFE00000000
FFFFFFFFFFFFFFFFFFFFFFFF8000000000
ENDCHAR
STARTCHAR four
ENCODING 52
SWIDTH 845 0
DWIDTH 152 0
BBX 139 131 9 0
BITMAP
FFFFFE0000000000000000007FFFFF000000
FFFFFE0000000000000000007FFFFF000000
FFFFFE0000000000000000007FFFFF000000
FFFFFE0000000000000000007FFFFF000000
FFFFFE0000000000000000007FFFFF000000
FFFFFE0000000000000000007FFFFF000000
FFFFFE0000000000000000007FFFFF000000
FFFFFE0000000000000000007FFFFF000000
FFFFFE0000000000000000007FFFFF000000
FFFFFE0000000000000000007FFFFF000000
FFFFFE0000000000000000007FFFFF000000
FFFFFE0000000000000000007FFFFF000000
FFFFFE0000000000000000007FFFFF000000
FFFFFE0000000000000000007FFFFF000000
FFFFFE0000000000000000007FFFFF000000
FFFFFE0000000000000000007FFFFF000000
FFFFFE0000000000000000007FFFFF000000
FFFFFE0000000000000000007FFFFF000000
FFFFFE0000000000000000007FFFFF000000
FFFFFE0000000000000000007FFFFF000000
FFFFFE0000000000000000007FFFFF000000
FFFFFE0000000000000000007FFFFF000000
FFFFFE0000000000000000007FFFFF000000
FFFFFE0000000000000000007FFFFF000000
FFFFFE0000000000000000007FFFFF000000
FFFFFE0000000000000000007FFFFF000000
FFFFFE0000000000000000007FFFFF000000
FFFFFE0000000000000000007FFFFF000000
FFFFFE0000000000000000007FFFFF000000
FFFFFE0000000000000000007FFFFF000000
FFFFFE0000000000000000007FFFFF000000
FFFFFE0000000000000000007FFFFF000000
FFFFFE0000000000000000007FFFFF000000
FFFFFE0000000000000000007FFFFF000000
FFFFFE0000000000000000007FFFFF000000
FFFFFE0000000000000000007FFFFF000000
FFFFFE0000000000000000007FFFFF000000
FFFFFE0000000000000000007FFFFF000000
FFFFFE0000000000000000007FFFFF000000
FFFFFE0000000000000000007FFFFF000000
FFFFFE0000000000000000007FFFFF000000
FFFFFE0000000000000000007FFFFF000000
FFFFFE0000000000000000007FFFFF000000
FFFFFE0000000000000000007FFFFF000000
FFFFFE0000000000000000007FFFFF000000
FFFFFE0000000000000000007FFFFF000000
FFFFFE0000000000000000007FFFFF000000
FFFFFE0000000000000000007FFFFF000000
FFFFFE0000000000000000007FFFFF000000
FFFFFE0000000000000000007FFFFF000000
FFFFFE0000000000000000007FFFFF000000
FFFFFE0000000000000000007FFFFF000000
FFFFFE0000000000000000007FFFFF000000
FFFFFE0000000000000000007FFFFF000000
FFFFFE0000000000000000007FFFFF000000
FFFFFE0000000000000000007FFFFF000000
FFFFFE0000000000000000007FFFFF000000
FFFFFE0000000000000000007FFFFF000000
FFFFFE0000000000000000007FFFFF000000
FFFFFE0000000000000000007FFFFF000000
FFFFFE0000000000000000007FFFFF000000
FFFFFE0000000000000000007FFFFF000000
FFFFFE0000000000000000007FFFFF000000
FFFFFF0000000000000000007FFFFF000000
FFFFFF0000000000000000007FFFFF000000
7FFFFF8000000000000000007FFFFF000000
7FFFFF8000000000000000007FFFFF000000
7FFFFFC000000000000000007FFFFF000000
7FFFFFC000000000000000007FFFFF000000
7FFFFFE000000000000000007FFFFF000000
3FFFFFF800000000000000007FFFFF000000
3FFFFFFC00000000000000007FFFFF000000
3FFFFFFF80000000000000007FFFFF000000
1FFFFFFFF8000000000000007FFFFF000000
1FFFFFFFFFFFFFFFFFFFFFFFFFFFFFFFFFE0
1FFFFFFFFFFFFFFFFFFFFFFFFFFFFFFFFFE0
0FFFFFFFFFFFFFFFFFFFFFFFFFFFFFFFFFE0
0FFFFFFFFFFFFFFFFFFFFFFFFFFFFFFFFFE0
07FFFFFFFFFFFFFFFFFFFFFFFFFFFFFFFFE0
07FFFFFFFFFFFFFFFFFFFFFFFFFFFFFFFFE0
03FFFFFFFFFFFFFFFFFFFFFFFFFFFFFFFFE0
01FFFFFFFFFFFFFFFFFFFFFFFFFFFFFFFFE0
00FFFFFFFFFFFFFFFFFFFFFFFFFFFFFFFFE0
00FFFFFFFFFFFFFFFFFFFFFFFFFFFFFFFFE0
007FFFFFFFFFFFFFFFFFFFFFFFFFFFFFFFE0
003FFFFFFFFFFFFFFFFFFFFFFFFFFFFFFFE0
001FFFFFFFFFFFFFFFFFFFFFFFFFFFFFFFE0
0007FFFFFFFFFFFFFFFFFFFFFFFFFFFFFFE0
0003FFFFFFFFFFFFFFFFFFFFFFFFFFFFFFE0
0001FFFFFFFFFFFFFFFFFFFFFFFFFFFFFFE0
00007FFFFFFFFFFFFFFFFFFFFFFFFFFFFFE0
00001FFFFFFFFFFFFFFFFFFFFFFFFFFFFFE0
000007FFFFFFFFFFFFFFFFFFFFFFFFFFFFE0
000000FFFFFFFFFFFFFFFFFFFFFFFFFFFFE0
0000000FFFFFFFFFFFFFFFFFFFFFFFFFFFE0
000000003FFFFFFFFFFFFFFFFFFFFFFFFFE0
0000000000000000000000007FFFFF000000
0000000000000000000000007FFFFF000000
0000000000000000000000007FFFFF000000
0000000000000000000000007FFFFF000000
0000000000000000000000007FFFFF000000
0000000000000000000000007FFFFF000000
0000000000000000000000007FFFFF000000
0000000000000000000000007FFFFF000000
0000000000000000000000007FFFFF000000
0000000000000000000000007FFFFF000000
0000000000000000000000007FFFFF000000
0000000000000000000000007FFFFF000000
0000000000000000000000007FFFFF000000
0000000000000000000000007FFFFF000000
0000000000000000000000007FFFFF000000
0000000000000000000000007FFFFF000000
0000000000000000000000007FFFFF000000
0000000000000000000000007FFFFF000000
0000000000000000000000007FFFFF000000
0000000000000000000000007FFFFF000000
0000000000000000000000007FFFFF000000
0000000000000000000000007FFFFF000000
0000000000000000000000007FFFFF000000
0000000000000000000000007FFFFF000000
0000000000000000000000007FFFFF000000
0000000000000000000000007FFFFF000000
0000000000000000000000007FFFFF000000
0000000000000000000000007FFFFF000000
0000000000000000000000007FFFFF000000
0000000000000000000000007FFFFF000000
0000000000000000000000007FFFFF000000
0000000000000000000000007FFFFF000000
0000000000000000000000007FFFFF000000
0000000000000000000000007FFFFF000000
0000000000000000000000007FFFFF000000
ENDCHAR
STARTCHAR five
ENCODING 53
SWIDTH 885 0
DWIDTH 159 0
BBX 139 131 11 0
BITMAP
FFFFFFFFFFFFFFFFFFFFFFFFFFFFFFFFF800
FFFFFFFFFFFFFFFFFFFFFFFFFFFFFFFFF800
FFFFFFFFFFFFFFFFFFFFFFFFFFFFFFFFF800
FFFFFFFFFFFFFFFFFFFFFFFFFFFFFFFFF800
FFFFFFFFFFFFFFFFFFFFFFFFFFFFFFFFF800
FFFFFFFFFFFFFFFFFFFFFFFFFFFFFFFFF800
FFFFFFFFFFFFFFFFFFFFFFFFFFFFFFFFF800
FFFFFFFFFFFFFFFFFFFFFFFFFFFFFFFFF800
FFFFFFFFFFFFFFFFFFFFFFFFFFFFFFFFF800
FFFFFFFFFFFFFFFFFFFFFFFFFFFFFFFFF800
FFFFFFFFFFFFFFFFFFFFFFFFFFFFFFFFF800
FFFFFFFFFFFFFFFFFFFFFFFFFFFFFFFFF800
FFFFFFFFFFFFFFFFFFFFFFFFFFFFFFFFF800
FFFFFFFFFFFFFFFFFFFFFFFFFFFFFFFFF800
FFFFFFFFFFFFFFFFFFFFFFFFFFFFFFFFF800
FFFFFFFFFFFFFFFFFFFFFFFFFFFFFFFFF800
FFFFFFFFFFFFFFFFFFFFFFFFFFFFFFFFF800
FFFFFFFFFFFFFFFFFFFFFFFFFFFFFFFFF800
FFFFFFFFFFFFFFFFFFFFFFFFFFFFFFFFF800
FFFFFFFFFFFFFFFFFFFFFFFFFFFFFFFFF800
FFFFFFFFFFFFFFFFFFFFFFFFFFFFFFFFF800
FFFFFFFFFFFFFFFFFFFFFFFFFFFFFFFFF800
FFFFFFFFFFFFFFFFFFFFFFFFFFFFFFFFF800
FFFFFF000000000000000000000000000000
FFFFFF000000000000000000000000000000
FFFFFF000000000000000000000000000000
FFFFFF000000000000000000000000000000
FFFFFF000000000000000000000000000000
FFFFFF000000000000000000000000000000
FFFFFF000000000000000000000000000000
FFFFFF000000000000000000000000000000
FFFFFF000000000000000000000000000000
FFFFFF000000000000000000000000000000
FFFFFF000000000000000000000000000000
FFFFFF000000000000000000000000000000
FFFFFF000000000000000000000000000000
FFFFFF000000000000000000000000000000
FFFFFF000000000000000000000000000000
FFFFFF000000000000000000000000000000
FFFFFF000000000000000000000000000000
FFFFFF000000000000000000000000000000
FFFFFF000000000000000000000000000000
FFFFFF000000000000000000000000000000
FFFFFF000000000000000000000000000000
FFFFFF000000000000000000000000000000
FFFFFF000000000000000000000000000000
FFFFFF000000000000000000000000000000
FFFFFF000000000000000000000000000000
FFFFFF000000000000000000000000000000
FFFFFF000000000000000000000000000000
FFFFFF000000000000000000000000000000
FFFFFF000000000000000000000000000000
FFFFFF000000000000000000000000000000
FFFFFF000000000000000000000000000000
FFFFFF000000000000000000000000000000
FFFFFFFFFFFFFFFFFFFFFFFFFFE000000000
FFFFFFFFFFFFFFFFFFFFFFFFFFFF80000000
FFFFFFFFFFFFFFFFFFFFFFFFFFFFF0000000
FFFFFFFFFFFFFFFFFFFFFFFFFFFFFE000000
FFFFFFFFFFFFFFFFFFFFFFFFFFFFFF800000
FFFFFFFFFFFFFFFFFFFFFFFFFFFFFFE00000
FFFFFFFFFFFFFFFFFFFFFFFFFFFFFFF80000
FFFFFFFFFFFFFFFFFFFFFFFFFFFFFFFC0000
FFFFFFFFFFFFFFFFFFFFFFFFFFFFFFFF0000
FFFFFFFFFFFFFFFFFFFFFFFFFFFFFFFF8000
FFFFFFFFFFFFFFFFFFFFFFFFFFFFFFFFC000
FFFFFFFFFFFFFFFFFFFFFFFFFFFFFFFFE000
FFFFFFFFFFFFFFFFFFFFFFFFFFFFFFFFF000
FFFFFFFFFFFFFFFFFFFFFFFFFFFFFFFFF000
FFFFFFFFFFFFFFFFFFFFFFFFFFFFFFFFF800
FFFFFFFFFFFFFFFFFFFFFFFFFFFFFFFFFC00
FFFFFFFFFFFFFFFFFFFFFFFFFFFFFFFFFC00
FFFFFFFFFFFFFFFFFFFFFFFFFFFFFFFFFE00
FFFFFFFFFFFFFFFFFFFFFFFFFFFFFFFFFE00
00000000000000000000000000FFFFFFFF00
000000000000000000000000000FFFFFFF00
0000000000000000000000000003FFFFFF00
0000000000000000000000000000FFFFFF80
00000000000000000000000000007FFFFF80
00000000000000000000000000003FFFFF80
00000000000000000000000000003FFFFFC0
00000000000000000000000000001FFFFFC0
00000000000000000000000000000FFFFFC0
00000000000000000000000000000FFFFFC0
00000000000000000000000000000FFFFFC0
000000000000000000000000000007FFFFC0
000000000000000000000000000007FFFFE0
000000000000000000000000000007FFFFE0
000000000000000000000000000007FFFFE0
000000000000000000000000000007FFFFE0
000000000000000000000000000007FFFFE0
000000000000000000000000000007FFFFE0
000000000000000000000000000007FFFFE0
000000000000000000000000000007FFFFE0
000000000000000000000000000007FFFFE0
000000000000000000000000000007FFFFE0
000000000000000000000000000007FFFFE0
00000000000000000000000000000FFFFFE0
00000000000000000000000000000FFFFFE0
00000000000000000000000000001FFFFFC0
00000000000000000000000000001FFFFFC0
00000000000000000000000000003FFFFFC0
00000000000000000000000000007FFFFFC0
0000000000000000000000000000FFFFFFC0
0000000000000000000000000001FFFFFFC0
0000000000000000000000000003FFFFFF80
000000000000000000000000000FFFFFFF80
000000000000000000000000007FFFFFFF80
FFFFFFFFFFFFFFFFFFFFFFFFFFFFFFFFFF00
FFFFFFFFFFFFFFFFFFFFFFFFFFFFFFFFFF00
FFFFFFFFFFFFFFFFFFFFFFFFFFFFFFFFFE00
FFFFFFFFFFFFFFFFFFFFFFFFFFFFFFFFFE00
FFFFFFFFFFFFFFFFFFFFFFFFFFFFFFFFFC00
FFFFFFFFFFFFFFFFFFFFFFFFFFFFFFFFFC00
FFFFFFFFFFFFFFFFFFFFFFFFFFFFFFFFF800
FFFFFFFFFFFFFFFFFFFFFFFFFFFFFFFFF800
FFFFFFFFFFFFFFFFFFFFFFFFFFFFFFFFF000
FFFFFFFFFFFFFFFFFFFFFFFFFFFFFFFFE000
FFFFFFFFFFFFFFFFFFFFFFFFFFFFFFFFC000
FFFFFFFFFFFFFFFFFFFFFFFFFFFFFFFFC000
FFFFFFFFFFFFFFFFFFFFFFFFFFFFFFFF0000
FFFFFFFFFFFFFFFFFFFFFFFFFFFFFFFE0000
FFFFFFFFFFFFFFFFFFFFFFFFFFFFFFFC0000
FFFFFFFFFFFFFFFFFFFFFFFFFFFFFFF80000
FFFFFFFFFFFFFFFFFFFFFFFFFFFFFFF00000
FFFFFFFFFFFFFFFFFFFFFFFFFFFFFFC00000
FFFFFFFFFFFFFFFFFFFFFFFFFFFFFF000000
FFFFFFFFFFFFFFFFFFFFFFFFFFFFFC000000
FFFFFFFFFFFFFFFFFFFFFFFFFFFFE0000000
FFFFFFFFFFFFFFFFFFFFFFFFFFFF00000000
FFFFFFFFFFFFFFFFFFFFFFFFFFC000000000
ENDCHAR
STARTCHAR six
ENCODING 54
SWIDTH 872 0
DWIDTH 157 0
BBX 139 131 8 0
BITMAP
0000000000007FFFFFFFFFFFFFFFFFFFFC00
00000000001FFFFFFFFFFFFFFFFFFFFFFC00
0000000003FFFFFFFFFFFFFFFFFFFFFFFC00
000000001FFFFFFFFFFFFFFFFFFFFFFFFC00
00000000FFFFFFFFFFFFFFFFFFFFFFFFFC00
00000003FFFFFFFFFFFFFFFFFFFFFFFFFC00
0000000FFFFFFFFFFFFFFFFFFFFFFFFFFC00
0000003FFFFFFFFFFFFFFFFFFFFFFFFFFC00
000000FFFFFFFFFFFFFFFFFFFFFFFFFFFC00
000001FFFFFFFFFFFFFFFFFFFFFFFFFFFC00
000007FFFFFFFFFFFFFFFFFFFFFFFFFFFC00
00000FFFFFFFFFFFFFFFFFFFFFFFFFFFFC00
00001FFFFFFFFFFFFFFFFFFFFFFFFFFFFC00
00007FFFFFFFFFFFFFFFFFFFFFFFFFFFFC00
0000FFFFFFFFFFFFFFFFFFFFFFFFFFFFFC00
0001FFFFFFFFFFFFFFFFFFFFFFFFFFFFFC00
0003FFFFFFFFFFFFFFFFFFFFFFFFFFFFFC00
0007FFFFFFFFFFFFFFFFFFFFFFFFFFFFFC00
0007FFFFFFFFFFFFFFFFFFFFFFFFFFFFFC00
000FFFFFFFFFFFFFFFFFFFFFFFFFFFFFFC00
001FFFFFFFFFFFFFFFFFFFFFFFFFFFFFFC00
003FFFFFFFFFFFFFFFFFFFFFFFFFFFFFFC00
003FFFFFFFFFFFFFFFFFFFFFFFFFFFFFFC00
007FFFFFFFFFC00000000000000000000000
00FFFFFFFFFC000000000000000000000000
00FFFFFFFFE0000000000000000000000000
01FFFFFFFF80000000000000000000000000
01FFFFFFFC00000000000000000000000000
03FFFFFFF800000000000000000000000000
03FFFFFFE000000000000000000000000000
07FFFFFFC000000000000000000000000000
07FFFFFF8000000000000000000000000000
07FFFFFF0000000000000000000000000000
0FFFFFFE0000000000000000000000000000
0FFFFFFC0000000000000000000000000000
0FFFFFFC0000000000000000000000000000
1FFFFFF80000000000000000000000000000
1FFFFFF00000000000000000000000000000
1FFFFFF00000000000000000000000000000
3FFFFFE00000000000000000000000000000
3FFFFFE00000000000000000000000000000
3FFFFFC00000000000000000000000000000
3FFFFFC00000000000000000000000000000
7FFFFFC00000000000000000000000000000
7FFFFF800000000000000000000000000000
7FFFFF800000000000000000000000000000
7FFFFF800000000000000000000000000000
7FFFFF000000000000000000000000000000
7FFFFF000000000000000000000000000000
FFFFFF000000000000000000000000000000
FFFFFF000000000000000000000000000000
FFFFFE000000000000000000000000000000
FFFFFE000000000000000000000000000000
FFFFFE000000000000000000000000000000
FFFFFE000000000000000000000000000000
FFFFFFFFFFFFFFFFFFFFFFFFFFF000000000
FFFFFFFFFFFFFFFFFFFFFFFFFFFFC0000000
FFFFFFFFFFFFFFFFFFFFFFFFFFFFF8000000
FFFFFFFFFFFFFFFFFFFFFFFFFFFFFF000000
FFFFFFFFFFFFFFFFFFFFFFFFFFFFFFC00000
FFFFFFFFFFFFFFFFFFFFFFFFFFFFFFF00000
FFFFFFFFFFFFFFFFFFFFFFFFFFFFFFFC0000
FFFFFFFFFFFFFFFFFFFFFFFFFFFFFFFE0000
FFFFFFFFFFFFFFFFFFFFFFFFFFFFFFFF8000
FFFFFFFFFFFFFFFFFFFFFFFFFFFFFFFFC000
FFFFFFFFFFFFFFFFFFFFFFFFFFFFFFFFE000
FFFFFFFFFFFFFFFFFFFFFFFFFFFFFFFFF000
FFFFFFFFFFFFFFFFFFFFFFFFFFFFFFFFF800
FFFFFFFFFFFFFFFFFFFFFFFFFFFFFFFFF800
FFFFFFFFFFFFFFFFFFFFFFFFFFFFFFFFFC00
FFFFFFFFFFFFFFFFFFFFFFFFFFFFFFFFFE00
FFFFFFFFFFFFFFFFFFFFFFFFFFFFFFFFFE00
FFFFFFFFFFFFFFFFFFFFFFFFFFFFFFFFFF00
FFFFFFFFFFFFFFFFFFFFFFFFFFFFFFFFFF00
FFFFFE00000000000000000000FFFFFFFF80
FFFFFE000000000000000000000FFFFFFF80
FFFFFE0000000000000000000003FFFFFF80
FFFFFE0000000000000000000000FFFFFFC0
FFFFFE00000000000000000000007FFFFFC0
7FFFFF00000000000000000000003FFFFFC0
7FFFFF00000000000000000000001FFFFFC0
7FFFFF00000000000000000000001FFFFFE0
7FFFFF00000000000000000000000FFFFFE0
7FFFFF00000000000000000000000FFFFFE0
7FFFFF800000000000000000000007FFFFE0
7FFFFF800000000000000000000007FFFFE0
3FFFFF800000000000000000000007FFFFE0
3FFFFFC00000000000000000000007FFFFE0
3FFFFFC00000000000000000000007FFFFE0
3FFFFFC00000000000000000000007FFFFE0
1FFFFFE00000000000000000000007FFFFE0
1FFFFFE00000000000000000000007FFFFE0
1FFFFFF00000000000000000000007FFFFE0
0FFFFFF00000000000000000000007FFFFE0
0FFFFFF80000000000000000000007FFFFE0
0FFFFFFC0000000000000000000007FFFFE0
07FFFFFC0000000000000000000007FFFFE0
07FFFFFE000000000000000000000FFFFFE0
07FFFFFF000000000000000000000FFFFFE0
03FFFFFF800000000000000000001FFFFFE0
03FFFFFFC00000000000000000001FFFFFE0
01FFFFFFF00000000000000000003FFFFFE0
01FFFFFFF80000000000000000007FFFFFC0
00FFFFFFFE000000000000000000FFFFFFC0
00FFFFFFFF800000000000000001FFFFFFC0
007FFFFFFFE00000000000000003FFFFFFC0
007FFFFFFFFC000000000000001FFFFFFF80
003FFFFFFFFFE0000000000000FFFFFFFF80
001FFFFFFFFFFFFFFFFFFFFFFFFFFFFFFF80
001FFFFFFFFFFFFFFFFFFFFFFFFFFFFFFF00
000FFFFFFFFFFFFFFFFFFFFFFFFFFFFFFF00
0007FFFFFFFFFFFFFFFFFFFFFFFFFFFFFE00
0003FFFFFFFFFFFFFFFFFFFFFFFFFFFFFE00
0001FFFFFFFFFFFFFFFFFFFFFFFFFFFFFC00
0001FFFFFFFFFFFFFFFFFFFFFFFFFFFFFC00
0000FFFFFFFFFFFFFFFFFFFFFFFFFFFFF800
00007FFFFFFFFFFFFFFFFFFFFFFFFFFFF000
00003FFFFFFFFFFFFFFFFFFFFFFFFFFFF000
00000FFFFFFFFFFFFFFFFFFFFFFFFFFFE000
000007FFFFFFFFFFFFFFFFFFFFFFFFFFC000
000003FFFFFFFFFFFFFFFFFFFFFFFFFF8000
000000FFFFFFFFFFFFFFFFFFFFFFFFFF0000
0000007FFFFFFFFFFFFFFFFFFFFFFFFE0000
0000001FFFFFFFFFFFFFFFFFFFFFFFF80000
00000007FFFFFFFFFFFFFFFFFFFFFFF00000
00000001FFFFFFFFFFFFFFFFFFFFFFC00000
000000007FFFFFFFFFFFFFFFFFFFFF800000
000000000FFFFFFFFFFFFFFFFFFFFE000000
0000000001FFFFFFFFFFFFFFFFFFF0000000
00000000001FFFFFFFFFFFFFFFFF80000000
0000000000007FFFFFFFFFFFFFE000000000
ENDCHAR
STARTCHAR seven
ENCODING 55
SWIDTH 756 0
DWIDTH 136 0
BBX 124 131 8 0
BITMAP
FFFFFFFFFFFFFFFFFFFFFFFFFFFFE000
FFFFFFFFFFFFFFFFFFFFFFFFFFFFFC00
FFFFFFFFFFFFFFFFFFFFFFFFFFFFFF00
FFFFFFFFFFFFFFFFFFFFFFFFFFFFFF80
FFFFFFFFFFFFFFFFFFFFFFFFFFFFFFC0
FFFFFFFFFFFFFFFFFFFFFFFFFFFFFFE0
FFFFFFFFFFFFFFFFFFFFFFFFFFFFFFE0
FFFFFFFFFFFFFFFFFFFFFFFFFFFFFFF0
FFFFFFFFFFFFFFFFFFFFFFFFFFFFFFF0
FFFFFFFFFFFFFFFFFFFFFFFFFFFFFFF0
FFFFFFFFFFFFFFFFFFFFFFFFFFFFFFF0
FFFFFFFFFFFFFFFFFFFFFFFFFFFFFFF0
FFFFFFFFFFFFFFFFFFFFFFFFFFFFFFF0
FFFFFFFFFFFFFFFFFFFFFFFFFFFFFFF0
FFFFFFFFFFFFFFFFFFFFFFFFFFFFFFF0
FFFFFFFFFFFFFFFFFFFFFFFFFFFFFFF0
FFFFFFFFFFFFFFFFFFFFFFFFFFFFFFE0
FFFFFFFFFFFFFFFFFFFFFFFFFFFFFFE0
FFFFFFFFFFFFFFFFFFFFFFFFFFFFFFC0
FFFFFFFFFFFFFFFFFFFFFFFFFFFFFFC0
FFFFFFFFFFFFFFFFFFFFFFFFFFFFFF80
FFFFFFFFFFFFFFFFFFFFFFFFFFFFFF00
FFFFFFFFFFFFFFFFFFFFFFFFFFFFFE00
00000000000000000000003FFFFFFC00
00000000000000000000007FFFFFFC00
0000000000000000000000FFFFFFF800
0000000000000000000001FFFFFFF000
0000000000000000000001FFFFFFE000
0000000000000000000003FFFFFFC000
0000000000000000000007FFFFFFC000
000000000000000000000FFFFFFF8000
000000000000000000001FFFFFFF0000
000000000000000000003FFFFFFE0000
000000000000000000003FFFFFFC0000
000000000000000000007FFFFFF80000
00000000000000000000FFFFFFF80000
00000000000000000001FFFFFFF00000
00000000000000000003FFFFFFE00000
00000000000000000003FFFFFFC00000
00000000000000000007FFFFFF800000
0000000000000000000FFFFFFF800000
0000000000000000001FFFFFFF000000
0000000000000000003FFFFFFE000000
0000000000000000007FFFFFFC000000
0000000000000000007FFFFFF8000000
000000000000000000FFFFFFF8000000
000000000000000001FFFFFFF0000000
000000000000000003FFFFFFE0000000
000000000000000007FFFFFFC0000000
00000000000000000FFFFFFF80000000
00000000000000000FFFFFFF00000000
00000000000000001FFFFFFF00000000
00000000000000003FFFFFFE00000000
00000000000000007FFFFFFC00000000
0000000000000000FFFFFFF800000000
0000000000000001FFFFFFF000000000
0000000000000001FFFFFFF000000000
0000000000000003FFFFFFE000000000
0000000000000007FFFFFFC000000000
000000000000000FFFFFFF8000000000
000000000000001FFFFFFF0000000000
000000000000003FFFFFFE0000000000
000000000000003FFFFFFE0000000000
000000000000007FFFFFFC0000000000
00000000000000FFFFFFF80000000000
00000000000001FFFFFFF00000000000
00000000000003FFFFFFE00000000000
00000000000003FFFFFFE00000000000
00000000000007FFFFFFC00000000000
0000000000000FFFFFFF800000000000
0000000000001FFFFFFF000000000000
0000000000003FFFFFFE000000000000
0000000000007FFFFFFC000000000000
0000000000007FFFFFFC000000000000
000000000000FFFFFFF8000000000000
000000000001FFFFFFF0000000000000
000000000003FFFFFFE0000000000000
000000000007FFFFFFC0000000000000
00000000000FFFFFFFC0000000000000
00000000000FFFFFFF80000000000000
00000000001FFFFFFF00000000000000
00000000003FFFFFFE00000000000000
00000000007FFFFFFC00000000000000
0000000000FFFFFFF800000000000000
0000000001FFFFFFF800000000000000
0000000001FFFFFFF000000000000000
0000000003FFFFFFE000000000000000
0000000007FFFFFFC000000000000000
000000000FFFFFFF8000000000000000
000000001FFFFFFF8000000000000000
000000003FFFFFFF0000000000000000
000000003FFFFFFE0000000000000000
000000007FFFFFFC0000000000000000
00000000FFFFFFF80000000000000000
00000001FFFFFFF80000000000000000
00000003FFFFFFF00000000000000000
00000003FFFFFFE00000000000000000
00000007FFFFFFC00000000000000000
0000000FFFFFFF800000000000000000
0000001FFFFFFF000000000000000000
0000003FFFFFFF000000000000000000
0000007FFFFFFE000000000000000000
0000007FFFFFFC000000000000000000
000000FFFFFFF8000000000000000000
000001FFFFFFF0000000000000000000
000003FFFFFFF0000000000000000000
000007FFFFFFE0000000000000000000
00000FFFFFFFC0000000000000000000
00000FFFFFFF80000000000000000000
00001FFFFFFF00000000000000000000
00003FFFFFFE00000000000000000000
00007FFFFFFE00000000000000000000
0000FFFFFFFC00000000000000000000
0001FFFFFFF800000000000000000000
0001FFFFFFF000000000000000000000
0003FFFFFFE000000000000000000000
0007FFFFFFE000000000000000000000
000FFFFFFFC000000000000000000000
001FFFFFFF8000000000000000000000
003FFFFFFF0000000000000000000000
003FFFFFFE0000000000000000000000
007FFFFFFC0000000000000000000000
00FFFFFFFC0000000000000000000000
01FFFFFFF80000000000000000000000
03FFFFFFF00000000000000000000000
03FFFFFFE00000000000000000000000
07FFFFFFC00000000000000000000000
0FFFFFFFC00000000000000000000000
1FFFFFFF800000000000000000000000
3FFFFFFF000000000000000000000000
7FFFFFFE000000000000000000000000
ENDCHAR
STARTCHAR eight
ENCODING 56
SWIDTH 898 0
DWIDTH 162 0
BBX 143 131 9 0
BITMAP
000000000FFFFFFFFFFFFFFFFFF000000000
00000003FFFFFFFFFFFFFFFFFFFF80000000
0000003FFFFFFFFFFFFFFFFFFFFFF8000000
000001FFFFFFFFFFFFFFFFFFFFFFFF000000
000007FFFFFFFFFFFFFFFFFFFFFFFFE00000
00001FFFFFFFFFFFFFFFFFFFFFFFFFF80000
00007FFFFFFFFFFFFFFFFFFFFFFFFFFC0000
0000FFFFFFFFFFFFFFFFFFFFFFFFFFFF0000
0003FFFFFFFFFFFFFFFFFFFFFFFFFFFF8000
0007FFFFFFFFFFFFFFFFFFFFFFFFFFFFE000
000FFFFFFFFFFFFFFFFFFFFFFFFFFFFFF000
001FFFFFFFFFFFFFFFFFFFFFFFFFFFFFF800
003FFFFFFFFFFFFFFFFFFFFFFFFFFFFFFC00
007FFFFFFFFFFFFFFFFFFFFFFFFFFFFFFE00
00FFFFFFFFFFFFFFFFFFFFFFFFFFFFFFFE00
00FFFFFFFFFFFFFFFFFFFFFFFFFFFFFFFF00
01FFFFFFFFFFFFFFFFFFFFFFFFFFFFFFFF80
01FFFFFFFFFFFFFFFFFFFFFFFFFFFFFFFF80
03FFFFFFFFFFFFFFFFFFFFFFFFFFFFFFFFC0
03FFFFFFFFFFFFFFFFFFFFFFFFFFFFFFFFC0
07FFFFFFFFFFFFFFFFFFFFFFFFFFFFFFFFE0
07FFFFFFFFFFFFFFFFFFFFFFFFFFFFFFFFE0
0FFFFFFFFFFFFFFFFFFFFFFFFFFFFFFFFFE0
0FFFFFFFFF8000000000000001FFFFFFFFF0
0FFFFFFFF000000000000000001FFFFFFFF0
0FFFFFFF80000000000000000003FFFFFFF0
1FFFFFFF00000000000000000000FFFFFFF0
1FFFFFFC000000000000000000007FFFFFF8
1FFFFFF8000000000000000000003FFFFFF8
1FFFFFF0000000000000000000001FFFFFF8
1FFFFFF0000000000000000000000FFFFFF8
1FFFFFE0000000000000000000000FFFFFF8
1FFFFFE00000000000000000000007FFFFF8
1FFFFFC00000000000000000000007FFFFF8
1FFFFFC00000000000000000000007FFFFF8
1FFFFFC00000000000000000000003FFFFF8
1FFFFFC00000000000000000000003FFFFF8
1FFFFFC00000000000000000000003FFFFF8
1FFFFFC00000000000000000000003FFFFF8
1FFFFFC00000000000000000000003FFFFF8
1FFFFFC00000000000000000000003FFFFF8
1FFFFFC00000000000000000000003FFFFF0
1FFFFFC00000000000000000000003FFFFF0
0FFFFFC00000000000000000000003FFFFF0
0FFFFFC00000000000000000000007FFFFF0
0FFFFFE00000000000000000000007FFFFE0
0FFFFFE00000000000000000000007FFFFE0
07FFFFE0000000000000000000000FFFFFE0
07FFFFF0000000000000000000000FFFFFC0
03FFFFF8000000000000000000001FFFFFC0
03FFFFF8000000000000000000003FFFFF80
01FFFFFE000000000000000000007FFFFF80
00FFFFFF00000000000000000000FFFFFF00
00FFFFFFC0000000000000000007FFFFFE00
007FFFFFFC00000000000000007FFFFFFE00
003FFFFFFFFFFFFFFFFFFFFFFFFFFFFFFC00
001FFFFFFFFFFFFFFFFFFFFFFFFFFFFFF800
000FFFFFFFFFFFFFFFFFFFFFFFFFFFFFE000
0003FFFFFFFFFFFFFFFFFFFFFFFFFFFFC000
0001FFFFFFFFFFFFFFFFFFFFFFFFFFFF0000
00007FFFFFFFFFFFFFFFFFFFFFFFFFFE0000
00001FFFFFFFFFFFFFFFFFFFFFFFFFF00000
00001FFFFFFFFFFFFFFFFFFFFFFFFFF80000
00007FFFFFFFFFFFFFFFFFFFFFFFFFFE0000
0001FFFFFFFFFFFFFFFFFFFFFFFFFFFF8000
0007FFFFFFFFFFFFFFFFFFFFFFFFFFFFC000
000FFFFFFFFFFFFFFFFFFFFFFFFFFFFFF000
001FFFFFFFFFFFFFFFFFFFFFFFFFFFFFF800
007FFFFFFFFFFFFFFFFFFFFFFFFFFFFFFC00
00FFFFFFFFFFFFFFFFFFFFFFFFFFFFFFFE00
01FFFFFFFFFFFFFFFFFFFFFFFFFFFFFFFF00
01FFFFFFFFFFFFFFFFFFFFFFFFFFFFFFFF80
03FFFFFFFFFFFFFFFFFFFFFFFFFFFFFFFFC0
07FFFFFFFFFFFFFFFFFFFFFFFFFFFFFFFFE0
0FFFFFFFF800000000000000003FFFFFFFE0
0FFFFFFFC0000000000000000003FFFFFFF0
1FFFFFFE00000000000000000000FFFFFFF0
1FFFFFFC000000000000000000003FFFFFF8
3FFFFFF0000000000000000000001FFFFFF8
3FFFFFE0000000000000000000000FFFFFFC
3FFFFFC00000000000000000000007FFFFFC
7FFFFFC00000000000000000000003FFFFFC
7FFFFF800000000000000000000003FFFFFC
7FFFFF800000000000000000000001FFFFFE
7FFFFF000000000000000000000001FFFFFE
7FFFFF000000000000000000000000FFFFFE
FFFFFF000000000000000000000000FFFFFE
FFFFFE000000000000000000000000FFFFFE
FFFFFE000000000000000000000000FFFFFE
FFFFFE000000000000000000000000FFFFFE
FFFFFE000000000000000000000000FFFFFE
FFFFFE000000000000000000000000FFFFFE
FFFFFE000000000000000000000000FFFFFE
FFFFFE000000000000000000000000FFFFFE
FFFFFF000000000000000000000000FFFFFE
FFFFFF000000000000000000000000FFFFFE
FFFFFF000000000000000000000000FFFFFE
7FFFFF000000000000000000000001FFFFFE
7FFFFF800000000000000000000001FFFFFE
7FFFFFC00000000000000000000003FFFFFE
7FFFFFC00000000000000000000007FFFFFE
7FFFFFE00000000000000000000007FFFFFC
7FFFFFF0000000000000000000001FFFFFFC
3FFFFFFC000000000000000000003FFFFFFC
3FFFFFFE00000000000000000000FFFFFFFC
3FFFFFFF80000000000000000003FFFFFFF8
1FFFFFFFF000000000000000000FFFFFFFF8
1FFFFFFFFF0000000000000000FFFFFFFFF8
1FFFFFFFFFFFFFFFFFFFFFFFFFFFFFFFFFF0
0FFFFFFFFFFFFFFFFFFFFFFFFFFFFFFFFFF0
0FFFFFFFFFFFFFFFFFFFFFFFFFFFFFFFFFE0
07FFFFFFFFFFFFFFFFFFFFFFFFFFFFFFFFE0
07FFFFFFFFFFFFFFFFFFFFFFFFFFFFFFFFC0
03FFFFFFFFFFFFFFFFFFFFFFFFFFFFFFFFC0
01FFFFFFFFFFFFFFFFFFFFFFFFFFFFFFFF80
01FFFFFFFFFFFFFFFFFFFFFFFFFFFFFFFF00
00FFFFFFFFFFFFFFFFFFFFFFFFFFFFFFFE00
007FFFFFFFFFFFFFFFFFFFFFFFFFFFFFFE00
003FFFFFFFFFFFFFFFFFFFFFFFFFFFFFFC00
001FFFFFFFFFFFFFFFFFFFFFFFFFFFFFF800
000FFFFFFFFFFFFFFFFFFFFFFFFFFFFFF000
0007FFFFFFFFFFFFFFFFFFFFFFFFFFFFE000
0003FFFFFFFFFFFFFFFFFFFFFFFFFFFF8000
0000FFFFFFFFFFFFFFFFFFFFFFFFFFFF0000
00007FFFFFFFFFFFFFFFFFFFFFFFFFFE0000
00001FFFFFFFFFFFFFFFFFFFFFFFFFF80000
000007FFFFFFFFFFFFFFFFFFFFFFFFE00000
000001FFFFFFFFFFFFFFFFFFFFFFFF800000
0000003FFFFFFFFFFFFFFFFFFFFFFC000000
00000007FFFFFFFFFFFFFFFFFFFFC0000000
000000003FFFFFFFFFFFFFFFFFF800000000
ENDCHAR
STARTCHAR nine
ENCODING 57
SWIDTH 861 0
DWIDTH 155 0
BBX 139 131 8 0
BITMAP
00000001FFFFFFFFFFFFFF80000000000000
0000003FFFFFFFFFFFFFFFFF000000000000
000001FFFFFFFFFFFFFFFFFFF00000000000
000007FFFFFFFFFFFFFFFFFFFE0000000000
00001FFFFFFFFFFFFFFFFFFFFFC000000000
00007FFFFFFFFFFFFFFFFFFFFFF000000000
0000FFFFFFFFFFFFFFFFFFFFFFFC00000000
0003FFFFFFFFFFFFFFFFFFFFFFFF00000000
0007FFFFFFFFFFFFFFFFFFFFFFFFC0000000
000FFFFFFFFFFFFFFFFFFFFFFFFFE0000000
001FFFFFFFFFFFFFFFFFFFFFFFFFF8000000
003FFFFFFFFFFFFFFFFFFFFFFFFFFC000000
007FFFFFFFFFFFFFFFFFFFFFFFFFFE000000
00FFFFFFFFFFFFFFFFFFFFFFFFFFFF000000
01FFFFFFFFFFFFFFFFFFFFFFFFFFFF800000
01FFFFFFFFFFFFFFFFFFFFFFFFFFFFC00000
03FFFFFFFFFFFFFFFFFFFFFFFFFFFFE00000
07FFFFFFFFFFFFFFFFFFFFFFFFFFFFF00000
07FFFFFFFFFFFFFFFFFFFFFFFFFFFFF80000
0FFFFFFFFFFFFFFFFFFFFFFFFFFFFFFC0000
0FFFFFFFFFFFFFFFFFFFFFFFFFFFFFFE0000
1FFFFFFFFFFFFFFFFFFFFFFFFFFFFFFE0000
1FFFFFFFFFFFFFFFFFFFFFFFFFFFFFFF0000
1FFFFFFFE0000000000000FFFFFFFFFF8000
3FFFFFFF8000000000000007FFFFFFFF8000
3FFFFFFE0000000000000000FFFFFFFFC000
3FFFFFF800000000000000003FFFFFFFE000
7FFFFFF000000000000000000FFFFFFFE000
7FFFFFE0000000000000000003FFFFFFF000
7FFFFFC0000000000000000001FFFFFFF000
7FFFFFC00000000000000000007FFFFFF800
FFFFFF800000000000000000003FFFFFF800
FFFFFF000000000000000000001FFFFFF800
FFFFFF000000000000000000000FFFFFFC00
FFFFFF000000000000000000000FFFFFFC00
FFFFFF0000000000000000000007FFFFFE00
FFFFFE0000000000000000000003FFFFFE00
FFFFFE0000000000000000000003FFFFFE00
FFFFFE0000000000000000000001FFFFFF00
FFFFFE0000000000000000000001FFFFFF00
FFFFFE0000000000000000000000FFFFFF00
FFFFFE0000000000000000000000FFFFFF00
FFFFFE00000000000000000000007FFFFF80
FFFFFE00000000000000000000007FFFFF80
FFFFFE00000000000000000000003FFFFF80
FFFFFE00000000000000000000003FFFFF80
FFFFFE00000000000000000000003FFFFFC0
FFFFFE00000000000000000000003FFFFFC0
FFFFFF00000000000000000000001FFFFFC0
FFFFFF00000000000000000000001FFFFFC0
FFFFFF00000000000000000000001FFFFFC0
FFFFFF80000000000000000000001FFFFFC0
7FFFFF80000000000000000000000FFFFFE0
7FFFFFC0000000000000000000000FFFFFE0
7FFFFFE0000000000000000000000FFFFFE0
7FFFFFF0000000000000000000000FFFFFE0
3FFFFFF8000000000000000000000FFFFFE0
3FFFFFFC000000000000000000000FFFFFE0
3FFFFFFF000000000000000000000FFFFFE0
1FFFFFFFF00000000000000000000FFFFFE0
1FFFFFFFFFFFFFFFFFFFFFFFFFFFFFFFFFE0
1FFFFFFFFFFFFFFFFFFFFFFFFFFFFFFFFFE0
0FFFFFFFFFFFFFFFFFFFFFFFFFFFFFFFFFE0
0FFFFFFFFFFFFFFFFFFFFFFFFFFFFFFFFFE0
07FFFFFFFFFFFFFFFFFFFFFFFFFFFFFFFFE0
03FFFFFFFFFFFFFFFFFFFFFFFFFFFFFFFFE0
03FFFFFFFFFFFFFFFFFFFFFFFFFFFFFFFFE0
01FFFFFFFFFFFFFFFFFFFFFFFFFFFFFFFFE0
00FFFFFFFFFFFFFFFFFFFFFFFFFFFFFFFFE0
007FFFFFFFFFFFFFFFFFFFFFFFFFFFFFFFE0
003FFFFFFFFFFFFFFFFFFFFFFFFFFFFFFFE0
001FFFFFFFFFFFFFFFFFFFFFFFFFFFFFFFE0
0007FFFFFFFFFFFFFFFFFFFFFFFFFFFFFFE0
0003FFFFFFFFFFFFFFFFFFFFFFFFFFFFFFE0
0000FFFFFFFFFFFFFFFFFFFFFFFFFFFFFFE0
00003FFFFFFFFFFFFFFFFFFFFFFFFFFFFFE0
000007FFFFFFFFFFFFFFFFFFFFFFFFFFFFE0
000000FFFFFFFFFFFFFFFFFFFFFFFFFFFFE0
00000003FFFFFFFFFFFFFFFFFFFFFFFFFFE0
00000000000000000000000000001FFFFFE0
00000000000000000000000000001FFFFFE0
00000000000000000000000000001FFFFFE0
00000000000000000000000000001FFFFFC0
00000000000000000000000000003FFFFFC0
00000000000000000000000000003FFFFFC0
00000000000000000000000000003FFFFFC0
00000000000000000000000000003FFFFFC0
00000000000000000000000000007FFFFF80
00000000000000000000000000007FFFFF80
00000000000000000000000000007FFFFF80
0000000000000000000000000000FFFFFF80
0000000000000000000000000000FFFFFF80
0000000000000000000000000001FFFFFF00
0000000000000000000000000001FFFFFF00
0000000000000000000000000003FFFFFF00
0000000000000000000000000007FFFFFE00
0000000000000000000000000007FFFFFE00
000000000000000000000000000FFFFFFE00
000000000000000000000000001FFFFFFC00
000000000000000000000000003FFFFFFC00
000000000000000000000000007FFFFFF800
00000000000000000000000000FFFFFFF800
00000000000000000000000003FFFFFFF800
0000000000000000000000000FFFFFFFF000
0000000000000000000000001FFFFFFFF000
000000000000000000000000FFFFFFFFE000
000000000000000000000007FFFFFFFFC000
00000000000000000000007FFFFFFFFFC000
0003FFFFFFFFFFFFFFFFFFFFFFFFFFFF8000
0003FFFFFFFFFFFFFFFFFFFFFFFFFFFF8000
0003FFFFFFFFFFFFFFFFFFFFFFFFFFFF0000
0003FFFFFFFFFFFFFFFFFFFFFFFFFFFE0000
0003FFFFFFFFFFFFFFFFFFFFFFFFFFFC0000
0003FFFFFFFFFFFFFFFFFFFFFFFFFFFC0000
0003FFFFFFFFFFFFFFFFFFFFFFFFFFF80000
0003FFFFFFFFFFFFFFFFFFFFFFFFFFF00000
0003FFFFFFFFFFFFFFFFFFFFFFFFFFE00000
0003FFFFFFFFFFFFFFFFFFFFFFFFFFC00000
0003FFFFFFFFFFFFFFFFFFFFFFFFFF800000
0003FFFFFFFFFFFFFFFFFFFFFFFFFE000000
0003FFFFFFFFFFFFFFFFFFFFFFFFFC000000
0003FFFFFFFFFFFFFFFFFFFFFFFFF8000000
0003FFFFFFFFFFFFFFFFFFFFFFFFE0000000
0003FFFFFFFFFFFFFFFFFFFFFFFF80000000
0003FFFFFFFFFFFFFFFFFFFFFFFF00000000
0003FFFFFFFFFFFFFFFFFFFFFFFC00000000
0003FFFFFFFFFFFFFFFFFFFFFFE000000000
0003FFFFFFFFFFFFFFFFFFFFFF0000000000
0003FFFFFFFFFFFFFFFFFFFFF80000000000
0003FFFFFFFFFFFFFFFFFFFF800000000000
0003FFFFFFFFFFFFFFFFFFC0000000000000
ENDCHAR
STARTCHAR colon
ENCODING 58
SWIDTH 262 0
DWIDTH 47 0
BBX 25 84 11 0
BITMAP
007F0000
03FFC000
07FFF000
0FFFF800
1FFFFC00
3FFFFE00
3FFFFE00
7FFFFF00
7FFFFF00
7FFFFF00
FFFFFF80
FFFFFF80
FFFFFF80
FFFFFF80
FFFFFF80
7FFFFF80
7FFFFF00
7FFFFF00
3FFFFE00
3FFFFE00
1FFFFC00
0FFFF800
07FFF000
03FFE000
007F0000
00000000
00000000
00000000
00000000
00000000
00000000
00000000
00000000
00000000
00000000
00000000
00000000
00000000
00000000
00000000
00000000
00000000
00000000
00000000
00000000
00000000
00000000
00000000
00000000
00000000
00000000
00000000
00000000
00000000
00000000
00000000
00000000
00000000
00000000
007F0000
03FFC000
07FFF000
0FFFF800
1FFFFC00
3FFFFE00
3FFFFE00
7FFFFF00
7FFFFF00
7FFFFF00
FFFFFF80
FFFFFF80
FFFFFF80
FFFFFF80
FFFFFF80
7FFFFF00
7FFFFF00
7FFFFF00
3FFFFE00
3FFFFE00
1FFFFC00
0FFFF800
07FFF000
03FFC000
007F0000
ENDCHAR
STARTCHAR semicolon
ENCODING 59
SWIDTH 262 0
DWIDTH 47 0
BBX 24 104 12 -21
BITMAP
00FE00
07FFC0
0FFFE0
1FFFF0
3FFFF8
7FFFFC
7FFFFE
FFFFFE
FFFFFE
FFFFFF
FFFFFF
FFFFFF
FFFFFF
FFFFFF
FFFFFF
FFFFFF
FFFFFE
FFFFFE
7FFFFE
7FFFFC
3FFFF8
1FFFF0
0FFFE0
03FFC0
00FE00
000000
000000
000000
000000
000000
000000
000000
000000
000000
000000
000000
000000
000000
000000
000000
000000
000000
000000
000000
000000
000000
000000
000000
000000
000000
000000
000000
000000
000000
000000
000000
000000
FFFFFE
FFFFFE
FFFFFE
FFFFFE
FFFFFC
FFFFFC
FFFFFC
FFFFFC
FFFFFC
FFFFF8
FFFFF8
FFFFF8
FFFFF8
FFFFF8
FFFFF8
FFFFF0
FFFFF0
FFFFF0
FFFFF0
FFFFF0
FFFFE0
FFFFE0
FFFFE0
FFFFE0
FFFFE0
FFFFC0
FFFFC0
FFFFC0
FFFFC0
FFFFC0
FFFF80
FFFF80
FFFF80
FFFF80
FFFF80
FFFF80
FFFF00
FFFF00
FFFF00
FFFF00
FFFF00
FFFE00
FFFE00
FFFE00
FFFE00
FFFE00
FFFC00
ENDCHAR
STARTCHAR less
ENCODING 60
SWIDTH 690 0
DWIDTH 124 0
BBX 102 97 11 18
BITMAP
0000000000000000000000000C
0000000000000000000000003C
000000000000000000000000FC
000000000000000000000007FC
00000000000000000000001FFC
0000000000000000000000FFFC
0000000000000000000003FFFC
000000000000000000000FFFFC
000000000000000000007FFFFC
00000000000000000001FFFFFC
0000000000000000000FFFFFFC
0000000000000000003FFFFFFC
000000000000000000FFFFFFFC
000000000000000007FFFFFFFC
00000000000000001FFFFFFFFC
00000000000000007FFFFFFFFC
0000000000000003FFFFFFFFF8
000000000000000FFFFFFFFFE0
000000000000007FFFFFFFFF00
00000000000001FFFFFFFFFC00
00000000000007FFFFFFFFE000
0000000000003FFFFFFFFF0000
000000000000FFFFFFFFFC0000
000000000007FFFFFFFFE00000
00000000001FFFFFFFFF800000
00000000007FFFFFFFFC000000
0000000003FFFFFFFFF0000000
000000000FFFFFFFFF80000000
000000003FFFFFFFFE00000000
00000001FFFFFFFFF000000000
00000007FFFFFFFF8000000000
0000003FFFFFFFFE0000000000
000000FFFFFFFFF00000000000
000003FFFFFFFFC00000000000
00001FFFFFFFFE000000000000
00007FFFFFFFF8000000000000
0003FFFFFFFFC0000000000000
000FFFFFFFFF00000000000000
003FFFFFFFF800000000000000
01FFFFFFFFC000000000000000
07FFFFFFFF0000000000000000
0FFFFFFFF80000000000000000
1FFFFFFFE00000000000000000
3FFFFFFF000000000000000000
7FFFFFFC000000000000000000
7FFFFFE0000000000000000000
7FFFFF80000000000000000000
FFFFFC00000000000000000000
FFFFF000000000000000000000
FFFFFE00000000000000000000
7FFFFF80000000000000000000
7FFFFFF0000000000000000000
7FFFFFFC000000000000000000
3FFFFFFF800000000000000000
1FFFFFFFE00000000000000000
0FFFFFFFFC0000000000000000
03FFFFFFFF0000000000000000
00FFFFFFFFE000000000000000
003FFFFFFFFC00000000000000
0007FFFFFFFF00000000000000
0001FFFFFFFFE0000000000000
00003FFFFFFFF8000000000000
00000FFFFFFFFF000000000000
000003FFFFFFFFC00000000000
0000007FFFFFFFF80000000000
0000001FFFFFFFFE0000000000
00000007FFFFFFFFC000000000
00000000FFFFFFFFF000000000
000000003FFFFFFFFE00000000
0000000007FFFFFFFF80000000
0000000001FFFFFFFFF0000000
00000000007FFFFFFFFC000000
00000000000FFFFFFFFF800000
000000000003FFFFFFFFF00000
000000000000FFFFFFFFFC0000
0000000000001FFFFFFFFF8000
00000000000007FFFFFFFFE000
00000000000000FFFFFFFFFC00
000000000000003FFFFFFFFF00
000000000000000FFFFFFFFFE0
0000000000000001FFFFFFFFF8
00000000000000007FFFFFFFFC
00000000000000001FFFFFFFFC
000000000000000003FFFFFFFC
000000000000000000FFFFFFFC
0000000000000000001FFFFFFC
00000000000000000007FFFFFC
00000000000000000001FFFFFC
000000000000000000003FFFFC
000000000000000000000FFFFC
0000000000000000000003FFFC
00000000000000000000007FFC
00000000000000000000001FFC
000000000000000000000003FC
000000000000000000000000FC
0000000000000000000000003C
00000000000000000000000004
ENDCHAR
STARTCHAR equal
ENCODING 61
SWIDTH 690 0
DWIDTH 124 0
BBX 102 64 11 35
BITMAP
FFFFFFFFFFFFFFFFFFFFFFFFFC
FFFFFFFFFFFFFFFFFFFFFFFFFC
FFFFFFFFFFFFFFFFFFFFFFFFFC
FFFFFFFFFFFFFFFFFFFFFFFFFC
FFFFFFFFFFFFFFFFFFFFFFFFFC
FFFFFFFFFFFFFFFFFFFFFFFFFC
FFFFFFFFFFFFFFFFFFFFFFFFFC
FFFFFFFFFFFFFFFFFFFFFFFFFC
FFFFFFFFFFFFFFFFFFFFFFFFFC
FFFFFFFFFFFFFFFFFFFFFFFFFC
FFFFFFFFFFFFFFFFFFFFFFFFFC
FFFFFFFFFFFFFFFFFFFFFFFFFC
FFFFFFFFFFFFFFFFFFFFFFFFFC
FFFFFFFFFFFFFFFFFFFFFFFFFC
FFFFFFFFFFFFFFFFFFFFFFFFFC
00000000000000000000000000
00000000000000000000000000
00000000000000000000000000
00000000000000000000000000
00000000000000000000000000
00000000000000000000000000
00000000000000000000000000
00000000000000000000000000
00000000000000000000000000
00000000000000000000000000
00000000000000000000000000
00000000000000000000000000
00000000000000000000000000
00000000000000000000000000
00000000000000000000000000
00000000000000000000000000
00000000000000000000000000
00000000000000000000000000
00000000000000000000000000
00000000000000000000000000
00000000000000000000000000
00000000000000000000000000
00000000000000000000000000
00000000000000000000000000
00000000000000000000000000
00000000000000000000000000
00000000000000000000000000
00000000000000000000000000
00000000000000000000000000
00000000000000000000000000
00000000000000000000000000
00000000000000000000000000
00000000000000000000000000
00000000000000000000000000
FFFFFFFFFFFFFFFFFFFFFFFFFC
FFFFFFFFFFFFFFFFFFFFFFFFFC
FFFFFFFFFFFFFFFFFFFFFFFFFC
FFFFFFFFFFFFFFFFFFFFFFFFFC
FFFFFFFFFFFFFFFFFFFFFFFFFC
FFFFFFFFFFFFFFFFFFFFFFFFFC
FFFFFFFFFFFFFFFFFFFFFFFFFC
FFFFFFFFFFFFFFFFFFFFFFFFFC
FFFFFFFFFFFFFFFFFFFFFFFFFC
FFFFFFFFFFFFFFFFFFFFFFFFFC
FFFFFFFFFFFFFFFFFFFFFFFFFC
FFFFFFFFFFFFFFFFFFFFFFFFFC
FFFFFFFFFFFFFFFFFFFFFFFFFC
FFFFFFFFFFFFFFFFFFFFFFFFFC
FFFFFFFFFFFFFFFFFFFFFFFFFC
ENDCHAR
STARTCHAR greater
ENCODING 62
SWIDTH 690 0
DWIDTH 124 0
BBX 102 97 11 18
BITMAP
C0000000000000000000000000
F0000000000000000000000000
FE000000000000000000000000
FF800000000000000000000000
FFE00000000000000000000000
FFFC0000000000000000000000
FFFF0000000000000000000000
FFFFE000000000000000000000
FFFFF800000000000000000000
FFFFFE00000000000000000000
FFFFFFC0000000000000000000
FFFFFFF0000000000000000000
FFFFFFFC000000000000000000
FFFFFFFF800000000000000000
FFFFFFFFE00000000000000000
FFFFFFFFFC0000000000000000
7FFFFFFFFF0000000000000000
0FFFFFFFFFC000000000000000
03FFFFFFFFF800000000000000
007FFFFFFFFE00000000000000
001FFFFFFFFFC0000000000000
0003FFFFFFFFF0000000000000
0000FFFFFFFFFC000000000000
00001FFFFFFFFF800000000000
000007FFFFFFFFE00000000000
000000FFFFFFFFF80000000000
0000003FFFFFFFFF0000000000
00000007FFFFFFFFC000000000
00000000FFFFFFFFF800000000
000000003FFFFFFFFE00000000
0000000007FFFFFFFF80000000
0000000001FFFFFFFFF0000000
00000000003FFFFFFFFC000000
00000000000FFFFFFFFF800000
000000000001FFFFFFFFE00000
0000000000003FFFFFFFF80000
0000000000000FFFFFFFFF0000
00000000000001FFFFFFFFC000
000000000000007FFFFFFFF000
000000000000000FFFFFFFFE00
0000000000000003FFFFFFFF80
00000000000000007FFFFFFFC0
00000000000000001FFFFFFFE0
000000000000000003FFFFFFF0
0000000000000000007FFFFFF8
0000000000000000001FFFFFF8
00000000000000000003FFFFFC
00000000000000000000FFFFFC
000000000000000000003FFFFC
00000000000000000001FFFFFC
00000000000000000007FFFFFC
0000000000000000003FFFFFF8
000000000000000000FFFFFFF8
000000000000000007FFFFFFF0
00000000000000001FFFFFFFE0
0000000000000000FFFFFFFFC0
0000000000000003FFFFFFFF00
000000000000001FFFFFFFFC00
000000000000007FFFFFFFF000
00000000000003FFFFFFFF8000
0000000000000FFFFFFFFE0000
0000000000007FFFFFFFF80000
000000000001FFFFFFFFC00000
00000000000FFFFFFFFF000000
00000000003FFFFFFFFC000000
0000000001FFFFFFFFE0000000
000000000FFFFFFFFF80000000
000000003FFFFFFFFC00000000
00000001FFFFFFFFF000000000
00000007FFFFFFFFC000000000
0000003FFFFFFFFE0000000000
000000FFFFFFFFF80000000000
000007FFFFFFFFE00000000000
00001FFFFFFFFF000000000000
0000FFFFFFFFFC000000000000
0003FFFFFFFFE0000000000000
001FFFFFFFFF80000000000000
007FFFFFFFFE00000000000000
03FFFFFFFFF000000000000000
0FFFFFFFFFC000000000000000
7FFFFFFFFF0000000000000000
FFFFFFFFF80000000000000000
FFFFFFFFE00000000000000000
FFFFFFFF000000000000000000
FFFFFFFC000000000000000000
FFFFFFF0000000000000000000
FFFFFF80000000000000000000
FFFFFE00000000000000000000
FFFFF800000000000000000000
FFFFC000000000000000000000
FFFF0000000000000000000000
FFF80000000000000000000000
FFE00000000000000000000000
FF800000000000000000000000
FC000000000000000000000000
F0000000000000000000000000
C0000000000000000000000000
ENDCHAR
STARTCHAR question
ENCODING 63
SWIDTH 776 0
DWIDTH 140 0
BBX 126 131 8 0
BITMAP
FFFFFFFFFFFFFFFFFFFFFFFC00000000
FFFFFFFFFFFFFFFFFFFFFFFFF0000000
FFFFFFFFFFFFFFFFFFFFFFFFFE000000
FFFFFFFFFFFFFFFFFFFFFFFFFFC00000
FFFFFFFFFFFFFFFFFFFFFFFFFFF00000
FFFFFFFFFFFFFFFFFFFFFFFFFFFC0000
FFFFFFFFFFFFFFFFFFFFFFFFFFFE0000
FFFFFFFFFFFFFFFFFFFFFFFFFFFF8000
FFFFFFFFFFFFFFFFFFFFFFFFFFFFC000
FFFFFFFFFFFFFFFFFFFFFFFFFFFFE000
FFFFFFFFFFFFFFFFFFFFFFFFFFFFF000
FFFFFFFFFFFFFFFFFFFFFFFFFFFFF800
FFFFFFFFFFFFFFFFFFFFFFFFFFFFFC00
FFFFFFFFFFFFFFFFFFFFFFFFFFFFFE00
FFFFFFFFFFFFFFFFFFFFFFFFFFFFFF00
FFFFFFFFFFFFFFFFFFFFFFFFFFFFFF80
FFFFFFFFFFFFFFFFFFFFFFFFFFFFFF80
FFFFFFFFFFFFFFFFFFFFFFFFFFFFFFC0
FFFFFFFFFFFFFFFFFFFFFFFFFFFFFFC0
FFFFFFFFFFFFFFFFFFFFFFFFFFFFFFE0
FFFFFFFFFFFFFFFFFFFFFFFFFFFFFFE0
FFFFFFFFFFFFFFFFFFFFFFFFFFFFFFF0
FFFFFFFFFFFFFFFFFFFFFFFFFFFFFFF0
00000000000000000000000FFFFFFFF0
000000000000000000000001FFFFFFF8
0000000000000000000000007FFFFFF8
0000000000000000000000003FFFFFF8
0000000000000000000000001FFFFFF8
0000000000000000000000000FFFFFFC
00000000000000000000000007FFFFFC
00000000000000000000000007FFFFFC
00000000000000000000000003FFFFFC
00000000000000000000000003FFFFFC
00000000000000000000000003FFFFFC
00000000000000000000000001FFFFFC
00000000000000000000000001FFFFFC
00000000000000000000000001FFFFFC
00000000000000000000000001FFFFFC
00000000000000000000000001FFFFFC
00000000000000000000000001FFFFFC
00000000000000000000000001FFFFFC
00000000000000000000000001FFFFFC
00000000000000000000000003FFFFFC
00000000000000000000000003FFFFFC
00000000000000000000000003FFFFF8
00000000000000000000000007FFFFF8
00000000000000000000000007FFFFF8
0000000000000000000000000FFFFFF8
0000000000000000000000001FFFFFF0
0000000000000000000000003FFFFFF0
000000000000000000000000FFFFFFE0
000000000000000000000001FFFFFFE0
00000000000000000000001FFFFFFFE0
000000001FFFFFFFFFFFFFFFFFFFFFC0
00000003FFFFFFFFFFFFFFFFFFFFFF80
0000001FFFFFFFFFFFFFFFFFFFFFFF80
0000007FFFFFFFFFFFFFFFFFFFFFFF00
000001FFFFFFFFFFFFFFFFFFFFFFFF00
000007FFFFFFFFFFFFFFFFFFFFFFFE00
00000FFFFFFFFFFFFFFFFFFFFFFFFC00
00001FFFFFFFFFFFFFFFFFFFFFFFF800
00003FFFFFFFFFFFFFFFFFFFFFFFF000
00007FFFFFFFFFFFFFFFFFFFFFFFE000
00007FFFFFFFFFFFFFFFFFFFFFFFC000
0000FFFFFFFFFFFFFFFFFFFFFFFF0000
0001FFFFFFFFFFFFFFFFFFFFFFFE0000
0001FFFFFFFFFFFFFFFFFFFFFFF80000
0003FFFFFFFFFFFFFFFFFFFFFFE00000
0003FFFFFFFFFFFFFFFFFFFFFF800000
0003FFFFFFFFFFFFFFFFFFFFFE000000
0007FFFFFFFFFFFFFFFFFFFFE0000000
0007FFFFFFFFFFFFFFFFFFFC00000000
0007FFFFFC0000000000000000000000
0007FFFFF00000000000000000000000
000FFFFFE00000000000000000000000
000FFFFFE00000000000000000000000
000FFFFFC00000000000000000000000
000FFFFFC00000000000000000000000
000FFFFFC00000000000000000000000
000FFFFFC00000000000000000000000
000FFFFFC00000000000000000000000
000FFFFFC00000000000000000000000
000FFFFFC00000000000000000000000
000FFFFFC00000000000000000000000
000FFFFFC00000000000000000000000
000FFFFFC00000000000000000000000
000FFFFFC00000000000000000000000
00000000000000000000000000000000
00000000000000000000000000000000
00000000000000000000000000000000
00000000000000000000000000000000
00000000000000000000000000000000
00000000000000000000000000000000
00000000000000000000000000000000
00000000000000000000000000000000
00000000000000000000000000000000
00000000000000000000000000000000
00000000000000000000000000000000
00000000000000000000000000000000
00000000000000000000000000000000
00000000000000000000000000000000
00000000000000000000000000000000
00000000000000000000000000000000
00000000000000000000000000000000
00000000000000000000000000000000
00000000000000000000000000000000
00000FE0000000000000000000000000
00007FFC000000000000000000000000
0000FFFE000000000000000000000000
0001FFFF000000000000000000000000
0003FFFF800000000000000000000000
0007FFFFC00000000000000000000000
000FFFFFC00000000000000000000000
000FFFFFE00000000000000000000000
000FFFFFE00000000000000000000000
001FFFFFE00000000000000000000000
001FFFFFE00000000000000000000000
001FFFFFF00000000000000000000000
001FFFFFF00000000000000000000000
001FFFFFF00000000000000000000000
001FFFFFE00000000000000000000000
001FFFFFE00000000000000000000000
000FFFFFE00000000000000000000000
000FFFFFE00000000000000000000000
000FFFFFC00000000000000000000000
0007FFFFC00000000000000000000000
0003FFFF800000000000000000000000
0001FFFF000000000000000000000000
0000FFFE000000000000000000000000
00007FFC000000000000000000000000
00001FE0000000000000000000000000
ENDCHAR
STARTCHAR at
ENCODING 64
SWIDTH 833 0
DWIDTH 150 0
BBX 131 131 8 0
BITMAP
000000000000007FFFFFFFFFFFFFFFFFE0
0000000000001FFFFFFFFFFFFFFFFFFFE0
000000000001FFFFFFFFFFFFFFFFFFFFE0
00000000001FFFFFFFFFFFFFFFFFFFFFE0
00000000007FFFFFFFFFFFFFFFFFFFFFE0
0000000003FFFFFFFFFFFFFFFFFFFFFFE0
000000000FFFFFFFFFFFFFFFFFFFFFFFE0
000000003FFFFFFFFFFFFFFFFFFFFFFFE0
00000000FFFFFFFFFFFFFFFFFFFFFFFFE0
00000001FFFFFFFFFFFFFFFFFFFFFFFFE0
00000007FFFFFFFFFFFFFFFFFFFFFFFFE0
0000001FFFFFFFFFFFFFFFFFFFFFFFFFE0
0000003FFFFFFFFFFFFFFFFFFFFFFFFFE0
0000007FFFFFFFFFFFFFFFFFFFFFFFFFE0
000000FFFFFFFFFFFFFFFFFFFFFFFFFFE0
000003FFFFFFFFFFFFFFFFFFFFFFFFFFE0
000007FFFFFFFFFFFFFFFFFFFFFFFFFFE0
00000FFFFFFFFF800000000000007FFFE0
00001FFFFFFFF0000000000000007FFFE0
00003FFFFFFF00000000000000007FFFE0
00007FFFFFF800000000000000007FFFE0
0000FFFFFFE000000000000000007FFFE0
0001FFFFFF8000000000000000007FFFE0
0001FFFFFE0000000000000000007FFFE0
0003FFFFF80000000000000000007FFFE0
0007FFFFF00000000000000000007FFFE0
000FFFFFC00000000000000000007FFFE0
000FFFFF800000000000000000007FFFE0
001FFFFF000000000000000000007FFFE0
003FFFFE000000000000000000007FFFE0
003FFFFC000000000000000000007FFFE0
007FFFF8000000000000000000007FFFE0
00FFFFF0000000000000000000007FFFE0
00FFFFE0000000000000000000007FFFE0
01FFFFC0000000000000000000007FFFE0
01FFFF80000000000000000000007FFFE0
03FFFF800000007FFFFFFFFFC0007FFFE0
03FFFF00000003FFFFFFFFFFC0007FFFE0
07FFFE0000001FFFFFFFFFFFC0007FFFE0
07FFFE0000003FFFFFFFFFFFC0007FFFE0
07FFFC000000FFFFFFFFFFFFC0007FFFE0
0FFFFC000001FFFFFFFFFFFFC0007FFFE0
0FFFF8000003FFFFFFFFFFFFC0007FFFE0
1FFFF8000007FFFFFFFFFFFFC0007FFFE0
1FFFF800000FFFFFFFFFFFFFC0007FFFE0
1FFFF000001FFFFFFFFFFFFFC0007FFFE0
3FFFF000003FFFFFFFFFFFFFC0007FFFE0
3FFFE000003FFFFFFFFFFFFFC0007FFFE0
3FFFE000007FFFFFFFFFFFFFC0007FFFE0
3FFFE000007FFFFE00001FFFC0007FFFE0
7FFFC00000FFFFF000001FFFC0007FFFE0
7FFFC00000FFFFC000001FFFC0007FFFE0
7FFFC00001FFFF8000001FFFC0007FFFE0
7FFFC00001FFFF0000001FFFC0007FFFE0
7FFFC00003FFFE0000001FFFC0007FFFE0
FFFF800003FFFC0000001FFFC0007FFFE0
FFFF800003FFFC0000001FFFC0007FFFE0
FFFF800003FFF80000001FFFC0007FFFE0
FFFF800007FFF80000001FFFC0007FFFE0
FFFF800007FFF80000001FFFC0007FFFE0
FFFF800007FFF80000001FFFC0007FFFE0
FFFF800007FFF00000001FFFC0007FFFE0
FFFF800007FFF00000001FFFC0007FFFE0
FFFF800007FFF00000001FFFC0007FFFE0
FFFF800007FFF00000001FFFC0007FFFE0
FFFF800007FFF00000001FFFC0007FFFE0
FFFF800007FFF00000001FFFC0007FFFE0
FFFF800007FFF00000001FFFC0007FFFE0
FFFF800007FFF00000001FFFC0007FFFE0
FFFF800007FFF00000001FFFC0007FFFE0
FFFF800007FFF80000001FFFC0007FFFE0
FFFF800007FFF80000001FFFC0007FFFE0
FFFF800007FFF80000001FFFC0007FFFE0
FFFF800003FFFC0000001FFFC0007FFFE0
FFFF800003FFFC0000001FFFC0007FFFE0
FFFF800003FFFE0000001FFFC0007FFFE0
FFFFC00003FFFF0000001FFFC0007FFFE0
FFFFC00001FFFF0000001FFFC0007FFFE0
FFFFC00001FFFF8000001FFFC0007FFFE0
7FFFC00001FFFFE000001FFFC0007FFFE0
7FFFE00000FFFFF000001FFFC0007FFFE0
7FFFE00000FFFFFE00001FFFC0007FFFE0
7FFFE000007FFFFFFFFFFFFFFFFFFFFFE0
7FFFE000007FFFFFFFFFFFFFFFFFFFFFE0
3FFFF000003FFFFFFFFFFFFFFFFFFFFFE0
3FFFF000001FFFFFFFFFFFFFFFFFFFFFE0
3FFFF800001FFFFFFFFFFFFFFFFFFFFFE0
3FFFF800000FFFFFFFFFFFFFFFFFFFFFE0
1FFFF8000007FFFFFFFFFFFFFFFFFFFFE0
1FFFFC000003FFFFFFFFFFFFFFFFFFFFE0
1FFFFC000001FFFFFFFFFFFFFFFFFFFFE0
0FFFFE000000FFFFFFFFFFFFFFFFFFFFE0
0FFFFF0000003FFFFFFFFFFFFFFFFFFFE0
07FFFF0000000FFFFFFFFFFFFFFFFFFFE0
07FFFF80000003FFFFFFFFFFFFFFFFFFE0
07FFFFC00000003FFFFFFFFFFFFFFFFFE0
03FFFFC000000000000000000000000000
03FFFFE000000000000000000000000000
01FFFFF000000000000000000000000000
00FFFFF800000000000000000000000000
00FFFFFC00000000000000000000000000
007FFFFE00000000000000000000000000
007FFFFF00000000000000000000000000
003FFFFF80000000000000000000000000
001FFFFFC0000000000000000000000000
001FFFFFF0000000000000000000000000
000FFFFFF8000000000000000000000000
0007FFFFFE000000000000000000000000
0003FFFFFF800000000000000000000000
0003FFFFFFE00000000000000000000000
0001FFFFFFF80000000000000000000000
0000FFFFFFFF0000000000000000000000
00007FFFFFFFF000000000000000000000
00003FFFFFFFFF80000000000000000000
00001FFFFFFFFFFFFFFFFFFFFFFFFFFFE0
00000FFFFFFFFFFFFFFFFFFFFFFFFFFFE0
000003FFFFFFFFFFFFFFFFFFFFFFFFFFE0
000001FFFFFFFFFFFFFFFFFFFFFFFFFFE0
000000FFFFFFFFFFFFFFFFFFFFFFFFFFE0
0000003FFFFFFFFFFFFFFFFFFFFFFFFFE0
0000001FFFFFFFFFFFFFFFFFFFFFFFFFE0
00000007FFFFFFFFFFFFFFFFFFFFFFFFE0
00000001FFFFFFFFFFFFFFFFFFFFFFFFE0
00000000FFFFFFFFFFFFFFFFFFFFFFFFE0
000000003FFFFFFFFFFFFFFFFFFFFFFFE0
0000000007FFFFFFFFFFFFFFFFFFFFFFE0
0000000001FFFFFFFFFFFFFFFFFFFFFFE0
00000000003FFFFFFFFFFFFFFFFFFFFFE0
000000000007FFFFFFFFFFFFFFFFFFFFE0
0000000000003FFFFFFFFFFFFFFFFFFFE0
00000000000000FFFFFFFFFFFFFFFFFFE0
ENDCHAR
STARTCHAR A
ENCODING 65
SWIDTH 989 0
DWIDTH 178 0
BBX 172 133 3 0
BITMAP
000000000000000000003F8000000000000000000000
00000000000000000000FFF000000000000000000000
00000000000000000001FFF800000000000000000000
00000000000000000003FFFC00000000000000000000
00000000000000000007FFFE00000000000000000000
0000000000000000000FFFFF00000000000000000000
0000000000000000001FFFFF00000000000000000000
0000000000000000001FFFFF80000000000000000000
0000000000000000003FFFFFC0000000000000000000
0000000000000000007FFFFFC0000000000000000000
0000000000000000007FFFFFE0000000000000000000
000000000000000000FFFFFFE0000000000000000000
000000000000000000FFFFFFF0000000000000000000
000000000000000001FFFFFFF8000000000000000000
000000000000000003FFFFFFF8000000000000000000
000000000000000003FFFFFFFC000000000000000000
000000000000000007FFFFFFFC000000000000000000
000000000000000007FFFFFFFE000000000000000000
00000000000000000FFFFFFFFF000000000000000000
00000000000000000FFFFFFFFF000000000000000000
00000000000000001FFFFFFFFF800000000000000000
00000000000000003FFFFFFFFF800000000000000000
00000000000000003FFFFFFFFFC00000000000000000
00000000000000007FFFFFFFFFE00000000000000000
00000000000000007FFFFFFFFFE00000000000000000
0000000000000000FFFFFFFFFFF00000000000000000
0000000000000001FFFFFFFFFFF00000000000000000
0000000000000001FFFFFFFFFFF80000000000000000
0000000000000003FFFFFFFFFFFC0000000000000000
0000000000000003FFFFFFFFFFFC0000000000000000
0000000000000007FFFFFFFFFFFE0000000000000000
000000000000000FFFFFFFFFFFFE0000000000000000
000000000000000FFFFFFFFFFFFF0000000000000000
000000000000001FFFFFFFFFFFFF8000000000000000
000000000000001FFFFFF3FFFFFF8000000000000000
000000000000003FFFFFE1FFFFFFC000000000000000
000000000000007FFFFFE1FFFFFFC000000000000000
000000000000007FFFFFC0FFFFFFE000000000000000
00000000000000FFFFFFC0FFFFFFF000000000000000
00000000000000FFFFFF807FFFFFF000000000000000
00000000000001FFFFFF003FFFFFF800000000000000
00000000000003FFFFFF003FFFFFF800000000000000
00000000000003FFFFFE001FFFFFFC00000000000000
00000000000007FFFFFE000FFFFFFE00000000000000
00000000000007FFFFFC000FFFFFFE00000000000000
0000000000000FFFFFF80007FFFFFF00000000000000
0000000000001FFFFFF80007FFFFFF00000000000000
0000000000001FFFFFF00003FFFFFF80000000000000
0000000000003FFFFFF00001FFFFFFC0000000000000
0000000000003FFFFFE00001FFFFFFC0000000000000
0000000000007FFFFFE00000FFFFFFE0000000000000
000000000000FFFFFFC00000FFFFFFE0000000000000
000000000000FFFFFF8000007FFFFFF0000000000000
000000000001FFFFFF8000003FFFFFF8000000000000
000000000001FFFFFF0000003FFFFFF8000000000000
000000000003FFFFFF0000001FFFFFFC000000000000
000000000007FFFFFE0000001FFFFFFC000000000000
000000000007FFFFFC0000000FFFFFFE000000000000
00000000000FFFFFFC00000007FFFFFF000000000000
00000000000FFFFFF800000007FFFFFF000000000000
00000000001FFFFFF800000003FFFFFF800000000000
00000000003FFFFFF000000003FFFFFF800000000000
00000000003FFFFFE000000001FFFFFFC00000000000
00000000007FFFFFE000000000FFFFFFE00000000000
00000000007FFFFFC000000000FFFFFFE00000000000
0000000000FFFFFFC0000000007FFFFFF00000000000
0000000001FFFFFF80000000007FFFFFF00000000000
0000000001FFFFFF00000000003FFFFFF80000000000
0000000003FFFFFF00000000001FFFFFFC0000000000
0000000003FFFFFE00000000001FFFFFFC0000000000
0000000007FFFFFE00000000000FFFFFFE0000000000
000000000FFFFFFC00000000000FFFFFFE0000000000
000000000FFFFFF8000000000007FFFFFF0000000000
000000001FFFFFF8000000000003FFFFFF8000000000
000000001FFFFFF0000000000003FFFFFF8000000000
000000003FFFFFF0000000000001FFFFFFC000000000
000000007FFFFFE0000000000001FFFFFFC000000000
000000007FFFFFE0000000000000FFFFFFE000000000
00000000FFFFFFC00000000000007FFFFFF000000000
00000000FFFFFF800000000000007FFFFFF000000000
00000001FFFFFF800000000000003FFFFFF800000000
00000003FFFFFF00003FFFFFFFFFFFFFFFF800000000
00000003FFFFFF00007FFFFFFFFFFFFFFFFC00000000
00000007FFFFFE00007FFFFFFFFFFFFFFFFE00000000
00000007FFFFFC0000FFFFFFFFFFFFFFFFFE00000000
0000000FFFFFFC0001FFFFFFFFFFFFFFFFFF00000000
0000001FFFFFF80001FFFFFFFFFFFFFFFFFF00000000
0000001FFFFFF80003FFFFFFFFFFFFFFFFFF80000000
0000003FFFFFF00003FFFFFFFFFFFFFFFFFFC0000000
0000003FFFFFE00007FFFFFFFFFFFFFFFFFFC0000000
0000007FFFFFE00007FFFFFFFFFFFFFFFFFFE0000000
000000FFFFFFC0000FFFFFFFFFFFFFFFFFFFE0000000
000000FFFFFFC0001FFFFFFFFFFFFFFFFFFFF0000000
000001FFFFFF80001FFFFFFFFFFFFFFFFFFFF8000000
000001FFFFFF00003FFFFFFFFFFFFFFFFFFFF8000000
000003FFFFFF00003FFFFFFFFFFFFFFFFFFFFC000000
000007FFFFFE00007FFFFFFFFFFFFFFFFFFFFC000000
000007FFFFFE00007FFFFFFFFFFFFFFFFFFFFE000000
00000FFFFFFC0000FFFFFFFFFFFFFFFFFFFFFF000000
00000FFFFFF80001FFFFFFFFFFFFFFFFFFFFFF000000
00001FFFFFF800000000000000000007FFFFFF800000
00003FFFFFF000000000000000000003FFFFFF800000
00003FFFFFF000000000000000000001FFFFFFC00000
00007FFFFFE000000000000000000001FFFFFFE00000
00007FFFFFE000000000000000000000FFFFFFE00000
0000FFFFFFC000000000000000000000FFFFFFF00000
0001FFFFFF80000000000000000000007FFFFFF00000
0001FFFFFF80000000000000000000003FFFFFF80000
0003FFFFFF00000000000000000000003FFFFFFC0000
0003FFFFFF00000000000000000000001FFFFFFC0000
0007FFFFFE00000000000000000000001FFFFFFE0000
000FFFFFFC00000000000000000000000FFFFFFE0000
000FFFFFFC000000000000000000000007FFFFFF0000
001FFFFFF8000000000000000000000007FFFFFF8000
001FFFFFF8000000000000000000000003FFFFFF8000
003FFFFFF0000000000000000000000003FFFFFFC000
007FFFFFE0000000000000000000000001FFFFFFC000
007FFFFFE0000000000000000000000000FFFFFFE000
00FFFFFFC0000000000000000000000000FFFFFFF000
00FFFFFFC00000000000000000000000007FFFFFF000
01FFFFFF800000000000000000000000007FFFFFF800
03FFFFFF000000000000000000000000003FFFFFF800
03FFFFFF000000000000000000000000001FFFFFFC00
07FFFFFE000000000000000000000000001FFFFFFE00
07FFFFFE000000000000000000000000000FFFFFFE00
0FFFFFFC000000000000000000000000000FFFFFFF00
1FFFFFF80000000000000000000000000007FFFFFF00
1FFFFFF80000000000000000000000000007FFFFFF80
3FFFFFF00000000000000000000000000003FFFFFFC0
3FFFFFF00000000000000000000000000001FFFFFFC0
7FFFFFE00000000000000000000000000001FFFFFFE0
FFFFFFE00000000000000000000000000000FFFFFFE0
FFFFFFC00000000000000000000000000000FFFFFFF0
ENDCHAR
STARTCHAR B
ENCODING 66
SWIDTH 891 0
DWIDTH 160 0
BBX 141 131 11 0
BITMAP
FFFFFFFFFFFFFFFFFFFFFFFFFF8000000000
FFFFFFFFFFFFFFFFFFFFFFFFFFFE00000000
FFFFFFFFFFFFFFFFFFFFFFFFFFFFC0000000
FFFFFFFFFFFFFFFFFFFFFFFFFFFFF8000000
FFFFFFFFFFFFFFFFFFFFFFFFFFFFFF000000
FFFFFFFFFFFFFFFFFFFFFFFFFFFFFFC00000
FFFFFFFFFFFFFFFFFFFFFFFFFFFFFFF00000
FFFFFFFFFFFFFFFFFFFFFFFFFFFFFFF80000
FFFFFFFFFFFFFFFFFFFFFFFFFFFFFFFE0000
FFFFFFFFFFFFFFFFFFFFFFFFFFFFFFFF0000
FFFFFFFFFFFFFFFFFFFFFFFFFFFFFFFF8000
FFFFFFFFFFFFFFFFFFFFFFFFFFFFFFFFC000
FFFFFFFFFFFFFFFFFFFFFFFFFFFFFFFFE000
FFFFFFFFFFFFFFFFFFFFFFFFFFFFFFFFF000
FFFFFFFFFFFFFFFFFFFFFFFFFFFFFFFFF800
FFFFFFFFFFFFFFFFFFFFFFFFFFFFFFFFF800
FFFFFFFFFFFFFFFFFFFFFFFFFFFFFFFFFC00
FFFFFFFFFFFFFFFFFFFFFFFFFFFFFFFFFC00
FFFFFFFFFFFFFFFFFFFFFFFFFFFFFFFFFE00
FFFFFFFFFFFFFFFFFFFFFFFFFFFFFFFFFE00
FFFFFFFFFFFFFFFFFFFFFFFFFFFFFFFFFF00
FFFFFFFFFFFFFFFFFFFFFFFFFFFFFFFFFF00
FFFFFFFFFFFFFFFFFFFFFFFFFFFFFFFFFF80
FFFFFE0000000000000000001FFFFFFFFF80
FFFFFE00000000000000000000FFFFFFFF80
FFFFFE000000000000000000001FFFFFFF80
FFFFFE0000000000000000000007FFFFFFC0
FFFFFE0000000000000000000003FFFFFFC0
FFFFFE0000000000000000000000FFFFFFC0
FFFFFE0000000000000000000000FFFFFFC0
FFFFFE00000000000000000000007FFFFFC0
FFFFFE00000000000000000000003FFFFFC0
FFFFFE00000000000000000000003FFFFFC0
FFFFFE00000000000000000000003FFFFFC0
FFFFFE00000000000000000000001FFFFFC0
FFFFFE00000000000000000000001FFFFFC0
FFFFFE00000000000000000000001FFFFFC0
FFFFFE00000000000000000000001FFFFFC0
FFFFFE00000000000000000000001FFFFFC0
FFFFFE00000000000000000000001FFFFFC0
FFFFFE00000000000000000000001FFFFFC0
FFFFFE00000000000000000000001FFFFFC0
FFFFFE00000000000000000000001FFFFFC0
FFFFFE00000000000000000000001FFFFF80
FFFFFE00000000000000000000001FFFFF80
FFFFFE00000000000000000000003FFFFF80
FFFFFE00000000000000000000003FFFFF00
FFFFFE00000000000000000000003FFFFF00
FFFFFE00000000000000000000007FFFFF00
FFFFFE0000000000000000000000FFFFFE00
FFFFFE0000000000000000000001FFFFFE00
FFFFFE0000000000000000000003FFFFFC00
FFFFFE0000000000000000000007FFFFF800
FFFFFE000000000000000000001FFFFFF800
FFFFFE00000000000000000001FFFFFFF000
FFFFFE0000FFFFFFFFFFFFFFFFFFFFFFE000
FFFFFE0000FFFFFFFFFFFFFFFFFFFFFFC000
FFFFFE0000FFFFFFFFFFFFFFFFFFFFFF8000
FFFFFE0000FFFFFFFFFFFFFFFFFFFFFE0000
FFFFFE0000FFFFFFFFFFFFFFFFFFFFFC0000
FFFFFE0000FFFFFFFFFFFFFFFFFFFFF00000
FFFFFE0000FFFFFFFFFFFFFFFFFFFF800000
FFFFFE0000FFFFFFFFFFFFFFFFFFFFC00000
FFFFFE0000FFFFFFFFFFFFFFFFFFFFF00000
FFFFFE0000FFFFFFFFFFFFFFFFFFFFFC0000
FFFFFE0000FFFFFFFFFFFFFFFFFFFFFF0000
FFFFFE0000FFFFFFFFFFFFFFFFFFFFFF8000
FFFFFE0000FFFFFFFFFFFFFFFFFFFFFFC000
FFFFFE0000FFFFFFFFFFFFFFFFFFFFFFF000
FFFFFE0000FFFFFFFFFFFFFFFFFFFFFFF800
FFFFFE0000FFFFFFFFFFFFFFFFFFFFFFF800
FFFFFE0000FFFFFFFFFFFFFFFFFFFFFFFC00
FFFFFE0000FFFFFFFFFFFFFFFFFFFFFFFE00
FFFFFE0000FFFFFFFFFFFFFFFFFFFFFFFF00
FFFFFE00000000000000000000FFFFFFFF00
FFFFFE000000000000000000001FFFFFFF80
FFFFFE0000000000000000000003FFFFFFC0
FFFFFE0000000000000000000001FFFFFFC0
FFFFFE00000000000000000000007FFFFFC0
FFFFFE00000000000000000000003FFFFFE0
FFFFFE00000000000000000000003FFFFFE0
FFFFFE00000000000000000000001FFFFFE0
FFFFFE00000000000000000000000FFFFFF0
FFFFFE00000000000000000000000FFFFFF0
FFFFFE000000000000000000000007FFFFF0
FFFFFE000000000000000000000007FFFFF0
FFFFFE000000000000000000000007FFFFF0
FFFFFE000000000000000000000007FFFFF8
FFFFFE000000000000000000000007FFFFF8
FFFFFE000000000000000000000007FFFFF8
FFFFFE000000000000000000000003FFFFF8
FFFFFE000000000000000000000007FFFFF8
FFFFFE000000000000000000000007FFFFF8
FFFFFE000000000000000000000007FFFFF8
FFFFFE000000000000000000000007FFFFF8
FFFFFE000000000000000000000007FFFFF8
FFFFFE000000000000000000000007FFFFF0
FFFFFE00000000000000000000000FFFFFF0
FFFFFE00000000000000000000000FFFFFF0
FFFFFE00000000000000000000001FFFFFF0
FFFFFE00000000000000000000003FFFFFF0
FFFFFE00000000000000000000007FFFFFF0
FFFFFE0000000000000000000000FFFFFFE0
FFFFFE0000000000000000000001FFFFFFE0
FFFFFE0000000000000000000007FFFFFFE0
FFFFFE000000000000000000001FFFFFFFE0
FFFFFE00000000000000000000FFFFFFFFC0
FFFFFE0000000000000000001FFFFFFFFFC0
FFFFFFFFFFFFFFFFFFFFFFFFFFFFFFFFFF80
FFFFFFFFFFFFFFFFFFFFFFFFFFFFFFFFFF80
FFFFFFFFFFFFFFFFFFFFFFFFFFFFFFFFFF00
FFFFFFFFFFFFFFFFFFFFFFFFFFFFFFFFFF00
FFFFFFFFFFFFFFFFFFFFFFFFFFFFFFFFFE00
FFFFFFFFFFFFFFFFFFFFFFFFFFFFFFFFFE00
FFFFFFFFFFFFFFFFFFFFFFFFFFFFFFFFFC00
FFFFFFFFFFFFFFFFFFFFFFFFFFFFFFFFF800
FFFFFFFFFFFFFFFFFFFFFFFFFFFFFFFFF800
FFFFFFFFFFFFFFFFFFFFFFFFFFFFFFFFF000
FFFFFFFFFFFFFFFFFFFFFFFFFFFFFFFFE000
FFFFFFFFFFFFFFFFFFFFFFFFFFFFFFFFC000
FFFFFFFFFFFFFFFFFFFFFFFFFFFFFFFF8000
FFFFFFFFFFFFFFFFFFFFFFFFFFFFFFFF0000
FFFFFFFFFFFFFFFFFFFFFFFFFFFFFFFE0000
FFFFFFFFFFFFFFFFFFFFFFFFFFFFFFF80000
FFFFFFFFFFFFFFFFFFFFFFFFFFFFFFF00000
FFFFFFFFFFFFFFFFFFFFFFFFFFFFFFC00000
FFFFFFFFFFFFFFFFFFFFFFFFFFFFFF000000
FFFFFFFFFFFFFFFFFFFFFFFFFFFFFC000000
FFFFFFFFFFFFFFFFFFFFFFFFFFFFE0000000
FFFFFFFFFFFFFFFFFFFFFFFFFFFF00000000
FFFFFFFFFFFFFFFFFFFFFFFFFFE000000000
ENDCHAR
STARTCHAR C
ENCODING 67
SWIDTH 829 0
DWIDTH 149 0
BBX 134 131 8 0
BITMAP
00000000000003FFFFFFFFFFFFFFFFFFFC
000000000000FFFFFFFFFFFFFFFFFFFFFC
00000000000FFFFFFFFFFFFFFFFFFFFFFC
00000000007FFFFFFFFFFFFFFFFFFFFFFC
0000000003FFFFFFFFFFFFFFFFFFFFFFFC
000000000FFFFFFFFFFFFFFFFFFFFFFFFC
000000007FFFFFFFFFFFFFFFFFFFFFFFFC
00000001FFFFFFFFFFFFFFFFFFFFFFFFFC
00000003FFFFFFFFFFFFFFFFFFFFFFFFFC
0000000FFFFFFFFFFFFFFFFFFFFFFFFFFC
0000003FFFFFFFFFFFFFFFFFFFFFFFFFFC
0000007FFFFFFFFFFFFFFFFFFFFFFFFFFC
000000FFFFFFFFFFFFFFFFFFFFFFFFFFFC
000003FFFFFFFFFFFFFFFFFFFFFFFFFFFC
000007FFFFFFFFFFFFFFFFFFFFFFFFFFFC
00000FFFFFFFFFFFFFFFFFFFFFFFFFFFFC
00001FFFFFFFFFFFFFFFFFFFFFFFFFFFFC
00003FFFFFFFFFFFFFFFFFFFFFFFFFFFFC
00007FFFFFFFFFFFFFFFFFFFFFFFFFFFFC
0000FFFFFFFFFFFFFFFFFFFFFFFFFFFFFC
0001FFFFFFFFFFFFFFFFFFFFFFFFFFFFFC
0003FFFFFFFFFFFFFFFFFFFFFFFFFFFFFC
0007FFFFFFFFFFFFFFFFFFFFFFFFFFFFFC
000FFFFFFFFFFF00000000000000000000
000FFFFFFFFFE000000000000000000000
001FFFFFFFFF0000000000000000000000
003FFFFFFFFC0000000000000000000000
003FFFFFFFF00000000000000000000000
007FFFFFFFC00000000000000000000000
00FFFFFFFF000000000000000000000000
00FFFFFFFE000000000000000000000000
01FFFFFFFC000000000000000000000000
01FFFFFFF0000000000000000000000000
03FFFFFFE0000000000000000000000000
03FFFFFFC0000000000000000000000000
07FFFFFF80000000000000000000000000
07FFFFFF00000000000000000000000000
0FFFFFFF00000000000000000000000000
0FFFFFFE00000000000000000000000000
0FFFFFFC00000000000000000000000000
1FFFFFF800000000000000000000000000
1FFFFFF800000000000000000000000000
1FFFFFF000000000000000000000000000
3FFFFFF000000000000000000000000000
3FFFFFE000000000000000000000000000
3FFFFFE000000000000000000000000000
3FFFFFC000000000000000000000000000
7FFFFFC000000000000000000000000000
7FFFFF8000000000000000000000000000
7FFFFF8000000000000000000000000000
7FFFFF8000000000000000000000000000
7FFFFF0000000000000000000000000000
FFFFFF0000000000000000000000000000
FFFFFF0000000000000000000000000000
FFFFFF0000000000000000000000000000
FFFFFE0000000000000000000000000000
FFFFFE0000000000000000000000000000
FFFFFE0000000000000000000000000000
FFFFFE0000000000000000000000000000
FFFFFE0000000000000000000000000000
FFFFFE0000000000000000000000000000
FFFFFE0000000000000000000000000000
FFFFFC0000000000000000000000000000
FFFFFC0000000000000000000000000000
FFFFFC0000000000000000000000000000
FFFFFC0000000000000000000000000000
FFFFFC0000000000000000000000000000
FFFFFC0000000000000000000000000000
FFFFFE0000000000000000000000000000
FFFFFE0000000000000000000000000000
FFFFFE0000000000000000000000000000
FFFFFE0000000000000000000000000000
FFFFFE0000000000000000000000000000
FFFFFE0000000000000000000000000000
FFFFFE0000000000000000000000000000
FFFFFE0000000000000000000000000000
7FFFFF0000000000000000000000000000
7FFFFF0000000000000000000000000000
7FFFFF0000000000000000000000000000
7FFFFF0000000000000000000000000000
7FFFFF8000000000000000000000000000
7FFFFF8000000000000000000000000000
3FFFFFC000000000000000000000000000
3FFFFFC000000000000000000000000000
3FFFFFC000000000000000000000000000
1FFFFFE000000000000000000000000000
1FFFFFE000000000000000000000000000
1FFFFFF000000000000000000000000000
0FFFFFF000000000000000000000000000
0FFFFFF800000000000000000000000000
0FFFFFFC00000000000000000000000000
07FFFFFC00000000000000000000000000
07FFFFFE00000000000000000000000000
07FFFFFF00000000000000000000000000
03FFFFFF80000000000000000000000000
03FFFFFFC0000000000000000000000000
01FFFFFFC0000000000000000000000000
01FFFFFFE0000000000000000000000000
00FFFFFFF8000000000000000000000000
00FFFFFFFC000000000000000000000000
007FFFFFFE000000000000000000000000
003FFFFFFF800000000000000000000000
003FFFFFFFC00000000000000000000000
001FFFFFFFF00000000000000000000000
000FFFFFFFFC0000000000000000000000
000FFFFFFFFF0000000000000000000000
0007FFFFFFFFE000000000000000000000
0003FFFFFFFFFF00000000000000000000
0001FFFFFFFFFFFFFFFFFFFFFFFFFFFFFC
0000FFFFFFFFFFFFFFFFFFFFFFFFFFFFFC
0000FFFFFFFFFFFFFFFFFFFFFFFFFFFFFC
00007FFFFFFFFFFFFFFFFFFFFFFFFFFFFC
00003FFFFFFFFFFFFFFFFFFFFFFFFFFFFC
00001FFFFFFFFFFFFFFFFFFFFFFFFFFFFC
00000FFFFFFFFFFFFFFFFFFFFFFFFFFFFC
000007FFFFFFFFFFFFFFFFFFFFFFFFFFFC
000001FFFFFFFFFFFFFFFFFFFFFFFFFFFC
000000FFFFFFFFFFFFFFFFFFFFFFFFFFFC
0000007FFFFFFFFFFFFFFFFFFFFFFFFFFC
0000001FFFFFFFFFFFFFFFFFFFFFFFFFFC
0000000FFFFFFFFFFFFFFFFFFFFFFFFFFC
00000003FFFFFFFFFFFFFFFFFFFFFFFFFC
00000001FFFFFFFFFFFFFFFFFFFFFFFFFC
000000007FFFFFFFFFFFFFFFFFFFFFFFFC
000000001FFFFFFFFFFFFFFFFFFFFFFFFC
0000000007FFFFFFFFFFFFFFFFFFFFFFFC
0000000001FFFFFFFFFFFFFFFFFFFFFFFC
00000000003FFFFFFFFFFFFFFFFFFFFFFC
000000000007FFFFFFFFFFFFFFFFFFFFFC
0000000000007FFFFFFFFFFFFFFFFFFFFC
00000000000003FFFFFFFFFFFFFFFFFFFC
ENDCHAR
STARTCHAR D
ENCODING 68
SWIDTH 879 0
DWIDTH 158 0
BBX 140 131 11 0
BITMAP
FFFFFFFFFFFFFFFFFFFFF800000000000000
FFFFFFFFFFFFFFFFFFFFFFE0000000000000
FFFFFFFFFFFFFFFFFFFFFFFE000000000000
FFFFFFFFFFFFFFFFFFFFFFFFC00000000000
FFFFFFFFFFFFFFFFFFFFFFFFF80000000000
FFFFFFFFFFFFFFFFFFFFFFFFFF0000000000
FFFFFFFFFFFFFFFFFFFFFFFFFFC000000000
FFFFFFFFFFFFFFFFFFFFFFFFFFF000000000
FFFFFFFFFFFFFFFFFFFFFFFFFFFC00000000
FFFFFFFFFFFFFFFFFFFFFFFFFFFE00000000
FFFFFFFFFFFFFFFFFFFFFFFFFFFF80000000
FFFFFFFFFFFFFFFFFFFFFFFFFFFFC0000000
FFFFFFFFFFFFFFFFFFFFFFFFFFFFF0000000
FFFFFFFFFFFFFFFFFFFFFFFFFFFFF8000000
FFFFFFFFFFFFFFFFFFFFFFFFFFFFFC000000
FFFFFFFFFFFFFFFFFFFFFFFFFFFFFE000000
FFFFFFFFFFFFFFFFFFFFFFFFFFFFFF000000
FFFFFFFFFFFFFFFFFFFFFFFFFFFFFF800000
FFFFFFFFFFFFFFFFFFFFFFFFFFFFFFC00000
FFFFFFFFFFFFFFFFFFFFFFFFFFFFFFE00000
FFFFFFFFFFFFFFFFFFFFFFFFFFFFFFF00000
FFFFFFFFFFFFFFFFFFFFFFFFFFFFFFF80000
FFFFFFFFFFFFFFFFFFFFFFFFFFFFFFFC0000
FFFFFE000000000000001FFFFFFFFFFE0000
FFFFFE0000000000000000FFFFFFFFFF0000
FFFFFE00000000000000001FFFFFFFFF0000
FFFFFE000000000000000007FFFFFFFF8000
FFFFFE000000000000000001FFFFFFFFC000
FFFFFE0000000000000000007FFFFFFFC000
FFFFFE0000000000000000001FFFFFFFE000
FFFFFE0000000000000000000FFFFFFFE000
FFFFFE00000000000000000003FFFFFFF000
FFFFFE00000000000000000001FFFFFFF000
FFFFFE00000000000000000000FFFFFFF800
FFFFFE000000000000000000007FFFFFF800
FFFFFE000000000000000000003FFFFFFC00
FFFFFE000000000000000000001FFFFFFC00
FFFFFE000000000000000000000FFFFFFE00
FFFFFE0000000000000000000007FFFFFE00
FFFFFE0000000000000000000007FFFFFF00
FFFFFE0000000000000000000003FFFFFF00
FFFFFE0000000000000000000001FFFFFF00
FFFFFE0000000000000000000001FFFFFF80
FFFFFE0000000000000000000000FFFFFF80
FFFFFE0000000000000000000000FFFFFF80
FFFFFE00000000000000000000007FFFFFC0
FFFFFE00000000000000000000007FFFFFC0
FFFFFE00000000000000000000003FFFFFC0
FFFFFE00000000000000000000003FFFFFC0
FFFFFE00000000000000000000003FFFFFC0
FFFFFE00000000000000000000001FFFFFE0
FFFFFE00000000000000000000001FFFFFE0
FFFFFE00000000000000000000001FFFFFE0
FFFFFE00000000000000000000000FFFFFE0
FFFFFE00000000000000000000000FFFFFE0
FFFFFE00000000000000000000000FFFFFE0
FFFFFE00000000000000000000000FFFFFE0
FFFFFE00000000000000000000000FFFFFF0
FFFFFE000000000000000000000007FFFFF0
FFFFFE000000000000000000000007FFFFF0
FFFFFE000000000000000000000007FFFFF0
FFFFFE000000000000000000000007FFFFF0
FFFFFE000000000000000000000007FFFFF0
FFFFFE000000000000000000000007FFFFF0
FFFFFE000000000000000000000007FFFFF0
FFFFFE000000000000000000000007FFFFF0
FFFFFE000000000000000000000007FFFFF0
FFFFFE000000000000000000000007FFFFF0
FFFFFE000000000000000000000007FFFFF0
FFFFFE000000000000000000000007FFFFF0
FFFFFE000000000000000000000007FFFFF0
FFFFFE000000000000000000000007FFFFF0
FFFFFE00000000000000000000000FFFFFE0
FFFFFE00000000000000000000000FFFFFE0
FFFFFE00000000000000000000000FFFFFE0
FFFFFE00000000000000000000000FFFFFE0
FFFFFE00000000000000000000000FFFFFE0
FFFFFE00000000000000000000001FFFFFE0
FFFFFE00000000000000000000001FFFFFE0
FFFFFE00000000000000000000001FFFFFC0
FFFFFE00000000000000000000001FFFFFC0
FFFFFE00000000000000000000003FFFFFC0
FFFFFE00000000000000000000003FFFFFC0
FFFFFE00000000000000000000007FFFFF80
FFFFFE00000000000000000000007FFFFF80
FFFFFE00000000000000000000007FFFFF80
FFFFFE0000000000000000000000FFFFFF80
FFFFFE0000000000000000000000FFFFFF00
FFFFFE0000000000000000000001FFFFFF00
FFFFFE0000000000000000000003FFFFFE00
FFFFFE0000000000000000000003FFFFFE00
FFFFFE0000000000000000000007FFFFFE00
FFFFFE000000000000000000000FFFFFFC00
FFFFFE000000000000000000000FFFFFFC00
FFFFFE000000000000000000001FFFFFF800
FFFFFE000000000000000000003FFFFFF800
FFFFFE000000000000000000007FFFFFF000
FFFFFE00000000000000000000FFFFFFF000
FFFFFE00000000000000000001FFFFFFE000
FFFFFE00000000000000000007FFFFFFE000
FFFFFE0000000000000000000FFFFFFFC000
FFFFFE0000000000000000001FFFFFFFC000
FFFFFE0000000000000000007FFFFFFF8000
FFFFFE000000000000000001FFFFFFFF0000
FFFFFE000000000000000007FFFFFFFF0000
FFFFFE00000000000000001FFFFFFFFE0000
FFFFFE0000000000000000FFFFFFFFFC0000
FFFFFE000000000000000FFFFFFFFFFC0000
FFFFFFFFFFFFFFFFFFFFFFFFFFFFFFF80000
FFFFFFFFFFFFFFFFFFFFFFFFFFFFFFF00000
FFFFFFFFFFFFFFFFFFFFFFFFFFFFFFE00000
FFFFFFFFFFFFFFFFFFFFFFFFFFFFFFC00000
FFFFFFFFFFFFFFFFFFFFFFFFFFFFFF800000
FFFFFFFFFFFFFFFFFFFFFFFFFFFFFF000000
FFFFFFFFFFFFFFFFFFFFFFFFFFFFFE000000
FFFFFFFFFFFFFFFFFFFFFFFFFFFFFC000000
FFFFFFFFFFFFFFFFFFFFFFFFFFFFF8000000
FFFFFFFFFFFFFFFFFFFFFFFFFFFFF0000000
FFFFFFFFFFFFFFFFFFFFFFFFFFFFC0000000
FFFFFFFFFFFFFFFFFFFFFFFFFFFF80000000
FFFFFFFFFFFFFFFFFFFFFFFFFFFF00000000
FFFFFFFFFFFFFFFFFFFFFFFFFFFC00000000
FFFFFFFFFFFFFFFFFFFFFFFFFFF000000000
FFFFFFFFFFFFFFFFFFFFFFFFFFC000000000
FFFFFFFFFFFFFFFFFFFFFFFFFF8000000000
FFFFFFFFFFFFFFFFFFFFFFFFFC0000000000
FFFFFFFFFFFFFFFFFFFFFFFFF00000000000
FFFFFFFFFFFFFFFFFFFFFFFF800000000000
FFFFFFFFFFFFFFFFFFFFFFFE000000000000
FFFFFFFFFFFFFFFFFFFFFFE0000000000000
FFFFFFFFFFFFFFFFFFFFF000000000000000
ENDCHAR
STARTCHAR E
ENCODING 69
SWIDTH 759 0
DWIDTH 137 0
BBX 117 131 11 0
BITMAP
FFFFFFFFFFFFFFFFFFFFFFFFFFFFF8
FFFFFFFFFFFFFFFFFFFFFFFFFFFFF8
FFFFFFFFFFFFFFFFFFFFFFFFFFFFF8
FFFFFFFFFFFFFFFFFFFFFFFFFFFFF8
FFFFFFFFFFFFFFFFFFFFFFFFFFFFF8
FFFFFFFFFFFFFFFFFFFFFFFFFFFFF8
FFFFFFFFFFFFFFFFFFFFFFFFFFFFF8
FFFFFFFFFFFFFFFFFFFFFFFFFFFFF8
FFFFFFFFFFFFFFFFFFFFFFFFFFFFF8
FFFFFFFFFFFFFFFFFFFFFFFFFFFFF8
FFFFFFFFFFFFFFFFFFFFFFFFFFFFF8
FFFFFFFFFFFFFFFFFFFFFFFFFFFFF8
FFFFFFFFFFFFFFFFFFFFFFFFFFFFF8
FFFFFFFFFFFFFFFFFFFFFFFFFFFFF8
FFFFFFFFFFFFFFFFFFFFFFFFFFFFF8
FFFFFFFFFFFFFFFFFFFFFFFFFFFFF8
FFFFFFFFFFFFFFFFFFFFFFFFFFFFF8
FFFFFFFFFFFFFFFFFFFFFFFFFFFFF8
FFFFFFFFFFFFFFFFFFFFFFFFFFFFF8
FFFFFFFFFFFFFFFFFFFFFFFFFFFFF8
FFFFFFFFFFFFFFFFFFFFFFFFFFFFF8
FFFFFFFFFFFFFFFFFFFFFFFFFFFFF8
FFFFFFFFFFFFFFFFFFFFFFFFFFFFF8
FFFFFE000000000000000000000000
FFFFFE000000000000000000000000
FFFFFE000000000000000000000000
FFFFFE000000000000000000000000
FFFFFE000000000000000000000000
FFFFFE000000000000000000000000
FFFFFE000000000000000000000000
FFFFFE000000000000000000000000
FFFFFE000000000000000000000000
FFFFFE000000000000000000000000
FFFFFE000000000000000000000000
FFFFFE000000000000000000000000
FFFFFE000000000000000000000000
FFFFFE000000000000000000000000
FFFFFE000000000000000000000000
FFFFFE000000000000000000000000
FFFFFE000000000000000000000000
FFFFFE000000000000000000000000
FFFFFE000000000000000000000000
FFFFFE000000000000000000000000
FFFFFE000000000000000000000000
FFFFFE000000000000000000000000
FFFFFE000000000000000000000000
FFFFFE000000000000000000000000
FFFFFE000000000000000000000000
FFFFFE000000000000000000000000
FFFFFE000000000000000000000000
FFFFFE000000000000000000000000
FFFFFE000000000000000000000000
FFFFFE000000000000000000000000
FFFFFE000000000000000000000000
FFFFFE000000000000000000000000
FFFFFE0000FFFFFFFFFFFFFFFFFF00
FFFFFE0000FFFFFFFFFFFFFFFFFF00
FFFFFE0000FFFFFFFFFFFFFFFFFF00
FFFFFE0000FFFFFFFFFFFFFFFFFF00
FFFFFE0000FFFFFFFFFFFFFFFFFF00
FFFFFE0000FFFFFFFFFFFFFFFFFF00
FFFFFE0000FFFFFFFFFFFFFFFFFF00
FFFFFE0000FFFFFFFFFFFFFFFFFF00
FFFFFE0000FFFFFFFFFFFFFFFFFF00
FFFFFE0000FFFFFFFFFFFFFFFFFF00
FFFFFE0000FFFFFFFFFFFFFFFFFF00
FFFFFE0000FFFFFFFFFFFFFFFFFF00
FFFFFE0000FFFFFFFFFFFFFFFFFF00
FFFFFE0000FFFFFFFFFFFFFFFFFF00
FFFFFE0000FFFFFFFFFFFFFFFFFF00
FFFFFE0000FFFFFFFFFFFFFFFFFF00
FFFFFE0000FFFFFFFFFFFFFFFFFF00
FFFFFE0000FFFFFFFFFFFFFFFFFF00
FFFFFE0000FFFFFFFFFFFFFFFFFF00
FFFFFE000000000000000000000000
FFFFFE000000000000000000000000
FFFFFE000000000000000000000000
FFFFFE000000000000000000000000
FFFFFE000000000000000000000000
FFFFFE000000000000000000000000
FFFFFE000000000000000000000000
FFFFFE000000000000000000000000
FFFFFE000000000000000000000000
FFFFFE000000000000000000000000
FFFFFE000000000000000000000000
FFFFFE000000000000000000000000
FFFFFE000000000000000000000000
FFFFFE000000000000000000000000
FFFFFE000000000000000000000000
FFFFFE000000000000000000000000
FFFFFE000000000000000000000000
FFFFFE000000000000000000000000
FFFFFE000000000000000000000000
FFFFFE000000000000000000000000
FFFFFE000000000000000000000000
FFFFFE000000000000000000000000
FFFFFE000000000000000000000000
FFFFFE000000000000000000000000
FFFFFE000000000000000000000000
FFFFFE000000000000000000000000
FFFFFE000000000000000000000000
FFFFFE000000000000000000000000
FFFFFE000000000000000000000000
FFFFFE000000000000000000000000
FFFFFE000000000000000000000000
FFFFFE000000000000000000000000
FFFFFE000000000000000000000000
FFFFFE000000000000000000000000
FFFFFFFFFFFFFFFFFFFFFFFFFFFFF8
FFFFFFFFFFFFFFFFFFFFFFFFFFFFF8
FFFFFFFFFFFFFFFFFFFFFFFFFFFFF8
FFFFFFFFFFFFFFFFFFFFFFFFFFFFF8
FFFFFFFFFFFFFFFFFFFFFFFFFFFFF8
FFFFFFFFFFFFFFFFFFFFFFFFFFFFF8
FFFFFFFFFFFFFFFFFFFFFFFFFFFFF8
FFFFFFFFFFFFFFFFFFFFFFFFFFFFF8
FFFFFFFFFFFFFFFFFFFFFFFFFFFFF8
FFFFFFFFFFFFFFFFFFFFFFFFFFFFF8
FFFFFFFFFFFFFFFFFFFFFFFFFFFFF8
FFFFFFFFFFFFFFFFFFFFFFFFFFFFF8
FFFFFFFFFFFFFFFFFFFFFFFFFFFFF8
FFFFFFFFFFFFFFFFFFFFFFFFFFFFF8
FFFFFFFFFFFFFFFFFFFFFFFFFFFFF8
FFFFFFFFFFFFFFFFFFFFFFFFFFFFF8
FFFFFFFFFFFFFFFFFFFFFFFFFFFFF8
FFFFFFFFFFFFFFFFFFFFFFFFFFFFF8
FFFFFFFFFFFFFFFFFFFFFFFFFFFFF8
FFFFFFFFFFFFFFFFFFFFFFFFFFFFF8
FFFFFFFFFFFFFFFFFFFFFFFFFFFFF8
FFFFFFFFFFFFFFFFFFFFFFFFFFFFF8
FFFFFFFFFFFFFFFFFFFFFFFFFFFFF8
ENDCHAR
STARTCHAR F
ENCODING 70
SWIDTH 705 0
DWIDTH 127 0
BBX 111 131 11 0
BITMAP
FFFFFFFFFFFFFFFFFFFFFFFFFFFE
FFFFFFFFFFFFFFFFFFFFFFFFFFFE
FFFFFFFFFFFFFFFFFFFFFFFFFFFE
FFFFFFFFFFFFFFFFFFFFFFFFFFFE
FFFFFFFFFFFFFFFFFFFFFFFFFFFE
FFFFFFFFFFFFFFFFFFFFFFFFFFFE
FFFFFFFFFFFFFFFFFFFFFFFFFFFE
FFFFFFFFFFFFFFFFFFFFFFFFFFFE
FFFFFFFFFFFFFFFFFFFFFFFFFFFE
FFFFFFFFFFFFFFFFFFFFFFFFFFFE
FFFFFFFFFFFFFFFFFFFFFFFFFFFE
FFFFFFFFFFFFFFFFFFFFFFFFFFFE
FFFFFFFFFFFFFFFFFFFFFFFFFFFE
FFFFFFFFFFFFFFFFFFFFFFFFFFFE
FFFFFFFFFFFFFFFFFFFFFFFFFFFE
FFFFFFFFFFFFFFFFFFFFFFFFFFFE
FFFFFFFFFFFFFFFFFFFFFFFFFFFE
FFFFFFFFFFFFFFFFFFFFFFFFFFFE
FFFFFFFFFFFFFFFFFFFFFFFFFFFE
FFFFFFFFFFFFFFFFFFFFFFFFFFFE
FFFFFFFFFFFFFFFFFFFFFFFFFFFE
FFFFFFFFFFFFFFFFFFFFFFFFFFFE
FFFFFFFFFFFFFFFFFFFFFFFFFFFE
FFFFFE0000000000000000000000
FFFFFE0000000000000000000000
FFFFFE0000000000000000000000
FFFFFE0000000000000000000000
FFFFFE0000000000000000000000
FFFFFE0000000000000000000000
FFFFFE0000000000000000000000
FFFFFE0000000000000000000000
FFFFFE0000000000000000000000
FFFFFE0000000000000000000000
FFFFFE0000000000000000000000
FFFFFE0000000000000000000000
FFFFFE0000000000000000000000
FFFFFE0000000000000000000000
FFFFFE0000000000000000000000
FFFFFE0000000000000000000000
FFFFFE0000000000000000000000
FFFFFE0000000000000000000000
FFFFFE0000000000000000000000
FFFFFE0000000000000000000000
FFFFFE0000000000000000000000
FFFFFE0000000000000000000000
FFFFFE0000000000000000000000
FFFFFE0000000000000000000000
FFFFFE0000000000000000000000
FFFFFE0000000000000000000000
FFFFFE0000000000000000000000
FFFFFE0000000000000000000000
FFFFFE0000000000000000000000
FFFFFE0000000000000000000000
FFFFFE0000000000000000000000
FFFFFE0000000000000000000000
FFFFFE0000000000000000000000
FFFFFE0000000000000000000000
FFFFFE0000FFFFFFFFFFFFFFFFC0
FFFFFE0000FFFFFFFFFFFFFFFFC0
FFFFFE0000FFFFFFFFFFFFFFFFC0
FFFFFE0000FFFFFFFFFFFFFFFFC0
FFFFFE0000FFFFFFFFFFFFFFFFC0
FFFFFE0000FFFFFFFFFFFFFFFFC0
FFFFFE0000FFFFFFFFFFFFFFFFC0
FFFFFE0000FFFFFFFFFFFFFFFFC0
FFFFFE0000FFFFFFFFFFFFFFFFC0
FFFFFE0000FFFFFFFFFFFFFFFFC0
FFFFFE0000FFFFFFFFFFFFFFFFC0
FFFFFE0000FFFFFFFFFFFFFFFFC0
FFFFFE0000FFFFFFFFFFFFFFFFC0
FFFFFE0000FFFFFFFFFFFFFFFFC0
FFFFFE0000FFFFFFFFFFFFFFFFC0
FFFFFE0000FFFFFFFFFFFFFFFFC0
FFFFFE0000FFFFFFFFFFFFFFFFC0
FFFFFE0000FFFFFFFFFFFFFFFFC0
FFFFFE0000FFFFFFFFFFFFFFFFC0
FFFFFE0000FFFFFFFFFFFFFFFFC0
FFFFFE0000000000000000000000
FFFFFE0000000000000000000000
FFFFFE0000000000000000000000
FFFFFE0000000000000000000000
FFFFFE0000000000000000000000
FFFFFE0000000000000000000000
FFFFFE0000000000000000000000
FFFFFE0000000000000000000000
FFFFFE0000000000000000000000
FFFFFE0000000000000000000000
FFFFFE0000000000000000000000
FFFFFE0000000000000000000000
FFFFFE0000000000000000000000
FFFFFE0000000000000000000000
FFFFFE0000000000000000000000
FFFFFE0000000000000000000000
FFFFFE0000000000000000000000
FFFFFE0000000000000000000000
FFFFFE0000000000000000000000
FFFFFE0000000000000000000000
FFFFFE0000000000000000000000
FFFFFE0000000000000000000000
FFFFFE0000000000000000000000
FFFFFE0000000000000000000000
FFFFFE0000000000000000000000
FFFFFE0000000000000000000000
FFFFFE0000000000000000000000
FFFFFE0000000000000000000000
FFFFFE0000000000000000000000
FFFFFE0000000000000000000000
FFFFFE0000000000000000000000
FFFFFE0000000000000000000000
FFFFFE0000000000000000000000
FFFFFE0000000000000000000000
FFFFFE0000000000000000000000
FFFFFE0000000000000000000000
FFFFFE0000000000000000000000
FFFFFE0000000000000000000000
FFFFFE0000000000000000000000
FFFFFE0000000000000000000000
FFFFFE0000000000000000000000
FFFFFE0000000000000000000000
FFFFFE0000000000000000000000
FFFFFE0000000000000000000000
FFFFFE0000000000000000000000
FFFFFE0000000000000000000000
FFFFFE0000000000000000000000
FFFFFE0000000000000000000000
FFFFFE0000000000000000000000
FFFFFE0000000000000000000000
FFFFFE0000000000000000000000
FFFFFE0000000000000000000000
FFFFFE0000000000000000000000
FFFFFE0000000000000000000000
ENDCHAR
STARTCHAR G
ENCODING 71
SWIDTH 888 0
DWIDTH 160 0
BBX 142 131 8 0
BITMAP
00000000000003FFFFFFFFFFFFFFFFFFFC00
000000000000FFFFFFFFFFFFFFFFFFFFFC00
00000000000FFFFFFFFFFFFFFFFFFFFFFC00
00000000007FFFFFFFFFFFFFFFFFFFFFFC00
0000000003FFFFFFFFFFFFFFFFFFFFFFFC00
000000000FFFFFFFFFFFFFFFFFFFFFFFFC00
000000007FFFFFFFFFFFFFFFFFFFFFFFFC00
00000001FFFFFFFFFFFFFFFFFFFFFFFFFC00
00000003FFFFFFFFFFFFFFFFFFFFFFFFFC00
0000000FFFFFFFFFFFFFFFFFFFFFFFFFFC00
0000003FFFFFFFFFFFFFFFFFFFFFFFFFFC00
0000007FFFFFFFFFFFFFFFFFFFFFFFFFFC00
000000FFFFFFFFFFFFFFFFFFFFFFFFFFFC00
000003FFFFFFFFFFFFFFFFFFFFFFFFFFFC00
000007FFFFFFFFFFFFFFFFFFFFFFFFFFFC00
00000FFFFFFFFFFFFFFFFFFFFFFFFFFFFC00
00001FFFFFFFFFFFFFFFFFFFFFFFFFFFFC00
00003FFFFFFFFFFFFFFFFFFFFFFFFFFFFC00
00007FFFFFFFFFFFFFFFFFFFFFFFFFFFFC00
0000FFFFFFFFFFFFFFFFFFFFFFFFFFFFFC00
0001FFFFFFFFFFFFFFFFFFFFFFFFFFFFFC00
0003FFFFFFFFFFFFFFFFFFFFFFFFFFFFFC00
0007FFFFFFFFFFFFFFFFFFFFFFFFFFFFFC00
000FFFFFFFFFFF0000000000000000000000
000FFFFFFFFFE00000000000000000000000
001FFFFFFFFF000000000000000000000000
003FFFFFFFFC000000000000000000000000
003FFFFFFFF0000000000000000000000000
007FFFFFFFC0000000000000000000000000
00FFFFFFFF00000000000000000000000000
00FFFFFFFE00000000000000000000000000
01FFFFFFFC00000000000000000000000000
01FFFFFFF000000000000000000000000000
03FFFFFFE000000000000000000000000000
03FFFFFFC000000000000000000000000000
07FFFFFF8000000000000000000000000000
07FFFFFF0000000000000000000000000000
0FFFFFFF0000000000000000000000000000
0FFFFFFE0000000000000000000000000000
0FFFFFFC0000000000000000000000000000
1FFFFFF80000000000000000000000000000
1FFFFFF80000000000000000000000000000
1FFFFFF00000000000000000000000000000
3FFFFFF00000000000000000000000000000
3FFFFFE00000000000000000000000000000
3FFFFFE00000000000000000000000000000
3FFFFFC00000000000000000000000000000
7FFFFFC00000000000000000000000000000
7FFFFF800000000000000000000000000000
7FFFFF800000000000000000000000000000
7FFFFF800000000000000000000000000000
7FFFFF000000000000000000000000000000
FFFFFF000000000000000000000000000000
FFFFFF000000000000000000000000000000
FFFFFF000000000000000000000000000000
FFFFFE000000000FFFFFFFFFFFFFFFFFFFFC
FFFFFE000000000FFFFFFFFFFFFFFFFFFFFC
FFFFFE000000000FFFFFFFFFFFFFFFFFFFFC
FFFFFE000000000FFFFFFFFFFFFFFFFFFFFC
FFFFFE000000000FFFFFFFFFFFFFFFFFFFFC
FFFFFE000000000FFFFFFFFFFFFFFFFFFFFC
FFFFFE000000000FFFFFFFFFFFFFFFFFFFFC
FFFFFC000000000FFFFFFFFFFFFFFFFFFFFC
FFFFFC000000000FFFFFFFFFFFFFFFFFFFFC
FFFFFC000000000FFFFFFFFFFFFFFFFFFFFC
FFFFFC000000000FFFFFFFFFFFFFFFFFFFFC
FFFFFC000000000FFFFFFFFFFFFFFFFFFFFC
FFFFFC000000000FFFFFFFFFFFFFFFFFFFFC
FFFFFE000000000FFFFFFFFFFFFFFFFFFFFC
FFFFFE000000000FFFFFFFFFFFFFFFFFFFFC
FFFFFE000000000FFFFFFFFFFFFFFFFFFFFC
FFFFFE000000000FFFFFFFFFFFFFFFFFFFFC
FFFFFE000000000FFFFFFFFFFFFFFFFFFFFC
FFFFFE000000000FFFFFFFFFFFFFFFFFFFFC
FFFFFE000000000000000000000001FFFFFC
FFFFFE000000000000000000000001FFFFFC
7FFFFF000000000000000000000001FFFFFC
7FFFFF000000000000000000000001FFFFFC
7FFFFF000000000000000000000001FFFFFC
7FFFFF000000000000000000000001FFFFFC
7FFFFF800000000000000000000001FFFFFC
7FFFFF800000000000000000000001FFFFFC
3FFFFFC00000000000000000000001FFFFFC
3FFFFFC00000000000000000000001FFFFFC
3FFFFFC00000000000000000000001FFFFFC
1FFFFFE00000000000000000000001FFFFFC
1FFFFFE00000000000000000000001FFFFFC
1FFFFFF00000000000000000000001FFFFFC
0FFFFFF00000000000000000000001FFFFFC
0FFFFFF80000000000000000000001FFFFFC
0FFFFFFC0000000000000000000001FFFFFC
07FFFFFC0000000000000000000001FFFFFC
07FFFFFE0000000000000000000001FFFFFC
07FFFFFF0000000000000000000001FFFFFC
03FFFFFF8000000000000000000001FFFFFC
03FFFFFFC000000000000000000001FFFFFC
01FFFFFFC000000000000000000001FFFFFC
01FFFFFFE000000000000000000001FFFFFC
00FFFFFFF800000000000000000001FFFFFC
00FFFFFFFC00000000000000000001FFFFFC
007FFFFFFE00000000000000000001FFFFFC
003FFFFFFF80000000000000000001FFFFFC
003FFFFFFFC0000000000000000001FFFFFC
001FFFFFFFF0000000000000000001FFFFFC
000FFFFFFFFC000000000000000001FFFFFC
000FFFFFFFFF000000000000000001FFFFFC
0007FFFFFFFFE00000000000000001FFFFFC
0003FFFFFFFFFF0000000000000001FFFFFC
0001FFFFFFFFFFFFFFFFFFFFFFFFFFFFFFFC
0000FFFFFFFFFFFFFFFFFFFFFFFFFFFFFFFC
0000FFFFFFFFFFFFFFFFFFFFFFFFFFFFFFFC
00007FFFFFFFFFFFFFFFFFFFFFFFFFFFFFFC
00003FFFFFFFFFFFFFFFFFFFFFFFFFFFFFFC
00001FFFFFFFFFFFFFFFFFFFFFFFFFFFFFFC
00000FFFFFFFFFFFFFFFFFFFFFFFFFFFFFFC
000007FFFFFFFFFFFFFFFFFFFFFFFFFFFFFC
000001FFFFFFFFFFFFFFFFFFFFFFFFFFFFFC
000000FFFFFFFFFFFFFFFFFFFFFFFFFFFFFC
0000007FFFFFFFFFFFFFFFFFFFFFFFFFFFFC
0000001FFFFFFFFFFFFFFFFFFFFFFFFFFFFC
0000000FFFFFFFFFFFFFFFFFFFFFFFFFFFFC
00000003FFFFFFFFFFFFFFFFFFFFFFFFFFFC
00000001FFFFFFFFFFFFFFFFFFFFFFFFFFFC
000000007FFFFFFFFFFFFFFFFFFFFFFFFFFC
000000001FFFFFFFFFFFFFFFFFFFFFFFFFFC
0000000007FFFFFFFFFFFFFFFFFFFFFFFFFC
0000000001FFFFFFFFFFFFFFFFFFFFFFFFFC
00000000003FFFFFFFFFFFFFFFFFFFFFFFFC
000000000007FFFFFFFFFFFFFFFFFFFFFFFC
0000000000007FFFFFFFFFFFFFFFFFFFFFFC
00000000000003FFFFFFFFFFFFFFFFFFFFFC
ENDCHAR
STARTCHAR H
ENCODING 72
SWIDTH 838 0
DWIDTH 151 0
BBX 129 131 11 0
BITMAP
FFFFFE000000000000000000003FFFFF80
FFFFFE000000000000000000003FFFFF80
FFFFFE000000000000000000003FFFFF80
FFFFFE000000000000000000003FFFFF80
FFFFFE000000000000000000003FFFFF80
FFFFFE000000000000000000003FFFFF80
FFFFFE000000000000000000003FFFFF80
FFFFFE000000000000000000003FFFFF80
FFFFFE000000000000000000003FFFFF80
FFFFFE000000000000000000003FFFFF80
FFFFFE000000000000000000003FFFFF80
FFFFFE000000000000000000003FFFFF80
FFFFFE000000000000000000003FFFFF80
FFFFFE000000000000000000003FFFFF80
FFFFFE000000000000000000003FFFFF80
FFFFFE000000000000000000003FFFFF80
FFFFFE000000000000000000003FFFFF80
FFFFFE000000000000000000003FFFFF80
FFFFFE000000000000000000003FFFFF80
FFFFFE000000000000000000003FFFFF80
FFFFFE000000000000000000003FFFFF80
FFFFFE000000000000000000003FFFFF80
FFFFFE000000000000000000003FFFFF80
FFFFFE000000000000000000003FFFFF80
FFFFFE000000000000000000003FFFFF80
FFFFFE000000000000000000003FFFFF80
FFFFFE000000000000000000003FFFFF80
FFFFFE000000000000000000003FFFFF80
FFFFFE000000000000000000003FFFFF80
FFFFFE000000000000000000003FFFFF80
FFFFFE000000000000000000003FFFFF80
FFFFFE000000000000000000003FFFFF80
FFFFFE000000000000000000003FFFFF80
FFFFFE000000000000000000003FFFFF80
FFFFFE000000000000000000003FFFFF80
FFFFFE000000000000000000003FFFFF80
FFFFFE000000000000000000003FFFFF80
FFFFFE000000000000000000003FFFFF80
FFFFFE000000000000000000003FFFFF80
FFFFFE000000000000000000003FFFFF80
FFFFFE000000000000000000003FFFFF80
FFFFFE000000000000000000003FFFFF80
FFFFFE000000000000000000003FFFFF80
FFFFFE000000000000000000003FFFFF80
FFFFFE000000000000000000003FFFFF80
FFFFFE000000000000000000003FFFFF80
FFFFFE000000000000000000003FFFFF80
FFFFFE000000000000000000003FFFFF80
FFFFFE000000000000000000003FFFFF80
FFFFFE000000000000000000003FFFFF80
FFFFFE000000000000000000003FFFFF80
FFFFFE000000000000000000003FFFFF80
FFFFFE000000000000000000003FFFFF80
FFFFFE000000000000000000003FFFFF80
FFFFFE0000FFFFFFFFFFFFFFFFFFFFFF80
FFFFFE0000FFFFFFFFFFFFFFFFFFFFFF80
FFFFFE0000FFFFFFFFFFFFFFFFFFFFFF80
FFFFFE0000FFFFFFFFFFFFFFFFFFFFFF80
FFFFFE0000FFFFFFFFFFFFFFFFFFFFFF80
FFFFFE0000FFFFFFFFFFFFFFFFFFFFFF80
FFFFFE0000FFFFFFFFFFFFFFFFFFFFFF80
FFFFFE0000FFFFFFFFFFFFFFFFFFFFFF80
FFFFFE0000FFFFFFFFFFFFFFFFFFFFFF80
FFFFFE0000FFFFFFFFFFFFFFFFFFFFFF80
FFFFFE0000FFFFFFFFFFFFFFFFFFFFFF80
FFFFFE0000FFFFFFFFFFFFFFFFFFFFFF80
FFFFFE0000FFFFFFFFFFFFFFFFFFFFFF80
FFFFFE0000FFFFFFFFFFFFFFFFFFFFFF80
FFFFFE0000FFFFFFFFFFFFFFFFFFFFFF80
FFFFFE0000FFFFFFFFFFFFFFFFFFFFFF80
FFFFFE0000FFFFFFFFFFFFFFFFFFFFFF80
FFFFFE0000FFFFFFFFFFFFFFFFFFFFFF80
FFFFFE0000FFFFFFFFFFFFFFFFFFFFFF80
FFFFFE0000FFFFFFFFFFFFFFFFFFFFFF80
FFFFFE000000000000000000003FFFFF80
FFFFFE000000000000000000003FFFFF80
FFFFFE000000000000000000003FFFFF80
FFFFFE000000000000000000003FFFFF80
FFFFFE000000000000000000003FFFFF80
FFFFFE000000000000000000003FFFFF80
FFFFFE000000000000000000003FFFFF80
FFFFFE000000000000000000003FFFFF80
FFFFFE000000000000000000003FFFFF80
FFFFFE000000000000000000003FFFFF80
FFFFFE000000000000000000003FFFFF80
FFFFFE000000000000000000003FFFFF80
FFFFFE000000000000000000003FFFFF80
FFFFFE000000000000000000003FFFFF80
FFFFFE000000000000000000003FFFFF80
FFFFFE000000000000000000003FFFFF80
FFFFFE000000000000000000003FFFFF80
FFFFFE000000000000000000003FFFFF80
FFFFFE000000000000000000003FFFFF80
FFFFFE000000000000000000003FFFFF80
FFFFFE000000000000000000003FFFFF80
FFFFFE000000000000000000003FFFFF80
FFFFFE000000000000000000003FFFFF80
FFFFFE000000000000000000003FFFFF80
FFFFFE000000000000000000003FFFFF80
FFFFFE000000000000000000003FFFFF80
FFFFFE000000000000000000003FFFFF80
FFFFFE000000000000000000003FFFFF80
FFFFFE000000000000000000003FFFFF80
FFFFFE000000000000000000003FFFFF80
FFFFFE000000000000000000003FFFFF80
FFFFFE000000000000000000003FFFFF80
FFFFFE000000000000000000003FFFFF80
FFFFFE000000000000000000003FFFFF80
FFFFFE000000000000000000003FFFFF80
FFFFFE000000000000000000003FFFFF80
FFFFFE000000000000000000003FFFFF80
FFFFFE000000000000000000003FFFFF80
FFFFFE000000000000000000003FFFFF80
FFFFFE000000000000000000003FFFFF80
FFFFFE000000000000000000003FFFFF80
FFFFFE000000000000000000003FFFFF80
FFFFFE000000000000000000003FFFFF80
FFFFFE000000000000000000003FFFFF80
FFFFFE000000000000000000003FFFFF80
FFFFFE000000000000000000003FFFFF80
FFFFFE000000000000000000003FFFFF80
FFFFFE000000000000000000003FFFFF80
FFFFFE000000000000000000003FFFFF80
FFFFFE000000000000000000003FFFFF80
FFFFFE000000000000000000003FFFFF80
FFFFFE000000000000000000003FFFFF80
FFFFFE000000000000000000003FFFFF80
FFFFFE000000000000000000003FFFFF80
FFFFFE000000000000000000003FFFFF80
FFFFFE000000000000000000003FFFFF80
FFFFFE000000000000000000003FFFFF80
ENDCHAR
STARTCHAR I
ENCODING 73
SWIDTH 267 0
DWIDTH 48 0
BBX 22 131 13 0
BITMAP
FFFFFC
FFFFFC
FFFFFC
FFFFFC
FFFFFC
FFFFFC
FFFFFC
FFFFFC
FFFFFC
FFFFFC
FFFFFC
FFFFFC
FFFFFC
FFFFFC
FFFFFC
FFFFFC
FFFFFC
FFFFFC
FFFFFC
FFFFFC
FFFFFC
FFFFFC
FFFFFC
FFFFFC
FFFFFC
FFFFFC
FFFFFC
FFFFFC
FFFFFC
FFFFFC
FFFFFC
FFFFFC
FFFFFC
FFFFFC
FFFFFC
FFFFFC
FFFFFC
FFFFFC
FFFFFC
FFFFFC
FFFFFC
FFFFFC
FFFFFC
FFFFFC
FFFFFC
FFFFFC
FFFFFC
FFFFFC
FFFFFC
FFFFFC
FFFFFC
FFFFFC
FFFFFC
FFFFFC
FFFFFC
FFFFFC
FFFFFC
FFFFFC
FFFFFC
FFFFFC
FFFFFC
FFFFFC
FFFFFC
FFFFFC
FFFFFC
FFFFFC
FFFFFC
FFFFFC
FFFFFC
FFFFFC
FFFFFC
FFFFFC
FFFFFC
FFFFFC
FFFFFC
FFFFFC
FFFFFC
FFFFFC
FFFFFC
FFFFFC
FFFFFC
FFFFFC
FFFFFC
FFFFFC
FFFFFC
FFFFFC
FFFFFC
FFFFFC
FFFFFC
FFFFFC
FFFFFC
FFFFFC
FFFFFC
FFFFFC
FFFFFC
FFFFFC
FFFFFC
FFFFFC
FFFFFC
FFFFFC
FFFFFC
FFFFFC
FFFFFC
FFFFFC
FFFFFC
FFFFFC
FFFFFC
FFFFFC
FFFFFC
FFFFFC
FFFFFC
FFFFFC
FFFFFC
FFFFFC
FFFFFC
FFFFFC
FFFFFC
FFFFFC
FFFFFC
FFFFFC
FFFFFC
FFFFFC
FFFFFC
FFFFFC
FFFFFC
FFFFFC
FFFFFC
FFFFFC
FFFFFC
FFFFFC
FFFFFC
ENDCHAR
STARTCHAR J
ENCODING 74
SWIDTH 708 0
DWIDTH 127 0
BBX 114 131 4 0
BITMAP
00000000000000000000001FFFFFC0
00000000000000000000001FFFFFC0
00000000000000000000001FFFFFC0
00000000000000000000001FFFFFC0
00000000000000000000001FFFFFC0
00000000000000000000001FFFFFC0
00000000000000000000001FFFFFC0
00000000000000000000001FFFFFC0
00000000000000000000001FFFFFC0
00000000000000000000001FFFFFC0
00000000000000000000001FFFFFC0
00000000000000000000001FFFFFC0
00000000000000000000001FFFFFC0
00000000000000000000001FFFFFC0
00000000000000000000001FFFFFC0
00000000000000000000001FFFFFC0
00000000000000000000001FFFFFC0
00000000000000000000001FFFFFC0
00000000000000000000001FFFFFC0
00000000000000000000001FFFFFC0
00000000000000000000001FFFFFC0
00000000000000000000001FFFFFC0
00000000000000000000001FFFFFC0
00000000000000000000001FFFFFC0
00000000000000000000001FFFFFC0
00000000000000000000001FFFFFC0
00000000000000000000001FFFFFC0
00000000000000000000001FFFFFC0
00000000000000000000001FFFFFC0
00000000000000000000001FFFFFC0
00000000000000000000001FFFFFC0
00000000000000000000001FFFFFC0
00000000000000000000001FFFFFC0
00000000000000000000001FFFFFC0
00000000000000000000001FFFFFC0
00000000000000000000001FFFFFC0
00000000000000000000001FFFFFC0
00000000000000000000001FFFFFC0
00000000000000000000001FFFFFC0
00000000000000000000001FFFFFC0
00000000000000000000001FFFFFC0
00000000000000000000001FFFFFC0
00000000000000000000001FFFFFC0
00000000000000000000001FFFFFC0
00000000000000000000001FFFFFC0
00000000000000000000001FFFFFC0
00000000000000000000001FFFFFC0
00000000000000000000001FFFFFC0
00000000000000000000001FFFFFC0
00000000000000000000001FFFFFC0
00000000000000000000001FFFFFC0
00000000000000000000001FFFFFC0
00000000000000000000001FFFFFC0
00000000000000000000001FFFFFC0
00000000000000000000001FFFFFC0
00000000000000000000001FFFFFC0
00000000000000000000001FFFFFC0
00000000000000000000001FFFFFC0
00000000000000000000001FFFFFC0
00000000000000000000001FFFFFC0
00000000000000000000001FFFFFC0
00000000000000000000001FFFFFC0
00000000000000000000001FFFFFC0
00000000000000000000001FFFFFC0
00000000000000000000001FFFFFC0
00000000000000000000001FFFFFC0
00000000000000000000001FFFFFC0
00000000000000000000001FFFFFC0
00000000000000000000001FFFFFC0
00000000000000000000001FFFFFC0
00000000000000000000001FFFFFC0
00000000000000000000001FFFFFC0
00000000000000000000001FFFFFC0
00000000000000000000001FFFFFC0
00000000000000000000001FFFFFC0
00000000000000000000001FFFFFC0
00000000000000000000001FFFFFC0
00000000000000000000001FFFFFC0
00000000000000000000001FFFFFC0
00000000000000000000001FFFFFC0
00000000000000000000001FFFFFC0
00000000000000000000003FFFFFC0
00000000000000000000003FFFFF80
00000000000000000000003FFFFF80
00000000000000000000003FFFFF80
00000000000000000000007FFFFF80
00000000000000000000007FFFFF80
00000000000000000000007FFFFF80
0000000000000000000000FFFFFF80
0000000000000000000000FFFFFF00
0000000000000000000000FFFFFF00
0000000000000000000001FFFFFF00
0000000000000000000001FFFFFF00
0000000000000000000003FFFFFE00
0000000000000000000007FFFFFE00
0000000000000000000007FFFFFE00
000000000000000000000FFFFFFE00
000000000000000000001FFFFFFC00
000000000000000000003FFFFFFC00
000000000000000000007FFFFFF800
00000000000000000000FFFFFFF800
00000000000000000003FFFFFFF800
00000000000000000007FFFFFFF000
0000000000000000001FFFFFFFF000
000000000000000000FFFFFFFFE000
000000000000000007FFFFFFFFE000
00000000000000007FFFFFFFFFC000
000000000000001FFFFFFFFFFFC000
FFFFFFFFFFFFFFFFFFFFFFFFFF8000
FFFFFFFFFFFFFFFFFFFFFFFFFF0000
FFFFFFFFFFFFFFFFFFFFFFFFFF0000
FFFFFFFFFFFFFFFFFFFFFFFFFE0000
FFFFFFFFFFFFFFFFFFFFFFFFFC0000
FFFFFFFFFFFFFFFFFFFFFFFFF80000
FFFFFFFFFFFFFFFFFFFFFFFFF00000
FFFFFFFFFFFFFFFFFFFFFFFFE00000
FFFFFFFFFFFFFFFFFFFFFFFFC00000
FFFFFFFFFFFFFFFFFFFFFFFF800000
FFFFFFFFFFFFFFFFFFFFFFFF000000
FFFFFFFFFFFFFFFFFFFFFFFE000000
FFFFFFFFFFFFFFFFFFFFFFF8000000
FFFFFFFFFFFFFFFFFFFFFFE0000000
FFFFFFFFFFFFFFFFFFFFFFC0000000
FFFFFFFFFFFFFFFFFFFFFF00000000
FFFFFFFFFFFFFFFFFFFFFC00000000
FFFFFFFFFFFFFFFFFFFFE000000000
FFFFFFFFFFFFFFFFFFFF0000000000
FFFFFFFFFFFFFFFFFFF80000000000
FFFFFFFFFFFFFFFFFFC00000000000
FFFFFFFFFFFFFFFFF0000000000000
FFFFFFFFFFFFFFF000000000000000
ENDCHAR
STARTCHAR K
ENCODING 75
SWIDTH 875 0
DWIDTH 158 0
BBX 143 131 11 0
BITMAP
FFFFFE000000000000000000007FFFFFFFF0
FFFFFE00000000000000000001FFFFFFFFC0
FFFFFE00000000000000000003FFFFFFFF80
FFFFFE00000000000000000007FFFFFFFF00
FFFFFE0000000000000000001FFFFFFFFC00
FFFFFE0000000000000000003FFFFFFFF800
FFFFFE0000000000000000007FFFFFFFF000
FFFFFE000000000000000000FFFFFFFFC000
FFFFFE000000000000000003FFFFFFFF8000
FFFFFE000000000000000007FFFFFFFF0000
FFFFFE00000000000000000FFFFFFFFC0000
FFFFFE00000000000000003FFFFFFFF80000
FFFFFE00000000000000007FFFFFFFF00000
FFFFFE0000000000000000FFFFFFFFC00000
FFFFFE0000000000000003FFFFFFFF800000
FFFFFE0000000000000007FFFFFFFF000000
FFFFFE000000000000000FFFFFFFFC000000
FFFFFE000000000000001FFFFFFFF8000000
FFFFFE000000000000007FFFFFFFF0000000
FFFFFE00000000000000FFFFFFFFC0000000
FFFFFE00000000000001FFFFFFFF80000000
FFFFFE00000000000007FFFFFFFF00000000
FFFFFE0000000000000FFFFFFFFC00000000
FFFFFE0000000000001FFFFFFFF800000000
FFFFFE0000000000007FFFFFFFF000000000
FFFFFE000000000000FFFFFFFFC000000000
FFFFFE000000000001FFFFFFFF8000000000
FFFFFE000000000003FFFFFFFF0000000000
FFFFFE00000000000FFFFFFFFC0000000000
FFFFFE00000000001FFFFFFFF80000000000
FFFFFE00000000003FFFFFFFF00000000000
FFFFFE0000000000FFFFFFFFC00000000000
FFFFFE0000000001FFFFFFFF800000000000
FFFFFE0000000003FFFFFFFF000000000000
FFFFFE000000000FFFFFFFFC000000000000
FFFFFE000000001FFFFFFFF8000000000000
FFFFFE000000003FFFFFFFF0000000000000
FFFFFE000000007FFFFFFFC0000000000000
FFFFFE00000001FFFFFFFF80000000000000
FFFFFE00000003FFFFFFFE00000000000000
FFFFFE00000007FFFFFFFC00000000000000
FFFFFE0000001FFFFFFFF800000000000000
FFFFFE0000003FFFFFFFE000000000000000
FFFFFE0000007FFFFFFFC000000000000000
FFFFFE000001FFFFFFFF8000000000000000
FFFFFE000003FFFFFFFE0000000000000000
FFFFFE000007FFFFFFFC0000000000000000
FFFFFE00000FFFFFFFF80000000000000000
FFFFFE00003FFFFFFFE00000000000000000
FFFFFE00007FFFFFFFC00000000000000000
FFFFFE0000FFFFFFFF800000000000000000
FFFFFE0003FFFFFFFE000000000000000000
FFFFFE0007FFFFFFFC000000000000000000
FFFFFE000FFFFFFFF8000000000000000000
FFFFFE001FFFFFFFE0000000000000000000
FFFFFE007FFFFFFFC0000000000000000000
FFFFFE007FFFFFFF80000000000000000000
FFFFFE00FFFFFFFE00000000000000000000
FFFFFE01FFFFFFFC00000000000000000000
FFFFFE01FFFFFFF800000000000000000000
FFFFFE01FFFFFFE000000000000000000000
FFFFFE03FFFFFFC000000000000000000000
FFFFFE03FFFFFF8000000000000000000000
FFFFFE03FFFFFE0000000000000000000000
FFFFFE03FFFFFE0000000000000000000000
FFFFFE03FFFFFF8000000000000000000000
FFFFFE03FFFFFFC000000000000000000000
FFFFFE01FFFFFFE000000000000000000000
FFFFFE01FFFFFFF800000000000000000000
FFFFFE01FFFFFFFC00000000000000000000
FFFFFE00FFFFFFFE00000000000000000000
FFFFFE007FFFFFFF80000000000000000000
FFFFFE003FFFFFFFC0000000000000000000
FFFFFE001FFFFFFFE0000000000000000000
FFFFFE000FFFFFFFF8000000000000000000
FFFFFE0003FFFFFFFC000000000000000000
FFFFFE0001FFFFFFFE000000000000000000
FFFFFE0000FFFFFFFF800000000000000000
FFFFFE00007FFFFFFFC00000000000000000
FFFFFE00001FFFFFFFE00000000000000000
FFFFFE00000FFFFFFFF00000000000000000
FFFFFE000007FFFFFFFC0000000000000000
FFFFFE000001FFFFFFFE0000000000000000
FFFFFE000000FFFFFFFF0000000000000000
FFFFFE0000007FFFFFFFC000000000000000
FFFFFE0000003FFFFFFFE000000000000000
FFFFFE0000000FFFFFFFF000000000000000
FFFFFE00000007FFFFFFFC00000000000000
FFFFFE00000003FFFFFFFE00000000000000
FFFFFE00000001FFFFFFFF00000000000000
FFFFFE000000007FFFFFFFC0000000000000
FFFFFE000000003FFFFFFFE0000000000000
FFFFFE000000001FFFFFFFF0000000000000
FFFFFE000000000FFFFFFFFC000000000000
FFFFFE0000000003FFFFFFFE000000000000
FFFFFE0000000001FFFFFFFF000000000000
FFFFFE0000000000FFFFFFFFC00000000000
FFFFFE00000000003FFFFFFFE00000000000
FFFFFE00000000001FFFFFFFF00000000000
FFFFFE00000000000FFFFFFFFC0000000000
FFFFFE000000000007FFFFFFFE0000000000
FFFFFE000000000001FFFFFFFF0000000000
FFFFFE000000000000FFFFFFFFC000000000
FFFFFE0000000000007FFFFFFFE000000000
FFFFFE0000000000003FFFFFFFF000000000
FFFFFE0000000000000FFFFFFFF800000000
FFFFFE00000000000007FFFFFFFE00000000
FFFFFE00000000000003FFFFFFFF00000000
FFFFFE00000000000000FFFFFFFF80000000
FFFFFE000000000000007FFFFFFFE0000000
FFFFFE000000000000003FFFFFFFF0000000
FFFFFE000000000000001FFFFFFFF8000000
FFFFFE0000000000000007FFFFFFFE000000
FFFFFE0000000000000003FFFFFFFF000000
FFFFFE0000000000000001FFFFFFFF800000
FFFFFE0000000000000000FFFFFFFFE00000
FFFFFE00000000000000003FFFFFFFF00000
FFFFFE00000000000000001FFFFFFFF80000
FFFFFE00000000000000000FFFFFFFFE0000
FFFFFE000000000000000003FFFFFFFF0000
FFFFFE000000000000000001FFFFFFFF8000
FFFFFE000000000000000000FFFFFFFFE000
FFFFFE0000000000000000007FFFFFFFF000
FFFFFE0000000000000000001FFFFFFFF800
FFFFFE0000000000000000000FFFFFFFFE00
FFFFFE00000000000000000007FFFFFFFF00
FFFFFE00000000000000000003FFFFFFFF80
FFFFFE00000000000000000000FFFFFFFFC0
FFFFFE000000000000000000007FFFFFFFF0
FFFFFE000000000000000000003FFFFFFFF8
FFFFFE000000000000000000000FFFFFFFFE
ENDCHAR
STARTCHAR L
ENCODING 76
SWIDTH 707 0
DWIDTH 127 0
BBX 111 131 11 0
BITMAP
FFFFFE0000000000000000000000
FFFFFE0000000000000000000000
FFFFFE0000000000000000000000
FFFFFE0000000000000000000000
FFFFFE0000000000000000000000
FFFFFE0000000000000000000000
FFFFFE0000000000000000000000
FFFFFE0000000000000000000000
FFFFFE0000000000000000000000
FFFFFE0000000000000000000000
FFFFFE0000000000000000000000
FFFFFE0000000000000000000000
FFFFFE0000000000000000000000
FFFFFE0000000000000000000000
FFFFFE0000000000000000000000
FFFFFE0000000000000000000000
FFFFFE0000000000000000000000
FFFFFE0000000000000000000000
FFFFFE0000000000000000000000
FFFFFE0000000000000000000000
FFFFFE0000000000000000000000
FFFFFE0000000000000000000000
FFFFFE0000000000000000000000
FFFFFE0000000000000000000000
FFFFFE0000000000000000000000
FFFFFE0000000000000000000000
FFFFFE0000000000000000000000
FFFFFE0000000000000000000000
FFFFFE0000000000000000000000
FFFFFE0000000000000000000000
FFFFFE0000000000000000000000
FFFFFE0000000000000000000000
FFFFFE0000000000000000000000
FFFFFE0000000000000000000000
FFFFFE0000000000000000000000
FFFFFE0000000000000000000000
FFFFFE0000000000000000000000
FFFFFE0000000000000000000000
FFFFFE0000000000000000000000
FFFFFE0000000000000000000000
FFFFFE0000000000000000000000
FFFFFE0000000000000000000000
FFFFFE0000000000000000000000
FFFFFE0000000000000000000000
FFFFFE0000000000000000000000
FFFFFE0000000000000000000000
FFFFFE0000000000000000000000
FFFFFE0000000000000000000000
FFFFFE0000000000000000000000
FFFFFE0000000000000000000000
FFFFFE0000000000000000000000
FFFFFE0000000000000000000000
FFFFFE0000000000000000000000
FFFFFE0000000000000000000000
FFFFFE0000000000000000000000
FFFFFE0000000000000000000000
FFFFFE0000000000000000000000
FFFFFE0000000000000000000000
FFFFFE0000000000000000000000
FFFFFE0000000000000000000000
FFFFFE0000000000000000000000
FFFFFE0000000000000000000000
FFFFFE0000000000000000000000
FFFFFE0000000000000000000000
FFFFFE0000000000000000000000
FFFFFE0000000000000000000000
FFFFFE0000000000000000000000
FFFFFE0000000000000000000000
FFFFFE0000000000000000000000
FFFFFE0000000000000000000000
FFFFFE0000000000000000000000
FFFFFE0000000000000000000000
FFFFFE0000000000000000000000
FFFFFE0000000000000000000000
FFFFFE0000000000000000000000
FFFFFE0000000000000000000000
FFFFFE0000000000000000000000
FFFFFE0000000000000000000000
FFFFFE0000000000000000000000
FFFFFE0000000000000000000000
FFFFFE0000000000000000000000
FFFFFE0000000000000000000000
FFFFFE0000000000000000000000
FFFFFE0000000000000000000000
FFFFFE0000000000000000000000
FFFFFE0000000000000000000000
FFFFFE0000000000000000000000
FFFFFE0000000000000000000000
FFFFFE0000000000000000000000
FFFFFE0000000000000000000000
FFFFFE0000000000000000000000
FFFFFE0000000000000000000000
FFFFFE0000000000000000000000
FFFFFE0000000000000000000000
FFFFFE0000000000000000000000
FFFFFE0000000000000000000000
FFFFFE0000000000000000000000
FFFFFE0000000000000000000000
FFFFFE0000000000000000000000
FFFFFE0000000000000000000000
FFFFFE0000000000000000000000
FFFFFE0000000000000000000000
FFFFFE0000000000000000000000
FFFFFE0000000000000000000000
FFFFFE0000000000000000000000
FFFFFE0000000000000000000000
FFFFFE0000000000000000000000
FFFFFE0000000000000000000000
FFFFFFFFFFFFFFFFFFFFFFFFFFFE
FFFFFFFFFFFFFFFFFFFFFFFFFFFE
FFFFFFFFFFFFFFFFFFFFFFFFFFFE
FFFFFFFFFFFFFFFFFFFFFFFFFFFE
FFFFFFFFFFFFFFFFFFFFFFFFFFFE
FFFFFFFFFFFFFFFFFFFFFFFFFFFE
FFFFFFFFFFFFFFFFFFFFFFFFFFFE
FFFFFFFFFFFFFFFFFFFFFFFFFFFE
FFFFFFFFFFFFFFFFFFFFFFFFFFFE
FFFFFFFFFFFFFFFFFFFFFFFFFFFE
FFFFFFFFFFFFFFFFFFFFFFFFFFFE
FFFFFFFFFFFFFFFFFFFFFFFFFFFE
FFFFFFFFFFFFFFFFFFFFFFFFFFFE
FFFFFFFFFFFFFFFFFFFFFFFFFFFE
FFFFFFFFFFFFFFFFFFFFFFFFFFFE
FFFFFFFFFFFFFFFFFFFFFFFFFFFE
FFFFFFFFFFFFFFFFFFFFFFFFFFFE
FFFFFFFFFFFFFFFFFFFFFFFFFFFE
FFFFFFFFFFFFFFFFFFFFFFFFFFFE
FFFFFFFFFFFFFFFFFFFFFFFFFFFE
FFFFFFFFFFFFFFFFFFFFFFFFFFFE
FFFFFFFFFFFFFFFFFFFFFFFFFFFE
FFFFFFFFFFFFFFFFFFFFFFFFFFFE
ENDCHAR
STARTCHAR M
ENCODING 77
SWIDTH 1115 0
DWIDTH 201 0
BBX 193 133 4 -2
BITMAP
00000000003F8000000000000000000000007F000000000000
0000000001FFE00000000000000000000003FFC00000000000
0000000003FFF80000000000000000000007FFF00000000000
0000000007FFFC000000000000000000000FFFF80000000000
000000000FFFFE000000000000000000001FFFF80000000000
000000001FFFFF000000000000000000001FFFFC0000000000
000000001FFFFF000000000000000000003FFFFC0000000000
000000003FFFFF800000000000000000003FFFFE0000000000
000000003FFFFF800000000000000000007FFFFE0000000000
000000003FFFFFC00000000000000000007FFFFF0000000000
000000003FFFFFC0000000000000000000FFFFFF0000000000
000000007FFFFFE0000000000000000000FFFFFF0000000000
000000007FFFFFE0000000000000000001FFFFFF0000000000
000000007FFFFFE0000000000000000001FFFFFF8000000000
000000007FFFFFF0000000000000000003FFFFFF8000000000
00000000FFFFFFF0000000000000000003FFFFFF8000000000
00000000FFFFFFF8000000000000000003FFFFFF8000000000
00000000FFFFFFF8000000000000000007FFFFFFC000000000
00000001FFFFFFFC000000000000000007FFFFFFC000000000
00000001FFFFFFFC00000000000000000FFFFFFFC000000000
00000001FFFFFFFE00000000000000000FFFFFFFE000000000
00000001FFFFFFFE00000000000000001FFFFFFFE000000000
00000003FFFFFFFE00000000000000001FFFFFFFE000000000
00000003FFFFFFFF00000000000000003FFFFFFFE000000000
00000003FFFFFFFF00000000000000003FFFFFFFF000000000
00000007FFFFFFFF80000000000000003FFFFFFFF000000000
00000007FFFFFFFF80000000000000007FFFFFFFF000000000
00000007FFFFFFFFC0000000000000007FFFFFFFF000000000
00000007FFFFFFFFC000000000000000FFFFFFFFF800000000
0000000FFFFFFFFFC000000000000000FFFFFFFFF800000000
0000000FFFFFFFFFE000000000000001FFFFFFFFF800000000
0000000FFFFFFFFFE000000000000001FFFFFFFFFC00000000
0000000FFFFFFFFFF000000000000001FFFFFFFFFC00000000
0000001FFFFFFFFFF000000000000003FFFFFFFFFC00000000
0000001FFFFFFFFFF800000000000003FFFFFFFFFC00000000
0000001FFFFFFFFFF800000000000007FFFFFFFFFE00000000
0000003FFFFFFFFFFC00000000000007FFFFFFFFFE00000000
0000003FFFFFFFFFFC0000000000000FFFFFFFFFFE00000000
0000003FFFFFFFFFFC0000000000000FFFFFFFFFFE00000000
0000003FFFFFFFFFFE0000000000001FFFFFFFFFFF00000000
0000007FFFFFFFFFFE0000000000001FFFFFFFFFFF00000000
0000007FFFFFFFFFFF0000000000001FFFFFBFFFFF00000000
0000007FFFFE7FFFFF0000000000003FFFFF3FFFFF80000000
000000FFFFFE7FFFFF8000000000003FFFFF3FFFFF80000000
000000FFFFFE3FFFFF8000000000007FFFFE3FFFFF80000000
000000FFFFFC3FFFFFC000000000007FFFFE1FFFFF80000000
000000FFFFFC1FFFFFC00000000000FFFFFE1FFFFFC0000000
000001FFFFFC1FFFFFC00000000000FFFFFC1FFFFFC0000000
000001FFFFFC1FFFFFE00000000001FFFFFC1FFFFFC0000000
000001FFFFF80FFFFFE00000000001FFFFF80FFFFFE0000000
000001FFFFF80FFFFFF00000000001FFFFF80FFFFFE0000000
000003FFFFF807FFFFF00000000003FFFFF00FFFFFE0000000
000003FFFFF807FFFFF80000000003FFFFF007FFFFE0000000
000003FFFFF003FFFFF80000000007FFFFE007FFFFF0000000
000007FFFFF003FFFFF80000000007FFFFE007FFFFF0000000
000007FFFFF003FFFFFC000000000FFFFFE007FFFFF0000000
000007FFFFE001FFFFFC000000000FFFFFC003FFFFF0000000
000007FFFFE001FFFFFE000000000FFFFFC003FFFFF8000000
00000FFFFFE000FFFFFE000000001FFFFF8003FFFFF8000000
00000FFFFFE000FFFFFF000000001FFFFF8003FFFFF8000000
00000FFFFFC0007FFFFF000000003FFFFF0001FFFFFC000000
00000FFFFFC0007FFFFF800000003FFFFF0001FFFFFC000000
00001FFFFFC0003FFFFF800000007FFFFE0001FFFFFC000000
00001FFFFF80003FFFFF800000007FFFFE0000FFFFFC000000
00001FFFFF80003FFFFFC0000000FFFFFE0000FFFFFE000000
00003FFFFF80001FFFFFC0000000FFFFFC0000FFFFFE000000
00003FFFFF80001FFFFFE0000000FFFFFC0000FFFFFE000000
00003FFFFF00000FFFFFE0000001FFFFF800007FFFFE000000
00003FFFFF00000FFFFFF0000001FFFFF800007FFFFF000000
00007FFFFF000007FFFFF0000003FFFFF000007FFFFF000000
00007FFFFF000007FFFFF8000003FFFFF000003FFFFF000000
00007FFFFE000007FFFFF8000007FFFFF000003FFFFF800000
0000FFFFFE000003FFFFF8000007FFFFE000003FFFFF800000
0000FFFFFE000003FFFFFC00000FFFFFE000003FFFFF800000
0000FFFFFC000001FFFFFC00000FFFFFC000001FFFFF800000
0000FFFFFC000001FFFFFE00000FFFFFC000001FFFFFC00000
0001FFFFFC000000FFFFFE00001FFFFF8000001FFFFFC00000
0001FFFFFC000000FFFFFF00001FFFFF8000001FFFFFC00000
0001FFFFF80000007FFFFF00003FFFFF0000000FFFFFC00000
0001FFFFF80000007FFFFF00003FFFFF0000000FFFFFE00000
0003FFFFF80000007FFFFF80007FFFFF0000000FFFFFE00000
0003FFFFF80000003FFFFF80007FFFFE00000007FFFFE00000
0003FFFFF00000003FFFFFC0007FFFFE00000007FFFFF00000
0007FFFFF00000001FFFFFC000FFFFFC00000007FFFFF00000
0007FFFFF00000001FFFFFE000FFFFFC00000007FFFFF00000
0007FFFFE00000000FFFFFE001FFFFF800000003FFFFF00000
0007FFFFE00000000FFFFFF001FFFFF800000003FFFFF80000
000FFFFFE000000007FFFFF003FFFFF000000003FFFFF80000
000FFFFFE000000007FFFFF003FFFFF000000003FFFFF80000
000FFFFFC000000007FFFFF807FFFFF000000001FFFFFC0000
000FFFFFC000000003FFFFF807FFFFE000000001FFFFFC0000
001FFFFFC000000003FFFFFC07FFFFE000000001FFFFFC0000
001FFFFF8000000001FFFFFC0FFFFFC000000000FFFFFC0000
001FFFFF8000000001FFFFFE0FFFFFC000000000FFFFFE0000
003FFFFF8000000000FFFFFE1FFFFF8000000000FFFFFE0000
003FFFFF8000000000FFFFFF1FFFFF8000000000FFFFFE0000
003FFFFF0000000000FFFFFF3FFFFF00000000007FFFFE0000
003FFFFF00000000007FFFFF3FFFFF00000000007FFFFF0000
007FFFFF00000000007FFFFFFFFFFF00000000007FFFFF0000
007FFFFF00000000003FFFFFFFFFFE00000000003FFFFF0000
007FFFFE00000000003FFFFFFFFFFE00000000003FFFFF8000
00FFFFFE00000000001FFFFFFFFFFC00000000003FFFFF8000
00FFFFFE00000000001FFFFFFFFFFC00000000003FFFFF8000
00FFFFFC00000000000FFFFFFFFFF800000000001FFFFF8000
00FFFFFC00000000000FFFFFFFFFF800000000001FFFFFC000
01FFFFFC00000000000FFFFFFFFFF800000000001FFFFFC000
01FFFFFC000000000007FFFFFFFFF000000000001FFFFFC000
01FFFFF8000000000007FFFFFFFFF000000000000FFFFFC000
01FFFFF8000000000003FFFFFFFFE000000000000FFFFFE000
03FFFFF8000000000003FFFFFFFFE000000000000FFFFFE000
03FFFFF0000000000001FFFFFFFFC0000000000007FFFFE000
03FFFFF0000000000001FFFFFFFFC0000000000007FFFFF000
07FFFFF0000000000001FFFFFFFF80000000000007FFFFF000
07FFFFF0000000000000FFFFFFFF80000000000007FFFFF000
07FFFFE0000000000000FFFFFFFF80000000000003FFFFF000
07FFFFE00000000000007FFFFFFF00000000000003FFFFF800
0FFFFFE00000000000007FFFFFFF00000000000003FFFFF800
0FFFFFE00000000000003FFFFFFE00000000000001FFFFF800
0FFFFFC00000000000003FFFFFFE00000000000001FFFFF800
1FFFFFC00000000000001FFFFFFC00000000000001FFFFFC00
1FFFFFC00000000000001FFFFFFC00000000000001FFFFFC00
1FFFFF800000000000001FFFFFF800000000000000FFFFFC00
1FFFFF800000000000000FFFFFF800000000000000FFFFFE00
3FFFFF800000000000000FFFFFF800000000000000FFFFFE00
3FFFFF8000000000000007FFFFF000000000000000FFFFFE00
3FFFFF0000000000000007FFFFF0000000000000007FFFFE00
3FFFFF0000000000000003FFFFE0000000000000007FFFFF00
7FFFFF0000000000000003FFFFC0000000000000007FFFFF00
7FFFFF0000000000000001FFFFC0000000000000003FFFFF00
7FFFFE0000000000000000FFFF80000000000000003FFFFF80
FFFFFE00000000000000007FFF00000000000000003FFFFF80
00000000000000000000003FFC000000000000000000000000
000000000000000000000007F0000000000000000000000000
ENDCHAR
STARTCHAR N
ENCODING 78
SWIDTH 873 0
DWIDTH 157 0
BBX 135 131 11 0
BITMAP
00FE0000000000000000000000003FFFFE
07FF8000000000000000000000003FFFFE
0FFFE000000000000000000000003FFFFE
1FFFF000000000000000000000003FFFFE
3FFFF800000000000000000000003FFFFE
3FFFFC00000000000000000000003FFFFE
7FFFFE00000000000000000000003FFFFE
7FFFFF00000000000000000000003FFFFE
FFFFFF80000000000000000000003FFFFE
FFFFFFC0000000000000000000003FFFFE
FFFFFFE0000000000000000000003FFFFE
FFFFFFF0000000000000000000003FFFFE
FFFFFFF8000000000000000000003FFFFE
FFFFFFFC000000000000000000003FFFFE
FFFFFFFE000000000000000000003FFFFE
FFFFFFFF000000000000000000003FFFFE
FFFFFFFF800000000000000000003FFFFE
FFFFFFFFC00000000000000000003FFFFE
FFFFFFFFE00000000000000000003FFFFE
FFFFFFFFF00000000000000000003FFFFE
FFFFFFFFF80000000000000000003FFFFE
FFFFFFFFFC0000000000000000003FFFFE
FFFFFFFFFE0000000000000000003FFFFE
FFFFFFFFFF0000000000000000003FFFFE
FFFFFFFFFF8000000000000000003FFFFE
FFFFFFFFFFC000000000000000003FFFFE
FFFFFFFFFFE000000000000000003FFFFE
FFFFFFFFFFF800000000000000003FFFFE
FFFFFFFFFFFC00000000000000003FFFFE
FFFFFFFFFFFE00000000000000003FFFFE
FFFFFFFFFFFF00000000000000003FFFFE
FFFFFFFFFFFF80000000000000003FFFFE
FFFFFFFFFFFFC0000000000000003FFFFE
FFFFFFFFFFFFE0000000000000003FFFFE
FFFFFFFFFFFFF0000000000000003FFFFE
FFFFFFFFFFFFF8000000000000003FFFFE
FFFFFFFFFFFFFC000000000000003FFFFE
FFFFFFFFFFFFFE000000000000003FFFFE
FFFFFDFFFFFFFF000000000000003FFFFE
FFFFFCFFFFFFFF800000000000003FFFFE
FFFFFC3FFFFFFFC00000000000003FFFFE
FFFFFC1FFFFFFFE00000000000003FFFFE
FFFFFC0FFFFFFFF00000000000003FFFFE
FFFFFC07FFFFFFF80000000000003FFFFE
FFFFFC03FFFFFFFC0000000000003FFFFE
FFFFFC01FFFFFFFE0000000000003FFFFE
FFFFFC00FFFFFFFF0000000000003FFFFE
FFFFFC007FFFFFFF8000000000003FFFFE
FFFFFC003FFFFFFFC000000000003FFFFE
FFFFFC001FFFFFFFE000000000003FFFFE
FFFFFC000FFFFFFFF000000000003FFFFE
FFFFFC0007FFFFFFF800000000003FFFFE
FFFFFC0003FFFFFFFC00000000003FFFFE
FFFFFC0001FFFFFFFE00000000003FFFFE
FFFFFC0000FFFFFFFF00000000003FFFFE
FFFFFC00007FFFFFFF80000000003FFFFE
FFFFFC00003FFFFFFFC0000000003FFFFE
FFFFFC00001FFFFFFFE0000000003FFFFE
FFFFFC00000FFFFFFFF0000000003FFFFE
FFFFFC000007FFFFFFF8000000003FFFFE
FFFFFC000003FFFFFFFC000000003FFFFE
FFFFFC000001FFFFFFFE000000003FFFFE
FFFFFC000000FFFFFFFF000000003FFFFE
FFFFFC0000007FFFFFFF800000003FFFFE
FFFFFC0000003FFFFFFFC00000003FFFFE
FFFFFC0000001FFFFFFFE00000003FFFFE
FFFFFC0000000FFFFFFFF00000003FFFFE
FFFFFC00000007FFFFFFF80000003FFFFE
FFFFFC00000003FFFFFFFC0000003FFFFE
FFFFFC00000001FFFFFFFE0000003FFFFE
FFFFFC00000000FFFFFFFF0000003FFFFE
FFFFFC000000007FFFFFFF8000003FFFFE
FFFFFC000000003FFFFFFFC000003FFFFE
FFFFFC000000001FFFFFFFE000003FFFFE
FFFFFC000000000FFFFFFFF000003FFFFE
FFFFFC0000000007FFFFFFF800003FFFFE
FFFFFC0000000003FFFFFFFC00003FFFFE
FFFFFC0000000001FFFFFFFE00003FFFFE
FFFFFC00000000007FFFFFFF00003FFFFE
FFFFFC00000000003FFFFFFF80003FFFFE
FFFFFC00000000001FFFFFFFC0003FFFFE
FFFFFC00000000000FFFFFFFE0003FFFFE
FFFFFC000000000007FFFFFFF0003FFFFE
FFFFFC000000000003FFFFFFFC003FFFFE
FFFFFC000000000001FFFFFFFE003FFFFE
FFFFFC000000000000FFFFFFFF003FFFFE
FFFFFC0000000000007FFFFFFF803FFFFE
FFFFFC0000000000003FFFFFFFC03FFFFE
FFFFFC0000000000001FFFFFFFE03FFFFE
FFFFFC0000000000000FFFFFFFF03FFFFE
FFFFFC00000000000007FFFFFFF83FFFFE
FFFFFC00000000000003FFFFFFFC3FFFFE
FFFFFC00000000000001FFFFFFFE3FFFFE
FFFFFC00000000000000FFFFFFFF3FFFFE
FFFFFC000000000000007FFFFFFFBFFFFE
FFFFFC000000000000003FFFFFFFFFFFFE
FFFFFC000000000000001FFFFFFFFFFFFE
FFFFFC000000000000000FFFFFFFFFFFFE
FFFFFC0000000000000007FFFFFFFFFFFE
FFFFFC0000000000000003FFFFFFFFFFFE
FFFFFC0000000000000001FFFFFFFFFFFE
FFFFFC0000000000000000FFFFFFFFFFFE
FFFFFC00000000000000007FFFFFFFFFFE
FFFFFC00000000000000003FFFFFFFFFFE
FFFFFC00000000000000001FFFFFFFFFFE
FFFFFC00000000000000000FFFFFFFFFFE
FFFFFC000000000000000007FFFFFFFFFE
FFFFFC000000000000000003FFFFFFFFFE
FFFFFC000000000000000001FFFFFFFFFE
FFFFFC000000000000000000FFFFFFFFFE
FFFFFC0000000000000000007FFFFFFFFE
FFFFFC0000000000000000003FFFFFFFFE
FFFFFC0000000000000000001FFFFFFFFE
FFFFFC0000000000000000000FFFFFFFFE
FFFFFC00000000000000000007FFFFFFFE
FFFFFC00000000000000000003FFFFFFFE
FFFFFC00000000000000000001FFFFFFFE
FFFFFC000000000000000000007FFFFFFE
FFFFFC000000000000000000003FFFFFFE
FFFFFC000000000000000000001FFFFFFE
FFFFFC000000000000000000000FFFFFFE
FFFFFC0000000000000000000007FFFFFE
FFFFFC0000000000000000000003FFFFFE
FFFFFC0000000000000000000001FFFFFC
FFFFFC0000000000000000000000FFFFFC
FFFFFC00000000000000000000007FFFFC
FFFFFC00000000000000000000003FFFF8
FFFFFC00000000000000000000001FFFF0
FFFFFC00000000000000000000000FFFE0
FFFFFC000000000000000000000003FFC0
FFFFFC000000000000000000000000FE00
ENDCHAR
STARTCHAR O
ENCODING 79
SWIDTH 968 0
DWIDTH 174 0
BBX 159 131 8 0
BITMAP
00000000000003FFFFFFFFFFFF00000000000000
000000000000FFFFFFFFFFFFFFFC000000000000
00000000000FFFFFFFFFFFFFFFFFC00000000000
00000000007FFFFFFFFFFFFFFFFFFC0000000000
0000000003FFFFFFFFFFFFFFFFFFFF8000000000
000000000FFFFFFFFFFFFFFFFFFFFFE000000000
000000007FFFFFFFFFFFFFFFFFFFFFF800000000
00000001FFFFFFFFFFFFFFFFFFFFFFFE00000000
00000003FFFFFFFFFFFFFFFFFFFFFFFF80000000
0000000FFFFFFFFFFFFFFFFFFFFFFFFFE0000000
0000003FFFFFFFFFFFFFFFFFFFFFFFFFF0000000
0000007FFFFFFFFFFFFFFFFFFFFFFFFFFC000000
000000FFFFFFFFFFFFFFFFFFFFFFFFFFFE000000
000003FFFFFFFFFFFFFFFFFFFFFFFFFFFF000000
000007FFFFFFFFFFFFFFFFFFFFFFFFFFFFC00000
00000FFFFFFFFFFFFFFFFFFFFFFFFFFFFFE00000
00001FFFFFFFFFFFFFFFFFFFFFFFFFFFFFF00000
00003FFFFFFFFFFFFFFFFFFFFFFFFFFFFFF80000
00007FFFFFFFFFFFFFFFFFFFFFFFFFFFFFFC0000
0000FFFFFFFFFFFFFFFFFFFFFFFFFFFFFFFE0000
0001FFFFFFFFFFFFFFFFFFFFFFFFFFFFFFFF0000
0003FFFFFFFFFFFFFFFFFFFFFFFFFFFFFFFF8000
0007FFFFFFFFFFFFFFFFFFFFFFFFFFFFFFFF8000
000FFFFFFFFFFF000000000003FFFFFFFFFFC000
000FFFFFFFFFE00000000000001FFFFFFFFFE000
001FFFFFFFFF0000000000000003FFFFFFFFF000
003FFFFFFFFC00000000000000007FFFFFFFF000
003FFFFFFFF000000000000000001FFFFFFFF800
007FFFFFFFC000000000000000000FFFFFFFFC00
00FFFFFFFF00000000000000000003FFFFFFFC00
00FFFFFFFE00000000000000000000FFFFFFFE00
01FFFFFFFC000000000000000000007FFFFFFE00
01FFFFFFF0000000000000000000003FFFFFFF00
03FFFFFFE0000000000000000000001FFFFFFF00
03FFFFFFC0000000000000000000000FFFFFFF80
07FFFFFF800000000000000000000007FFFFFF80
07FFFFFF000000000000000000000003FFFFFFC0
0FFFFFFF000000000000000000000001FFFFFFC0
0FFFFFFE000000000000000000000000FFFFFFE0
0FFFFFFC000000000000000000000000FFFFFFE0
1FFFFFF80000000000000000000000007FFFFFE0
1FFFFFF80000000000000000000000003FFFFFF0
1FFFFFF00000000000000000000000003FFFFFF0
3FFFFFF00000000000000000000000001FFFFFF0
3FFFFFE00000000000000000000000001FFFFFF0
3FFFFFE00000000000000000000000000FFFFFF8
3FFFFFC00000000000000000000000000FFFFFF8
7FFFFFC000000000000000000000000007FFFFF8
7FFFFF8000000000000000000000000007FFFFF8
7FFFFF8000000000000000000000000003FFFFFC
7FFFFF8000000000000000000000000003FFFFFC
7FFFFF0000000000000000000000000003FFFFFC
FFFFFF0000000000000000000000000001FFFFFC
FFFFFF0000000000000000000000000001FFFFFC
FFFFFF0000000000000000000000000001FFFFFC
FFFFFE0000000000000000000000000001FFFFFE
FFFFFE0000000000000000000000000001FFFFFE
FFFFFE0000000000000000000000000000FFFFFE
FFFFFE0000000000000000000000000000FFFFFE
FFFFFE0000000000000000000000000000FFFFFE
FFFFFE0000000000000000000000000000FFFFFE
FFFFFE0000000000000000000000000000FFFFFE
FFFFFC0000000000000000000000000000FFFFFE
FFFFFC0000000000000000000000000000FFFFFE
FFFFFC0000000000000000000000000000FFFFFE
FFFFFC0000000000000000000000000000FFFFFE
FFFFFC0000000000000000000000000000FFFFFE
FFFFFC0000000000000000000000000000FFFFFE
FFFFFE0000000000000000000000000000FFFFFE
FFFFFE0000000000000000000000000000FFFFFE
FFFFFE0000000000000000000000000000FFFFFE
FFFFFE0000000000000000000000000000FFFFFE
FFFFFE0000000000000000000000000000FFFFFE
FFFFFE0000000000000000000000000001FFFFFC
FFFFFE0000000000000000000000000001FFFFFC
FFFFFE0000000000000000000000000001FFFFFC
7FFFFF0000000000000000000000000001FFFFFC
7FFFFF0000000000000000000000000001FFFFFC
7FFFFF0000000000000000000000000003FFFFFC
7FFFFF0000000000000000000000000003FFFFFC
7FFFFF8000000000000000000000000003FFFFF8
7FFFFF8000000000000000000000000007FFFFF8
3FFFFFC000000000000000000000000007FFFFF8
3FFFFFC000000000000000000000000007FFFFF8
3FFFFFC00000000000000000000000000FFFFFF0
1FFFFFE00000000000000000000000000FFFFFF0
1FFFFFE00000000000000000000000001FFFFFF0
1FFFFFF00000000000000000000000001FFFFFE0
0FFFFFF00000000000000000000000003FFFFFE0
0FFFFFF80000000000000000000000003FFFFFE0
0FFFFFFC0000000000000000000000007FFFFFC0
07FFFFFC000000000000000000000000FFFFFFC0
07FFFFFE000000000000000000000000FFFFFF80
07FFFFFF000000000000000000000001FFFFFF80
03FFFFFF800000000000000000000003FFFFFF80
03FFFFFFC00000000000000000000007FFFFFF00
01FFFFFFC0000000000000000000000FFFFFFF00
01FFFFFFE0000000000000000000001FFFFFFE00
00FFFFFFF8000000000000000000003FFFFFFE00
00FFFFFFFC000000000000000000007FFFFFFC00
007FFFFFFE00000000000000000001FFFFFFF800
003FFFFFFF80000000000000000003FFFFFFF800
003FFFFFFFC000000000000000000FFFFFFFF000
001FFFFFFFF000000000000000003FFFFFFFF000
000FFFFFFFFC0000000000000000FFFFFFFFE000
000FFFFFFFFF0000000000000003FFFFFFFFC000
0007FFFFFFFFE00000000000001FFFFFFFFF8000
0003FFFFFFFFFF000000000001FFFFFFFFFF8000
0001FFFFFFFFFFFFFFFFFFFFFFFFFFFFFFFF0000
0000FFFFFFFFFFFFFFFFFFFFFFFFFFFFFFFE0000
0000FFFFFFFFFFFFFFFFFFFFFFFFFFFFFFFC0000
00007FFFFFFFFFFFFFFFFFFFFFFFFFFFFFF80000
00003FFFFFFFFFFFFFFFFFFFFFFFFFFFFFF00000
00001FFFFFFFFFFFFFFFFFFFFFFFFFFFFFE00000
00000FFFFFFFFFFFFFFFFFFFFFFFFFFFFFC00000
000007FFFFFFFFFFFFFFFFFFFFFFFFFFFF800000
000001FFFFFFFFFFFFFFFFFFFFFFFFFFFF000000
000000FFFFFFFFFFFFFFFFFFFFFFFFFFFE000000
0000007FFFFFFFFFFFFFFFFFFFFFFFFFF8000000
0000001FFFFFFFFFFFFFFFFFFFFFFFFFF0000000
0000000FFFFFFFFFFFFFFFFFFFFFFFFFE0000000
00000003FFFFFFFFFFFFFFFFFFFFFFFF80000000
00000001FFFFFFFFFFFFFFFFFFFFFFFE00000000
000000007FFFFFFFFFFFFFFFFFFFFFFC00000000
000000001FFFFFFFFFFFFFFFFFFFFFF000000000
0000000007FFFFFFFFFFFFFFFFFFFFC000000000
0000000001FFFFFFFFFFFFFFFFFFFE0000000000
00000000003FFFFFFFFFFFFFFFFFF00000000000
000000000007FFFFFFFFFFFFFFFFC00000000000
0000000000007FFFFFFFFFFFFFFC000000000000
00000000000003FFFFFFFFFFFE00000000000000
ENDCHAR
STARTCHAR P
ENCODING 80
SWIDTH 867 0
DWIDTH 156 0
BBX 140 131 11 0
BITMAP
FFFFFFFFFFFFFFFFFFFFFFFFF80000000000
FFFFFFFFFFFFFFFFFFFFFFFFFFC000000000
FFFFFFFFFFFFFFFFFFFFFFFFFFFC00000000
FFFFFFFFFFFFFFFFFFFFFFFFFFFF80000000
FFFFFFFFFFFFFFFFFFFFFFFFFFFFE0000000
FFFFFFFFFFFFFFFFFFFFFFFFFFFFFC000000
FFFFFFFFFFFFFFFFFFFFFFFFFFFFFE000000
FFFFFFFFFFFFFFFFFFFFFFFFFFFFFF800000
FFFFFFFFFFFFFFFFFFFFFFFFFFFFFFE00000
FFFFFFFFFFFFFFFFFFFFFFFFFFFFFFF00000
FFFFFFFFFFFFFFFFFFFFFFFFFFFFFFF80000
FFFFFFFFFFFFFFFFFFFFFFFFFFFFFFFC0000
FFFFFFFFFFFFFFFFFFFFFFFFFFFFFFFE0000
FFFFFFFFFFFFFFFFFFFFFFFFFFFFFFFF0000
FFFFFFFFFFFFFFFFFFFFFFFFFFFFFFFF8000
FFFFFFFFFFFFFFFFFFFFFFFFFFFFFFFFC000
FFFFFFFFFFFFFFFFFFFFFFFFFFFFFFFFE000
FFFFFFFFFFFFFFFFFFFFFFFFFFFFFFFFF000
FFFFFFFFFFFFFFFFFFFFFFFFFFFFFFFFF000
FFFFFFFFFFFFFFFFFFFFFFFFFFFFFFFFF800
FFFFFFFFFFFFFFFFFFFFFFFFFFFFFFFFFC00
FFFFFFFFFFFFFFFFFFFFFFFFFFFFFFFFFC00
FFFFFFFFFFFFFFFFFFFFFFFFFFFFFFFFFE00
FFFFFE0000000000000000001FFFFFFFFE00
FFFFFE00000000000000000001FFFFFFFF00
FFFFFE000000000000000000007FFFFFFF00
FFFFFE000000000000000000001FFFFFFF80
FFFFFE0000000000000000000007FFFFFF80
FFFFFE0000000000000000000003FFFFFF80
FFFFFE0000000000000000000001FFFFFFC0
FFFFFE0000000000000000000000FFFFFFC0
FFFFFE00000000000000000000007FFFFFC0
FFFFFE00000000000000000000003FFFFFE0
FFFFFE00000000000000000000003FFFFFE0
FFFFFE00000000000000000000001FFFFFE0
FFFFFE00000000000000000000001FFFFFE0
FFFFFE00000000000000000000000FFFFFE0
FFFFFE00000000000000000000000FFFFFF0
FFFFFE00000000000000000000000FFFFFF0
FFFFFE000000000000000000000007FFFFF0
FFFFFE000000000000000000000007FFFFF0
FFFFFE000000000000000000000007FFFFF0
FFFFFE000000000000000000000007FFFFF0
FFFFFE000000000000000000000003FFFFF0
FFFFFE000000000000000000000003FFFFF0
FFFFFE000000000000000000000003FFFFF0
FFFFFE000000000000000000000003FFFFF0
FFFFFE000000000000000000000003FFFFF0
FFFFFE000000000000000000000003FFFFF0
FFFFFE000000000000000000000003FFFFF0
FFFFFE000000000000000000000003FFFFF0
FFFFFE000000000000000000000003FFFFF0
FFFFFE000000000000000000000003FFFFF0
FFFFFE000000000000000000000007FFFFF0
FFFFFE000000000000000000000007FFFFF0
FFFFFE000000000000000000000007FFFFF0
FFFFFE000000000000000000000007FFFFF0
FFFFFE00000000000000000000000FFFFFE0
FFFFFE00000000000000000000000FFFFFE0
FFFFFE00000000000000000000000FFFFFE0
FFFFFE00000000000000000000001FFFFFE0
FFFFFE00000000000000000000001FFFFFE0
FFFFFE00000000000000000000003FFFFFC0
FFFFFE00000000000000000000007FFFFFC0
FFFFFE00000000000000000000007FFFFFC0
FFFFFE0000000000000000000000FFFFFF80
FFFFFE0000000000000000000001FFFFFF80
FFFFFE0000000000000000000003FFFFFF80
FFFFFE000000000000000000000FFFFFFF00
FFFFFE000000000000000000001FFFFFFF00
FFFFFE000000000000000000007FFFFFFE00
FFFFFE00000000000000000003FFFFFFFE00
FFFFFE0000000000000000003FFFFFFFFC00
FFFFFE0000FFFFFFFFFFFFFFFFFFFFFFFC00
FFFFFE0000FFFFFFFFFFFFFFFFFFFFFFF800
FFFFFE0000FFFFFFFFFFFFFFFFFFFFFFF800
FFFFFE0000FFFFFFFFFFFFFFFFFFFFFFF000
FFFFFE0000FFFFFFFFFFFFFFFFFFFFFFE000
FFFFFE0000FFFFFFFFFFFFFFFFFFFFFFC000
FFFFFE0000FFFFFFFFFFFFFFFFFFFFFF8000
FFFFFE0000FFFFFFFFFFFFFFFFFFFFFF8000
FFFFFE0000FFFFFFFFFFFFFFFFFFFFFF0000
FFFFFE0000FFFFFFFFFFFFFFFFFFFFFE0000
FFFFFE0000FFFFFFFFFFFFFFFFFFFFFC0000
FFFFFE0000FFFFFFFFFFFFFFFFFFFFF80000
FFFFFE0000FFFFFFFFFFFFFFFFFFFFE00000
FFFFFE0000FFFFFFFFFFFFFFFFFFFFC00000
FFFFFE0000FFFFFFFFFFFFFFFFFFFF000000
FFFFFE0000FFFFFFFFFFFFFFFFFFFE000000
FFFFFE0000FFFFFFFFFFFFFFFFFFF8000000
FFFFFE0000FFFFFFFFFFFFFFFFFFE0000000
FFFFFE0000FFFFFFFFFFFFFFFFFF00000000
FFFFFE0000FFFFFFFFFFFFFFFFFC00000000
FFFFFE0000FFFFFFFFFFFFFFFFC000000000
FFFFFE0000FFFFFFFFFFFFFFF80000000000
FFFFFE000000000000000000000000000000
FFFFFE000000000000000000000000000000
FFFFFE000000000000000000000000000000
FFFFFE000000000000000000000000000000
FFFFFE000000000000000000000000000000
FFFFFE000000000000000000000000000000
FFFFFE000000000000000000000000000000
FFFFFE000000000000000000000000000000
FFFFFE000000000000000000000000000000
FFFFFE000000000000000000000000000000
FFFFFE000000000000000000000000000000
FFFFFE000000000000000000000000000000
FFFFFE000000000000000000000000000000
FFFFFE000000000000000000000000000000
FFFFFE000000000000000000000000000000
FFFFFE000000000000000000000000000000
FFFFFE000000000000000000000000000000
FFFFFE000000000000000000000000000000
FFFFFE000000000000000000000000000000
FFFFFE000000000000000000000000000000
FFFFFE000000000000000000000000000000
FFFFFE000000000000000000000000000000
FFFFFE000000000000000000000000000000
FFFFFE000000000000000000000000000000
FFFFFE000000000000000000000000000000
FFFFFE000000000000000000000000000000
FFFFFE000000000000000000000000000000
FFFFFE000000000000000000000000000000
FFFFFE000000000000000000000000000000
FFFFFE000000000000000000000000000000
FFFFFE000000000000000000000000000000
FFFFFE000000000000000000000000000000
FFFFFE000000000000000000000000000000
FFFFFE000000000000000000000000000000
FFFFFE000000000000000000000000000000
FFFFFE000000000000000000000000000000
ENDCHAR
STARTCHAR Q
ENCODING 81
SWIDTH 968 0
DWIDTH 174 0
BBX 166 131 8 0
BITMAP
00000000000003FFFFFFFFFFFF0000000000000000
000000000000FFFFFFFFFFFFFFFC00000000000000
00000000000FFFFFFFFFFFFFFFFFC0000000000000
00000000007FFFFFFFFFFFFFFFFFFC000000000000
0000000003FFFFFFFFFFFFFFFFFFFF800000000000
000000000FFFFFFFFFFFFFFFFFFFFFE00000000000
000000007FFFFFFFFFFFFFFFFFFFFFF80000000000
00000001FFFFFFFFFFFFFFFFFFFFFFFE0000000000
00000003FFFFFFFFFFFFFFFFFFFFFFFF8000000000
0000000FFFFFFFFFFFFFFFFFFFFFFFFFE000000000
0000003FFFFFFFFFFFFFFFFFFFFFFFFFF000000000
0000007FFFFFFFFFFFFFFFFFFFFFFFFFFC00000000
000000FFFFFFFFFFFFFFFFFFFFFFFFFFFE00000000
000003FFFFFFFFFFFFFFFFFFFFFFFFFFFF00000000
000007FFFFFFFFFFFFFFFFFFFFFFFFFFFFC0000000
00000FFFFFFFFFFFFFFFFFFFFFFFFFFFFFE0000000
00001FFFFFFFFFFFFFFFFFFFFFFFFFFFFFF0000000
00003FFFFFFFFFFFFFFFFFFFFFFFFFFFFFF8000000
00007FFFFFFFFFFFFFFFFFFFFFFFFFFFFFFC000000
0000FFFFFFFFFFFFFFFFFFFFFFFFFFFFFFFE000000
0001FFFFFFFFFFFFFFFFFFFFFFFFFFFFFFFF000000
0003FFFFFFFFFFFFFFFFFFFFFFFFFFFFFFFF800000
0007FFFFFFFFFFFFFFFFFFFFFFFFFFFFFFFF800000
000FFFFFFFFFFF000000000003FFFFFFFFFFC00000
000FFFFFFFFFE00000000000001FFFFFFFFFE00000
001FFFFFFFFF0000000000000003FFFFFFFFF00000
003FFFFFFFFC00000000000000007FFFFFFFF00000
003FFFFFFFF000000000000000001FFFFFFFF80000
007FFFFFFFC000000000000000000FFFFFFFFC0000
00FFFFFFFF00000000000000000003FFFFFFFC0000
00FFFFFFFE00000000000000000000FFFFFFFE0000
01FFFFFFFC000000000000000000007FFFFFFE0000
01FFFFFFF0000000000000000000003FFFFFFF0000
03FFFFFFE0000000000000000000001FFFFFFF0000
03FFFFFFC0000000000000000000000FFFFFFF8000
07FFFFFF800000000000000000000007FFFFFF8000
07FFFFFF000000000000000000000003FFFFFFC000
0FFFFFFF000000000000000000000001FFFFFFC000
0FFFFFFE000000000000000000000000FFFFFFE000
0FFFFFFC000000000000000000000000FFFFFFE000
1FFFFFF80000000000000000000000007FFFFFE000
1FFFFFF80000000000000000000000003FFFFFF000
1FFFFFF00000000000000000000000003FFFFFF000
3FFFFFF00000000000000000000000001FFFFFF000
3FFFFFE00000000000000000000000001FFFFFF000
3FFFFFE00000000000000000000000000FFFFFF800
3FFFFFC00000000000000000000000000FFFFFF800
7FFFFFC000000000000000000000000007FFFFF800
7FFFFF8000000000000000000000000007FFFFF800
7FFFFF8000000000000000000000000003FFFFFC00
7FFFFF8000000000000000000000000003FFFFFC00
7FFFFF0000000000000000000000000003FFFFFC00
FFFFFF0000000000000000000000000001FFFFFC00
FFFFFF0000000000000000000000000001FFFFFC00
FFFFFF0000000000000000000000000001FFFFFC00
FFFFFE0000000000000000000000000001FFFFFE00
FFFFFE0000000000000000000000000001FFFFFE00
FFFFFE0000000000000000000000000000FFFFFE00
FFFFFE0000000000000000000000000000FFFFFE00
FFFFFE0000000000000000000000000000FFFFFE00
FFFFFE0000000000000000000000000000FFFFFE00
FFFFFE0000000000000000000000000000FFFFFE00
FFFFFC0000000000000000000000000000FFFFFE00
FFFFFC0000000000000000000000000000FFFFFE00
FFFFFC0000000000000000000000000000FFFFFE00
FFFFFC0000000000000000000000000000FFFFFE00
FFFFFC0000000000000000000000000000FFFFFE00
FFFFFC0000000000000000000000000000FFFFFE00
FFFFFE0000000000000000000000000000FFFFFE00
FFFFFE0000000000000000000000000000FFFFFE00
FFFFFE0000000000000000000000000000FFFFFE00
FFFFFE0000000000000000000000000000FFFFFE00
FFFFFE0000000000000000000000000000FFFFFE00
FFFFFE0000000000000000000000000001FFFFFC00
FFFFFE0000000000000000000000000001FFFFFC00
FFFFFE0000000000000000000000000001FFFFFC00
7FFFFF0000000000080000000000000001FFFFFC00
7FFFFF000000000007FFFFFFE000000001FFFFFC00
7FFFFF000000000003FFFFFFF800000003FFFFFC00
7FFFFF000000000000FFFFFFFC00000003FFFFFC00
7FFFFF8000000000007FFFFFFE00000003FFFFF800
7FFFFF8000000000003FFFFFFF00000007FFFFF800
3FFFFFC000000000000FFFFFFF80000007FFFFF800
3FFFFFC0000000000007FFFFFFE0000007FFFFF800
3FFFFFC0000000000003FFFFFFF000000FFFFFF000
1FFFFFE0000000000001FFFFFFF800000FFFFFF000
1FFFFFE00000000000007FFFFFFC00001FFFFFF000
1FFFFFF00000000000003FFFFFFE00001FFFFFE000
0FFFFFF00000000000001FFFFFFF00003FFFFFE000
0FFFFFF80000000000000FFFFFFFC0003FFFFFE000
0FFFFFFC00000000000003FFFFFFE0007FFFFFC000
07FFFFFC00000000000001FFFFFFF000FFFFFFC000
07FFFFFE00000000000000FFFFFFF801FFFFFFC000
07FFFFFF000000000000003FFFFFFC01FFFFFF8000
03FFFFFF800000000000001FFFFFFF03FFFFFF8000
03FFFFFFC00000000000000FFFFFFF87FFFFFF0000
01FFFFFFC000000000000007FFFFFFCFFFFFFF0000
01FFFFFFE000000000000001FFFFFFFFFFFFFE0000
00FFFFFFF800000000000000FFFFFFFFFFFFFE0000
00FFFFFFFC000000000000007FFFFFFFFFFFFC0000
007FFFFFFE000000000000003FFFFFFFFFFFF80000
003FFFFFFF800000000000000FFFFFFFFFFFF80000
003FFFFFFFC000000000000007FFFFFFFFFFF00000
001FFFFFFFF000000000000003FFFFFFFFFFF00000
000FFFFFFFFC00000000000001FFFFFFFFFFE00000
000FFFFFFFFF000000000000007FFFFFFFFFC00000
0007FFFFFFFFE00000000000003FFFFFFFFF800000
0003FFFFFFFFFF000000000003FFFFFFFFFF800000
0001FFFFFFFFFFFFFFFFFFFFFFFFFFFFFFFF000000
0000FFFFFFFFFFFFFFFFFFFFFFFFFFFFFFFE000000
0000FFFFFFFFFFFFFFFFFFFFFFFFFFFFFFFC000000
00007FFFFFFFFFFFFFFFFFFFFFFFFFFFFFF8000000
00003FFFFFFFFFFFFFFFFFFFFFFFFFFFFFFC000000
00001FFFFFFFFFFFFFFFFFFFFFFFFFFFFFFE000000
00000FFFFFFFFFFFFFFFFFFFFFFFFFFFFFFF000000
000007FFFFFFFFFFFFFFFFFFFFFFFFFFFFFFC00000
000001FFFFFFFFFFFFFFFFFFFFFFFFFFFFFFE00000
000000FFFFFFFFFFFFFFFFFFFFFFFFFFFFFFF00000
0000007FFFFFFFFFFFFFFFFFFFFFFFFFFFFFF80000
0000001FFFFFFFFFFFFFFFFFFFFFFFFFFFFFFE0000
0000000FFFFFFFFFFFFFFFFFFFFFFFFFFFFFFF0000
00000003FFFFFFFFFFFFFFFFFFFFFFFFFFFFFF8000
00000001FFFFFFFFFFFFFFFFFFFFFFFFFFFFFFE000
000000007FFFFFFFFFFFFFFFFFFFFFFFFFFFFFF000
000000001FFFFFFFFFFFFFFFFFFFFFF0FFFFFFF800
0000000007FFFFFFFFFFFFFFFFFFFF807FFFFFFC00
0000000001FFFFFFFFFFFFFFFFFFFE003FFFFFFF00
00000000003FFFFFFFFFFFFFFFFFF0001FFFFFFF80
000000000007FFFFFFFFFFFFFFFF80000FFFFFFFC0
0000000000007FFFFFFFFFFFFFF8000007FFFFFFF0
00000000000003FFFFFFFFFFFE00000001FFFFFFFC
ENDCHAR
STARTCHAR R
ENCODING 82
SWIDTH 921 0
DWIDTH 166 0
BBX 154 131 11 0
BITMAP
FFFFFFFFFFFFFFFFFFFFFFFFFE00000000000000
FFFFFFFFFFFFFFFFFFFFFFFFFFF0000000000000
FFFFFFFFFFFFFFFFFFFFFFFFFFFF000000000000
FFFFFFFFFFFFFFFFFFFFFFFFFFFFE00000000000
FFFFFFFFFFFFFFFFFFFFFFFFFFFFF80000000000
FFFFFFFFFFFFFFFFFFFFFFFFFFFFFE0000000000
FFFFFFFFFFFFFFFFFFFFFFFFFFFFFF8000000000
FFFFFFFFFFFFFFFFFFFFFFFFFFFFFFE000000000
FFFFFFFFFFFFFFFFFFFFFFFFFFFFFFF000000000
FFFFFFFFFFFFFFFFFFFFFFFFFFFFFFF800000000
FFFFFFFFFFFFFFFFFFFFFFFFFFFFFFFE00000000
FFFFFFFFFFFFFFFFFFFFFFFFFFFFFFFF00000000
FFFFFFFFFFFFFFFFFFFFFFFFFFFFFFFF80000000
FFFFFFFFFFFFFFFFFFFFFFFFFFFFFFFFC0000000
FFFFFFFFFFFFFFFFFFFFFFFFFFFFFFFFE0000000
FFFFFFFFFFFFFFFFFFFFFFFFFFFFFFFFF0000000
FFFFFFFFFFFFFFFFFFFFFFFFFFFFFFFFF0000000
FFFFFFFFFFFFFFFFFFFFFFFFFFFFFFFFF8000000
FFFFFFFFFFFFFFFFFFFFFFFFFFFFFFFFFC000000
FFFFFFFFFFFFFFFFFFFFFFFFFFFFFFFFFC000000
FFFFFFFFFFFFFFFFFFFFFFFFFFFFFFFFFE000000
FFFFFFFFFFFFFFFFFFFFFFFFFFFFFFFFFF000000
FFFFFFFFFFFFFFFFFFFFFFFFFFFFFFFFFF000000
FFFFFE00000000000000000007FFFFFFFF800000
FFFFFE000000000000000000007FFFFFFF800000
FFFFFE000000000000000000001FFFFFFFC00000
FFFFFE0000000000000000000007FFFFFFC00000
FFFFFE0000000000000000000001FFFFFFC00000
FFFFFE0000000000000000000000FFFFFFE00000
FFFFFE00000000000000000000007FFFFFE00000
FFFFFE00000000000000000000003FFFFFE00000
FFFFFE00000000000000000000001FFFFFF00000
FFFFFE00000000000000000000001FFFFFF00000
FFFFFE00000000000000000000000FFFFFF00000
FFFFFE000000000000000000000007FFFFF00000
FFFFFE000000000000000000000007FFFFF80000
FFFFFE000000000000000000000007FFFFF80000
FFFFFE000000000000000000000003FFFFF80000
FFFFFE000000000000000000000003FFFFF80000
FFFFFE000000000000000000000003FFFFF80000
FFFFFE000000000000000000000001FFFFF80000
FFFFFE000000000000000000000001FFFFFC0000
FFFFFE000000000000000000000001FFFFFC0000
FFFFFE000000000000000000000001FFFFFC0000
FFFFFE000000000000000000000001FFFFFC0000
FFFFFE000000000000000000000001FFFFFC0000
FFFFFE000000000000000000000001FFFFFC0000
FFFFFE000000000000000000000001FFFFFC0000
FFFFFE000000000000000000000001FFFFFC0000
FFFFFE000000000000000000000001FFFFFC0000
FFFFFE000000000000000000000001FFFFFC0000
FFFFFE000000000000000000000001FFFFFC0000
FFFFFE000000000000000000000001FFFFFC0000
FFFFFE000000000000000000000001FFFFFC0000
FFFFFE000000000000000000000001FFFFFC0000
FFFFFE000000000000000000000001FFFFF80000
FFFFFE000000000000000000000001FFFFF80000
FFFFFE000000000000000000000003FFFFF80000
FFFFFE000000000000000000000003FFFFF80000
FFFFFE000000000000000000000003FFFFF80000
FFFFFE000000000000000000000007FFFFF80000
FFFFFE000000000000000000000007FFFFF00000
FFFFFE000000000000000000000007FFFFF00000
FFFFFE00000000000000000000000FFFFFF00000
FFFFFE00000000000000000000000FFFFFF00000
FFFFFE00000000000000000000001FFFFFE00000
FFFFFE00000000000000000000003FFFFFE00000
FFFFFE00000000000000000000003FFFFFE00000
FFFFFE00000000000000000000007FFFFFC00000
FFFFFE0000000000000000000000FFFFFFC00000
FFFFFE0000000000000000000003FFFFFFC00000
FFFFFE0000000000000000000007FFFFFF800000
FFFFFE000000000000000000001FFFFFFF800000
FFFFFE000000000000000000007FFFFFFF000000
FFFFFE00000000000000000007FFFFFFFE000000
FFFFFE0000FFFFFFFFFFFFFFFFFFFFFFFE000000
FFFFFE0000FFFFFFFFFFFFFFFFFFFFFFFC000000
FFFFFE0000FFFFFFFFFFFFFFFFFFFFFFF8000000
FFFFFE0000FFFFFFFFFFFFFFFFFFFFFFF8000000
FFFFFE0000FFFFFFFFFFFFFFFFFFFFFFF0000000
FFFFFE0000FFFFFFFFFFFFFFFFFFFFFFE0000000
FFFFFE0000FFFFFFFFFFFFFFFFFFFFFFC0000000
FFFFFE0000FFFFFFFFFFFFFFFFFFFFFF80000000
FFFFFE0000FFFFFFFFFFFFFFFFFFFFFF00000000
FFFFFE0000FFFFFFFFFFFFFFFFFFFFFE00000000
FFFFFE0000FFFFFFFFFFFFFFFFFFFFFC00000000
FFFFFE0000FFFFFFFFFFFFFFFFFFFFF000000000
FFFFFE0000FFFFFFFFFFFFFFFFFFFFE000000000
FFFFFE0000FFFFFFFFFFFFFFFFFFFF8000000000
FFFFFE0000FFFFFFFFFFFFFFFFFFFE0000000000
FFFFFE0000FFFFFFFFFFFFFFFFFFF80000000000
FFFFFE0000FFFFFFFFFFFFFFFFFFE00000000000
FFFFFE0000FFFFFFFFFFFFFFFFFFF00000000000
FFFFFE0000FFFFFFFFFFFFFFFFFFF80000000000
FFFFFE0000FFFFFFFFFFFFFFFFFFFC0000000000
FFFFFE00000000000000007FFFFFFE0000000000
FFFFFE00000000000000003FFFFFFF0000000000
FFFFFE00000000000000001FFFFFFF8000000000
FFFFFE00000000000000000FFFFFFFC000000000
FFFFFE000000000000000007FFFFFFE000000000
FFFFFE000000000000000003FFFFFFF000000000
FFFFFE000000000000000001FFFFFFF800000000
FFFFFE000000000000000000FFFFFFFC00000000
FFFFFE0000000000000000007FFFFFFE00000000
FFFFFE0000000000000000007FFFFFFF00000000
FFFFFE0000000000000000003FFFFFFF80000000
FFFFFE0000000000000000001FFFFFFFC0000000
FFFFFE0000000000000000000FFFFFFFE0000000
FFFFFE00000000000000000007FFFFFFF0000000
FFFFFE00000000000000000003FFFFFFF8000000
FFFFFE00000000000000000001FFFFFFFC000000
FFFFFE00000000000000000000FFFFFFFE000000
FFFFFE000000000000000000007FFFFFFF000000
FFFFFE000000000000000000003FFFFFFF800000
FFFFFE000000000000000000001FFFFFFFC00000
FFFFFE000000000000000000000FFFFFFFE00000
FFFFFE000000000000000000000FFFFFFFF00000
FFFFFE0000000000000000000007FFFFFFF80000
FFFFFE0000000000000000000003FFFFFFFC0000
FFFFFE0000000000000000000001FFFFFFFE0000
FFFFFE0000000000000000000000FFFFFFFF0000
FFFFFE00000000000000000000007FFFFFFF8000
FFFFFE00000000000000000000003FFFFFFFC000
FFFFFE00000000000000000000001FFFFFFFE000
FFFFFE00000000000000000000000FFFFFFFF000
FFFFFE000000000000000000000007FFFFFFF800
FFFFFE000000000000000000000003FFFFFFFC00
FFFFFE000000000000000000000001FFFFFFFE00
FFFFFE000000000000000000000000FFFFFFFF00
FFFFFE000000000000000000000000FFFFFFFF80
FFFFFE0000000000000000000000007FFFFFFFC0
ENDCHAR
STARTCHAR S
ENCODING 83
SWIDTH 880 0
DWIDTH 158 0
BBX 141 131 9 0
BITMAP
000000007FFFFFFFFFFFFFFFFFFFFFFFFE00
0000000FFFFFFFFFFFFFFFFFFFFFFFFFFE00
000000FFFFFFFFFFFFFFFFFFFFFFFFFFFE00
000003FFFFFFFFFFFFFFFFFFFFFFFFFFFE00
00001FFFFFFFFFFFFFFFFFFFFFFFFFFFFE00
00007FFFFFFFFFFFFFFFFFFFFFFFFFFFFE00
0000FFFFFFFFFFFFFFFFFFFFFFFFFFFFFE00
0003FFFFFFFFFFFFFFFFFFFFFFFFFFFFFE00
0007FFFFFFFFFFFFFFFFFFFFFFFFFFFFFE00
000FFFFFFFFFFFFFFFFFFFFFFFFFFFFFFE00
001FFFFFFFFFFFFFFFFFFFFFFFFFFFFFFE00
003FFFFFFFFFFFFFFFFFFFFFFFFFFFFFFE00
007FFFFFFFFFFFFFFFFFFFFFFFFFFFFFFE00
00FFFFFFFFFFFFFFFFFFFFFFFFFFFFFFFE00
01FFFFFFFFFFFFFFFFFFFFFFFFFFFFFFFE00
03FFFFFFFFFFFFFFFFFFFFFFFFFFFFFFFE00
03FFFFFFFFFFFFFFFFFFFFFFFFFFFFFFFE00
07FFFFFFFFFFFFFFFFFFFFFFFFFFFFFFFE00
07FFFFFFFFFFFFFFFFFFFFFFFFFFFFFFFE00
0FFFFFFFFFFFFFFFFFFFFFFFFFFFFFFFFE00
0FFFFFFFFFFFFFFFFFFFFFFFFFFFFFFFFE00
1FFFFFFFFFFFFFFFFFFFFFFFFFFFFFFFFE00
1FFFFFFFFFFFFFFFFFFFFFFFFFFFFFFFFE00
3FFFFFFFE000000000000000000000000000
3FFFFFFF0000000000000000000000000000
3FFFFFFC0000000000000000000000000000
3FFFFFF80000000000000000000000000000
7FFFFFF00000000000000000000000000000
7FFFFFE00000000000000000000000000000
7FFFFFE00000000000000000000000000000
7FFFFFC00000000000000000000000000000
7FFFFF800000000000000000000000000000
7FFFFF800000000000000000000000000000
FFFFFF800000000000000000000000000000
FFFFFF800000000000000000000000000000
FFFFFF000000000000000000000000000000
FFFFFF000000000000000000000000000000
FFFFFF000000000000000000000000000000
FFFFFF000000000000000000000000000000
FFFFFF000000000000000000000000000000
7FFFFF000000000000000000000000000000
7FFFFF000000000000000000000000000000
7FFFFF000000000000000000000000000000
7FFFFF800000000000000000000000000000
7FFFFF800000000000000000000000000000
7FFFFF800000000000000000000000000000
7FFFFFC00000000000000000000000000000
3FFFFFC00000000000000000000000000000
3FFFFFE00000000000000000000000000000
3FFFFFE00000000000000000000000000000
1FFFFFF00000000000000000000000000000
1FFFFFF80000000000000000000000000000
1FFFFFFE0000000000000000000000000000
0FFFFFFF8000000000000000000000000000
0FFFFFFFF000000000000000000000000000
07FFFFFFFFFFFFFFFFFFFFFFFFF800000000
03FFFFFFFFFFFFFFFFFFFFFFFFFFE0000000
03FFFFFFFFFFFFFFFFFFFFFFFFFFFE000000
01FFFFFFFFFFFFFFFFFFFFFFFFFFFF800000
00FFFFFFFFFFFFFFFFFFFFFFFFFFFFF00000
00FFFFFFFFFFFFFFFFFFFFFFFFFFFFF80000
007FFFFFFFFFFFFFFFFFFFFFFFFFFFFE0000
003FFFFFFFFFFFFFFFFFFFFFFFFFFFFF8000
001FFFFFFFFFFFFFFFFFFFFFFFFFFFFFC000
000FFFFFFFFFFFFFFFFFFFFFFFFFFFFFE000
0007FFFFFFFFFFFFFFFFFFFFFFFFFFFFF000
0001FFFFFFFFFFFFFFFFFFFFFFFFFFFFF800
0000FFFFFFFFFFFFFFFFFFFFFFFFFFFFFC00
00003FFFFFFFFFFFFFFFFFFFFFFFFFFFFE00
00000FFFFFFFFFFFFFFFFFFFFFFFFFFFFE00
000003FFFFFFFFFFFFFFFFFFFFFFFFFFFF00
000000FFFFFFFFFFFFFFFFFFFFFFFFFFFF00
0000000FFFFFFFFFFFFFFFFFFFFFFFFFFF80
000000007FFFFFFFFFFFFFFFFFFFFFFFFF80
000000000000000000000000003FFFFFFFC0
0000000000000000000000000003FFFFFFC0
0000000000000000000000000000FFFFFFE0
00000000000000000000000000003FFFFFE0
00000000000000000000000000001FFFFFE0
00000000000000000000000000000FFFFFF0
000000000000000000000000000007FFFFF0
000000000000000000000000000007FFFFF0
000000000000000000000000000003FFFFF0
000000000000000000000000000003FFFFF0
000000000000000000000000000001FFFFF8
000000000000000000000000000001FFFFF8
000000000000000000000000000001FFFFF8
000000000000000000000000000001FFFFF8
000000000000000000000000000001FFFFF8
000000000000000000000000000001FFFFF8
000000000000000000000000000001FFFFF8
000000000000000000000000000001FFFFF8
000000000000000000000000000001FFFFF8
000000000000000000000000000001FFFFF8
000000000000000000000000000001FFFFF8
000000000000000000000000000001FFFFF8
000000000000000000000000000001FFFFF8
000000000000000000000000000003FFFFF8
000000000000000000000000000003FFFFF8
000000000000000000000000000003FFFFF8
000000000000000000000000000007FFFFF8
00000000000000000000000000000FFFFFF0
00000000000000000000000000001FFFFFF0
00000000000000000000000000003FFFFFF0
00000000000000000000000000007FFFFFF0
0000000000000000000000000000FFFFFFE0
0000000000000000000000000003FFFFFFE0
000000000000000000000000001FFFFFFFE0
3FFFFFFFFFFFFFFFFFFFFFFFFFFFFFFFFFC0
3FFFFFFFFFFFFFFFFFFFFFFFFFFFFFFFFFC0
3FFFFFFFFFFFFFFFFFFFFFFFFFFFFFFFFFC0
3FFFFFFFFFFFFFFFFFFFFFFFFFFFFFFFFF80
3FFFFFFFFFFFFFFFFFFFFFFFFFFFFFFFFF80
3FFFFFFFFFFFFFFFFFFFFFFFFFFFFFFFFF00
3FFFFFFFFFFFFFFFFFFFFFFFFFFFFFFFFE00
3FFFFFFFFFFFFFFFFFFFFFFFFFFFFFFFFE00
3FFFFFFFFFFFFFFFFFFFFFFFFFFFFFFFFC00
3FFFFFFFFFFFFFFFFFFFFFFFFFFFFFFFF800
3FFFFFFFFFFFFFFFFFFFFFFFFFFFFFFFF800
3FFFFFFFFFFFFFFFFFFFFFFFFFFFFFFFF000
3FFFFFFFFFFFFFFFFFFFFFFFFFFFFFFFE000
3FFFFFFFFFFFFFFFFFFFFFFFFFFFFFFFC000
3FFFFFFFFFFFFFFFFFFFFFFFFFFFFFFF0000
3FFFFFFFFFFFFFFFFFFFFFFFFFFFFFFE0000
3FFFFFFFFFFFFFFFFFFFFFFFFFFFFFFC0000
3FFFFFFFFFFFFFFFFFFFFFFFFFFFFFF00000
3FFFFFFFFFFFFFFFFFFFFFFFFFFFFFC00000
3FFFFFFFFFFFFFFFFFFFFFFFFFFFFF000000
3FFFFFFFFFFFFFFFFFFFFFFFFFFFF8000000
3FFFFFFFFFFFFFFFFFFFFFFFFFFFC0000000
3FFFFFFFFFFFFFFFFFFFFFFFFFF000000000
ENDCHAR
STARTCHAR T
ENCODING 84
SWIDTH 720 0
DWIDTH 130 0
BBX 122 131 4 0
BITMAP
FFFFFFFFFFFFFFFFFFFFFFFFFFFFFFC0
FFFFFFFFFFFFFFFFFFFFFFFFFFFFFFC0
FFFFFFFFFFFFFFFFFFFFFFFFFFFFFFC0
FFFFFFFFFFFFFFFFFFFFFFFFFFFFFFC0
FFFFFFFFFFFFFFFFFFFFFFFFFFFFFFC0
FFFFFFFFFFFFFFFFFFFFFFFFFFFFFFC0
FFFFFFFFFFFFFFFFFFFFFFFFFFFFFFC0
FFFFFFFFFFFFFFFFFFFFFFFFFFFFFFC0
FFFFFFFFFFFFFFFFFFFFFFFFFFFFFFC0
FFFFFFFFFFFFFFFFFFFFFFFFFFFFFFC0
FFFFFFFFFFFFFFFFFFFFFFFFFFFFFFC0
FFFFFFFFFFFFFFFFFFFFFFFFFFFFFFC0
FFFFFFFFFFFFFFFFFFFFFFFFFFFFFFC0
FFFFFFFFFFFFFFFFFFFFFFFFFFFFFFC0
FFFFFFFFFFFFFFFFFFFFFFFFFFFFFFC0
FFFFFFFFFFFFFFFFFFFFFFFFFFFFFFC0
FFFFFFFFFFFFFFFFFFFFFFFFFFFFFFC0
FFFFFFFFFFFFFFFFFFFFFFFFFFFFFFC0
FFFFFFFFFFFFFFFFFFFFFFFFFFFFFFC0
FFFFFFFFFFFFFFFFFFFFFFFFFFFFFFC0
FFFFFFFFFFFFFFFFFFFFFFFFFFFFFFC0
FFFFFFFFFFFFFFFFFFFFFFFFFFFFFFC0
FFFFFFFFFFFFFFFFFFFFFFFFFFFFFFC0
0000000000007FFFFF00000000000000
0000000000007FFFFF00000000000000
0000000000007FFFFF00000000000000
0000000000007FFFFF00000000000000
0000000000007FFFFF00000000000000
0000000000007FFFFF00000000000000
0000000000007FFFFF00000000000000
0000000000007FFFFF00000000000000
0000000000007FFFFF00000000000000
0000000000007FFFFF00000000000000
0000000000007FFFFF00000000000000
0000000000007FFFFF00000000000000
0000000000007FFFFF00000000000000
0000000000007FFFFF00000000000000
0000000000007FFFFF00000000000000
0000000000007FFFFF00000000000000
0000000000007FFFFF00000000000000
0000000000007FFFFF00000000000000
0000000000007FFFFF00000000000000
0000000000007FFFFF00000000000000
0000000000007FFFFF00000000000000
0000000000007FFFFF00000000000000
0000000000007FFFFF00000000000000
0000000000007FFFFF00000000000000
0000000000007FFFFF00000000000000
0000000000007FFFFF00000000000000
0000000000007FFFFF00000000000000
0000000000007FFFFF00000000000000
0000000000007FFFFF00000000000000
0000000000007FFFFF00000000000000
0000000000007FFFFF00000000000000
0000000000007FFFFF00000000000000
0000000000007FFFFF00000000000000
0000000000007FFFFF00000000000000
0000000000007FFFFF00000000000000
0000000000007FFFFF00000000000000
0000000000007FFFFF00000000000000
0000000000007FFFFF00000000000000
0000000000007FFFFF00000000000000
0000000000007FFFFF00000000000000
0000000000007FFFFF00000000000000
0000000000007FFFFF00000000000000
0000000000007FFFFF00000000000000
0000000000007FFFFF00000000000000
0000000000007FFFFF00000000000000
0000000000007FFFFF00000000000000
0000000000007FFFFF00000000000000
0000000000007FFFFF00000000000000
0000000000007FFFFF00000000000000
0000000000007FFFFF00000000000000
0000000000007FFFFF00000000000000
0000000000007FFFFF00000000000000
0000000000007FFFFF00000000000000
0000000000007FFFFF00000000000000
0000000000007FFFFF00000000000000
0000000000007FFFFF00000000000000
0000000000007FFFFF00000000000000
0000000000007FFFFF00000000000000
0000000000007FFFFF00000000000000
0000000000007FFFFF00000000000000
0000000000007FFFFF00000000000000
0000000000007FFFFF00000000000000
0000000000007FFFFF00000000000000
0000000000007FFFFF00000000000000
0000000000007FFFFF00000000000000
0000000000007FFFFF00000000000000
0000000000007FFFFF00000000000000
0000000000007FFFFF00000000000000
0000000000007FFFFF00000000000000
0000000000007FFFFF00000000000000
0000000000007FFFFF00000000000000
0000000000007FFFFF00000000000000
0000000000007FFFFF00000000000000
0000000000007FFFFF00000000000000
0000000000007FFFFF00000000000000
0000000000007FFFFF00000000000000
0000000000007FFFFF00000000000000
0000000000007FFFFF00000000000000
0000000000007FFFFF00000000000000
0000000000007FFFFF00000000000000
0000000000007FFFFF00000000000000
0000000000007FFFFF00000000000000
0000000000007FFFFF00000000000000
0000000000007FFFFF00000000000000
0000000000007FFFFF00000000000000
0000000000007FFFFF00000000000000
0000000000007FFFFF00000000000000
0000000000007FFFFF00000000000000
0000000000007FFFFF00000000000000
0000000000007FFFFF00000000000000
0000000000007FFFFF00000000000000
0000000000007FFFFF00000000000000
0000000000007FFFFF00000000000000
0000000000007FFFFF00000000000000
0000000000007FFFFF00000000000000
0000000000007FFFFF00000000000000
0000000000007FFFFF00000000000000
0000000000007FFFFF00000000000000
0000000000007FFFFF00000000000000
0000000000007FFFFF00000000000000
0000000000007FFFFF00000000000000
0000000000007FFFFF00000000000000
0000000000007FFFFF00000000000000
0000000000007FFFFF00000000000000
0000000000007FFFFF00000000000000
0000000000007FFFFF00000000000000
0000000000007FFFFF00000000000000
0000000000007FFFFF00000000000000
ENDCHAR
STARTCHAR U
ENCODING 85
SWIDTH 889 0
DWIDTH 160 0
BBX 142 133 9 -2
BITMAP
FFFFFF000000000000000000000001FFFFFC
FFFFFF000000000000000000000001FFFFFC
FFFFFF000000000000000000000001FFFFFC
FFFFFF000000000000000000000001FFFFFC
FFFFFF000000000000000000000001FFFFFC
FFFFFF000000000000000000000001FFFFFC
FFFFFF000000000000000000000001FFFFFC
FFFFFF000000000000000000000001FFFFFC
FFFFFF000000000000000000000001FFFFFC
FFFFFF000000000000000000000001FFFFFC
FFFFFF000000000000000000000001FFFFFC
FFFFFF000000000000000000000001FFFFFC
FFFFFF000000000000000000000001FFFFFC
FFFFFF000000000000000000000001FFFFFC
FFFFFF000000000000000000000001FFFFFC
FFFFFF000000000000000000000001FFFFFC
FFFFFF000000000000000000000001FFFFFC
FFFFFF000000000000000000000001FFFFFC
FFFFFF000000000000000000000001FFFFFC
FFFFFF000000000000000000000001FFFFFC
FFFFFF000000000000000000000001FFFFFC
FFFFFF000000000000000000000001FFFFFC
FFFFFF000000000000000000000001FFFFFC
FFFFFF000000000000000000000001FFFFFC
FFFFFF000000000000000000000001FFFFFC
FFFFFF000000000000000000000001FFFFFC
FFFFFF000000000000000000000001FFFFFC
FFFFFF000000000000000000000001FFFFFC
FFFFFF000000000000000000000001FFFFFC
FFFFFF000000000000000000000001FFFFFC
FFFFFF000000000000000000000001FFFFFC
FFFFFF000000000000000000000001FFFFFC
FFFFFF000000000000000000000001FFFFFC
FFFFFF000000000000000000000001FFFFFC
FFFFFF000000000000000000000001FFFFFC
FFFFFF000000000000000000000001FFFFFC
FFFFFF000000000000000000000001FFFFFC
FFFFFF000000000000000000000001FFFFFC
FFFFFF000000000000000000000001FFFFFC
FFFFFF000000000000000000000001FFFFFC
FFFFFF000000000000000000000001FFFFFC
FFFFFF000000000000000000000001FFFFFC
FFFFFF000000000000000000000001FFFFFC
FFFFFF000000000000000000000001FFFFFC
FFFFFF000000000000000000000001FFFFFC
FFFFFF000000000000000000000001FFFFFC
FFFFFF000000000000000000000001FFFFFC
FFFFFF000000000000000000000001FFFFFC
FFFFFF000000000000000000000001FFFFFC
FFFFFF000000000000000000000001FFFFFC
FFFFFF000000000000000000000001FFFFFC
FFFFFF000000000000000000000001FFFFFC
FFFFFF000000000000000000000001FFFFFC
FFFFFF000000000000000000000001FFFFFC
FFFFFF000000000000000000000001FFFFFC
FFFFFF000000000000000000000001FFFFFC
FFFFFF000000000000000000000001FFFFFC
FFFFFF000000000000000000000001FFFFFC
FFFFFF000000000000000000000001FFFFFC
FFFFFF000000000000000000000001FFFFFC
FFFFFF000000000000000000000001FFFFFC
FFFFFF000000000000000000000001FFFFFC
FFFFFF000000000000000000000001FFFFFC
FFFFFF000000000000000000000001FFFFFC
FFFFFF000000000000000000000001FFFFFC
FFFFFF000000000000000000000001FFFFFC
FFFFFF000000000000000000000001FFFFFC
FFFFFF000000000000000000000001FFFFFC
FFFFFF000000000000000000000001FFFFFC
FFFFFF000000000000000000000001FFFFFC
FFFFFF000000000000000000000001FFFFFC
FFFFFF000000000000000000000001FFFFFC
FFFFFF000000000000000000000001FFFFFC
FFFFFF000000000000000000000001FFFFFC
FFFFFF000000000000000000000001FFFFFC
FFFFFF000000000000000000000001FFFFFC
FFFFFF000000000000000000000001FFFFFC
FFFFFF000000000000000000000001FFFFFC
FFFFFF000000000000000000000001FFFFFC
7FFFFF000000000000000000000001FFFFF8
7FFFFF000000000000000000000001FFFFF8
7FFFFF000000000000000000000001FFFFF8
7FFFFF800000000000000000000001FFFFF8
7FFFFF800000000000000000000001FFFFF8
7FFFFF800000000000000000000003FFFFF8
7FFFFF800000000000000000000003FFFFF8
7FFFFF800000000000000000000003FFFFF8
7FFFFFC00000000000000000000003FFFFF8
7FFFFFC00000000000000000000007FFFFF0
3FFFFFC00000000000000000000007FFFFF0
3FFFFFE00000000000000000000007FFFFF0
3FFFFFE0000000000000000000000FFFFFF0
3FFFFFE0000000000000000000000FFFFFF0
3FFFFFF0000000000000000000001FFFFFE0
1FFFFFF0000000000000000000001FFFFFE0
1FFFFFF8000000000000000000003FFFFFE0
1FFFFFFC000000000000000000003FFFFFE0
0FFFFFFC000000000000000000007FFFFFC0
0FFFFFFE00000000000000000000FFFFFFC0
0FFFFFFF00000000000000000001FFFFFFC0
07FFFFFF80000000000000000003FFFFFF80
07FFFFFFC0000000000000000007FFFFFF80
07FFFFFFF000000000000000000FFFFFFF80
03FFFFFFF800000000000000003FFFFFFF00
03FFFFFFFE0000000000000000FFFFFFFF00
01FFFFFFFF8000000000000003FFFFFFFE00
01FFFFFFFFF00000000000000FFFFFFFFE00
00FFFFFFFFFE0000000000007FFFFFFFFC00
00FFFFFFFFFFE0000000000FFFFFFFFFFC00
007FFFFFFFFFFFC0000007FFFFFFFFFFF800
003FFFFFFFFFFFFFFFFFFFFFFFFFFFFFF000
003FFFFFFFFFFFFFFFFFFFFFFFFFFFFFF000
001FFFFFFFFFFFFFFFFFFFFFFFFFFFFFE000
000FFFFFFFFFFFFFFFFFFFFFFFFFFFFFC000
0007FFFFFFFFFFFFFFFFFFFFFFFFFFFF8000
0003FFFFFFFFFFFFFFFFFFFFFFFFFFFF0000
0001FFFFFFFFFFFFFFFFFFFFFFFFFFFE0000
0000FFFFFFFFFFFFFFFFFFFFFFFFFFFC0000
00007FFFFFFFFFFFFFFFFFFFFFFFFFF80000
00003FFFFFFFFFFFFFFFFFFFFFFFFFF00000
00001FFFFFFFFFFFFFFFFFFFFFFFFFE00000
000007FFFFFFFFFFFFFFFFFFFFFFFF800000
000003FFFFFFFFFFFFFFFFFFFFFFFF000000
000000FFFFFFFFFFFFFFFFFFFFFFFC000000
0000003FFFFFFFFFFFFFFFFFFFFFF0000000
0000000FFFFFFFFFFFFFFFFFFFFFC0000000
00000003FFFFFFFFFFFFFFFFFFFF00000000
000000007FFFFFFFFFFFFFFFFFF800000000
000000001FFFFFFFFFFFFFFFFFE000000000
0000000001FFFFFFFFFFFFFFFE0000000000
00000000001FFFFFFFFFFFFFE00000000000
0000000000007FFFFFFFFFF8000000000000
000000000000007FFFFFF800000000000000
ENDCHAR
ENDFONT
